{"glyphs":{"0":{"ha":843,"x_min":0,"x_max":0,"o":"m 386 -7 l 457 -7 b 747 274 654 -7 747 92 l 747 699 b 457 979 747 882 654 979 l 386 979 b 96 699 188 979 96 882 l 96 274 b 386 -7 96 92 188 -7 z m 388 86 b 197 272 257 86 197 142 l 197 700 b 388 886 197 831 257 886 l 456 886 b 646 700 585 886 646 831 l 646 272 b 456 86 646 142 585 86 z "},"1":{"ha":379,"x_min":0,"x_max":0,"o":"m 265 972 l 67 972 b 49 954 54 972 49 968 l 49 899 b 67 881 49 886 54 881 l 182 881 l 182 18 b 200 0 182 6 188 0 l 265 0 b 283 18 278 0 283 6 l 283 954 b 265 972 283 967 278 972 z "},"2":{"ha":785,"x_min":0,"x_max":0,"o":"m 90 0 l 689 0 b 707 18 701 0 707 6 l 707 74 b 689 92 707 86 701 92 l 172 92 l 172 151 b 314 340 172 242 206 289 l 490 424 b 715 718 654 500 715 553 b 444 979 715 888 632 979 l 364 979 b 81 728 188 979 81 903 l 81 706 b 99 688 81 693 86 688 l 164 688 b 182 706 178 688 182 693 b 367 886 182 838 244 886 l 440 886 b 614 718 563 886 614 832 b 451 513 614 610 574 571 l 265 424 b 69 121 108 350 69 283 l 69 21 b 90 0 69 7 76 0 z "},"3":{"ha":793,"x_min":0,"x_max":0,"o":"m 544 500 l 544 511 b 696 718 647 540 696 588 b 424 979 696 888 611 979 l 369 979 b 86 728 193 979 86 903 l 86 706 b 104 688 86 693 90 688 l 169 688 b 188 706 182 688 188 693 b 371 886 188 838 249 886 l 419 886 b 596 718 540 886 596 832 b 393 551 596 604 544 551 l 319 551 b 301 533 307 551 301 547 l 301 478 b 319 460 301 465 307 460 l 393 460 b 617 261 544 460 617 410 b 438 88 617 146 560 88 l 360 88 b 176 268 238 88 176 135 b 158 285 176 279 171 285 l 93 285 b 75 268 79 285 75 279 l 75 246 b 358 -7 75 69 182 -7 l 442 -7 b 718 261 628 -7 718 92 b 544 500 718 429 647 475 z "},"4":{"ha":751,"x_min":0,"x_max":0,"o":"m 671 324 l 581 324 l 581 528 b 563 546 581 539 575 546 l 497 546 b 479 528 485 546 479 539 l 479 324 l 156 324 l 486 951 b 474 972 492 963 489 972 l 401 972 b 378 957 390 972 383 968 l 46 324 b 46 292 40 313 39 306 l 68 249 b 89 232 74 238 79 232 l 479 232 l 479 18 b 497 0 479 6 485 0 l 563 0 b 581 18 575 0 581 6 l 581 232 l 671 232 b 689 250 682 232 689 238 l 689 306 b 671 324 689 319 682 324 z "},"5":{"ha":793,"x_min":0,"x_max":0,"o":"m 353 -7 l 440 -7 b 718 275 626 -7 718 92 l 718 350 b 460 622 718 497 657 622 l 385 622 b 193 546 292 622 221 585 l 185 546 l 215 881 l 644 881 b 663 899 657 881 663 886 l 663 954 b 644 972 663 968 657 972 l 147 972 b 126 951 133 972 128 965 l 83 469 b 103 444 82 453 89 444 l 186 444 b 356 529 210 483 254 529 l 432 529 b 617 344 560 529 617 475 l 617 275 b 436 88 617 143 557 88 l 356 88 b 171 268 232 88 171 135 b 153 285 171 279 165 285 l 88 285 b 69 268 75 285 69 279 l 69 246 b 353 -7 69 69 176 -7 z "},"6":{"ha":825,"x_min":0,"x_max":0,"o":"m 381 -7 l 465 -7 b 750 275 664 -7 750 92 l 750 349 b 492 621 750 496 689 621 l 394 621 b 206 539 304 621 232 582 l 199 539 l 197 717 b 372 886 196 835 250 886 l 446 886 b 625 754 571 886 625 856 b 643 736 625 742 629 736 l 708 736 b 726 754 721 736 726 742 l 726 776 b 449 979 726 922 626 979 l 369 979 b 96 719 182 979 96 890 l 96 274 b 381 -7 96 92 182 -7 z m 382 86 b 197 275 253 86 197 143 l 197 343 b 382 529 197 474 253 529 l 464 529 b 649 343 592 529 649 474 l 649 275 b 464 86 649 143 592 86 z "},"7":{"ha":736,"x_min":0,"x_max":0,"o":"m 135 0 l 196 0 b 222 22 211 0 219 10 b 660 836 294 347 450 600 b 688 881 675 856 688 867 l 688 954 b 669 972 688 968 681 972 l 81 972 b 63 954 68 972 63 968 l 63 899 b 81 881 63 886 68 881 l 576 881 l 576 871 b 119 24 349 615 190 343 b 135 0 117 11 119 0 z "},"8":{"ha":846,"x_min":0,"x_max":0,"o":"m 614 536 b 715 735 682 569 715 633 b 468 979 715 893 635 979 l 378 979 b 131 735 211 979 131 893 b 232 536 131 633 164 569 b 96 303 138 503 96 426 l 96 267 b 381 -7 96 92 182 -7 l 465 -7 b 750 267 664 -7 750 92 l 750 301 b 614 536 750 426 708 501 z m 383 890 l 463 890 b 619 735 572 890 619 840 b 464 579 619 629 574 579 l 385 579 b 226 735 274 579 226 629 b 383 890 226 840 274 890 z m 649 267 b 464 86 649 143 592 86 l 382 86 b 197 267 253 86 197 143 l 197 301 b 382 485 197 426 253 485 l 464 485 b 649 301 592 485 649 426 z "},"9":{"ha":825,"x_min":0,"x_max":0,"o":"m 444 979 l 360 979 b 75 697 161 979 75 882 l 75 624 b 333 351 75 476 136 351 l 431 351 b 619 433 521 351 593 390 l 626 433 l 628 256 b 453 86 629 138 575 86 l 379 86 b 200 219 254 86 200 117 b 182 236 200 231 196 236 l 117 236 b 99 219 104 236 99 231 l 99 196 b 376 -7 99 50 199 -7 l 456 -7 b 729 254 643 -7 729 82 l 729 699 b 444 979 729 882 643 979 z m 443 886 b 628 697 572 886 628 829 l 628 629 b 443 444 628 499 572 444 l 361 444 b 176 629 233 444 176 499 l 176 697 b 361 886 176 829 233 886 z "},"A":{"ha":828,"x_min":0,"x_max":0,"o":"m 772 24 l 501 950 b 476 972 497 964 489 972 l 353 972 b 326 950 340 972 331 964 l 56 24 b 71 0 51 8 58 0 l 138 0 b 163 24 151 0 158 8 l 213 196 l 615 196 l 665 24 b 690 0 669 8 676 0 l 757 0 b 772 24 769 0 776 8 z m 240 288 l 407 856 l 422 856 l 588 288 z "},"Á":{"ha":828,"x_min":0,"x_max":0,"o":"m 388 1040 l 443 1040 b 472 1065 457 1040 461 1050 l 599 1225 b 585 1250 611 1240 600 1250 l 496 1250 b 467 1225 482 1250 475 1242 l 374 1065 b 388 1040 364 1050 374 1040 z m 772 24 l 501 950 b 476 972 497 964 489 972 l 353 972 b 326 950 340 972 331 964 l 56 24 b 71 0 51 8 58 0 l 138 0 b 163 24 151 0 158 8 l 213 196 l 615 196 l 665 24 b 690 0 669 8 676 0 l 757 0 b 772 24 769 0 776 8 z m 240 288 l 407 856 l 422 856 l 588 288 z "},"Ă":{"ha":828,"x_min":0,"x_max":0,"o":"m 383 1057 l 444 1057 b 614 1233 558 1057 614 1115 b 594 1250 614 1246 608 1250 l 547 1250 b 528 1233 533 1250 528 1246 b 436 1132 526 1175 499 1132 l 392 1132 b 300 1233 329 1132 301 1175 b 281 1250 299 1246 294 1250 l 233 1250 b 214 1233 219 1250 214 1246 b 383 1057 214 1115 271 1057 z m 772 24 l 501 950 b 476 972 497 964 489 972 l 353 972 b 326 950 340 972 331 964 l 56 24 b 71 0 51 8 58 0 l 138 0 b 163 24 151 0 158 8 l 213 196 l 615 196 l 665 24 b 690 0 669 8 676 0 l 757 0 b 772 24 769 0 776 8 z m 240 288 l 407 856 l 422 856 l 588 288 z "},"Ǎ":{"ha":828,"x_min":0,"x_max":0,"o":"m 344 1061 b 379 1043 356 1047 364 1043 l 446 1043 b 485 1061 461 1043 472 1046 l 631 1226 b 621 1250 640 1239 635 1250 l 560 1250 b 522 1228 544 1250 538 1246 l 421 1114 l 407 1114 l 307 1228 b 269 1250 292 1246 285 1250 l 208 1250 b 199 1226 194 1250 189 1239 z m 772 24 l 501 950 b 476 972 497 964 489 972 l 353 972 b 326 950 340 972 331 964 l 56 24 b 71 0 51 8 58 0 l 138 0 b 163 24 151 0 158 8 l 213 196 l 615 196 l 665 24 b 690 0 669 8 676 0 l 757 0 b 772 24 769 0 776 8 z m 240 288 l 407 856 l 422 856 l 588 288 z "},"Â":{"ha":828,"x_min":0,"x_max":0,"o":"m 201 1043 l 263 1043 b 300 1065 278 1043 285 1047 l 400 1179 l 414 1179 l 515 1065 b 553 1043 531 1047 538 1043 l 614 1043 b 624 1065 628 1043 633 1054 l 478 1232 b 439 1250 465 1246 454 1250 l 372 1250 b 338 1232 357 1250 349 1246 l 192 1065 b 201 1043 182 1054 188 1043 z m 772 24 l 501 950 b 476 972 497 964 489 972 l 353 972 b 326 950 340 972 331 964 l 56 24 b 71 0 51 8 58 0 l 138 0 b 163 24 151 0 158 8 l 213 196 l 615 196 l 665 24 b 690 0 669 8 676 0 l 757 0 b 772 24 769 0 776 8 z m 240 288 l 407 856 l 422 856 l 588 288 z "},"Ä":{"ha":828,"x_min":0,"x_max":0,"o":"m 185 1140 l 257 1140 b 275 1160 271 1140 275 1146 l 275 1232 b 257 1250 275 1246 271 1250 l 185 1250 b 165 1232 171 1250 165 1246 l 165 1160 b 185 1140 165 1146 171 1140 z m 571 1140 l 643 1140 b 663 1160 657 1140 663 1146 l 663 1232 b 643 1250 663 1246 657 1250 l 571 1250 b 553 1232 557 1250 553 1246 l 553 1160 b 571 1140 553 1146 557 1140 z m 772 24 l 501 950 b 476 972 497 964 489 972 l 353 972 b 326 950 340 972 331 964 l 56 24 b 71 0 51 8 58 0 l 138 0 b 163 24 151 0 158 8 l 213 196 l 615 196 l 665 24 b 690 0 669 8 676 0 l 757 0 b 772 24 769 0 776 8 z m 240 288 l 407 856 l 422 856 l 588 288 z "},"À":{"ha":828,"x_min":0,"x_max":0,"o":"m 360 1065 b 389 1040 371 1050 375 1040 l 444 1040 b 458 1065 458 1040 468 1050 l 365 1225 b 336 1250 357 1242 350 1250 l 247 1250 b 233 1225 232 1250 221 1240 z m 772 24 l 501 950 b 476 972 497 964 489 972 l 353 972 b 326 950 340 972 331 964 l 56 24 b 71 0 51 8 58 0 l 138 0 b 163 24 151 0 158 8 l 213 196 l 615 196 l 665 24 b 690 0 669 8 676 0 l 757 0 b 772 24 769 0 776 8 z m 240 288 l 407 856 l 422 856 l 588 288 z "},"Ā":{"ha":828,"x_min":0,"x_max":0,"o":"m 189 1154 l 639 1154 b 660 1175 651 1154 660 1161 l 660 1229 b 639 1250 660 1243 651 1250 l 189 1250 b 168 1229 175 1250 168 1243 l 168 1175 b 189 1154 168 1161 175 1154 z m 772 24 l 501 950 b 476 972 497 964 489 972 l 353 972 b 326 950 340 972 331 964 l 56 24 b 71 0 51 8 58 0 l 138 0 b 163 24 151 0 158 8 l 213 196 l 615 196 l 665 24 b 690 0 669 8 676 0 l 757 0 b 772 24 769 0 776 8 z m 240 288 l 407 856 l 422 856 l 588 288 z "},"Ą":{"ha":804,"x_min":0,"x_max":0,"o":"m 581 -136 l 701 -121 b 779 -39 756 -115 797 -99 l 767 3 b 772 24 772 6 775 13 l 501 950 b 476 972 497 964 489 972 l 353 972 b 326 950 340 972 331 964 l 56 24 b 71 0 51 8 58 0 l 138 0 b 163 24 151 0 158 8 l 213 196 l 615 196 l 664 26 l 651 26 l 667 -22 b 625 -62 674 -49 663 -58 l 568 -69 b 457 -172 485 -79 457 -89 b 585 -282 457 -257 485 -282 l 742 -282 b 756 -268 751 -282 756 -276 l 756 -225 b 742 -211 756 -215 750 -211 l 601 -211 b 550 -171 560 -211 550 -201 b 581 -136 550 -142 558 -137 z m 240 288 l 407 856 l 422 856 l 588 288 z "},"Å":{"ha":828,"x_min":0,"x_max":0,"o":"m 404 1025 l 422 1025 b 539 1140 490 1025 539 1075 l 539 1156 b 422 1272 539 1221 490 1272 l 404 1272 b 288 1156 336 1272 288 1221 l 288 1140 b 404 1025 288 1075 336 1025 z m 354 1154 b 407 1207 354 1186 374 1207 l 419 1207 b 472 1154 454 1207 472 1186 l 472 1143 b 419 1090 472 1111 454 1090 l 407 1090 b 354 1143 374 1090 354 1111 z m 772 24 l 501 950 b 476 972 497 964 489 972 l 353 972 b 326 950 340 972 331 964 l 56 24 b 71 0 51 8 58 0 l 138 0 b 163 24 151 0 158 8 l 213 196 l 615 196 l 665 24 b 690 0 669 8 676 0 l 757 0 b 772 24 769 0 776 8 z m 240 288 l 407 856 l 422 856 l 588 288 z "},"Ã":{"ha":828,"x_min":0,"x_max":0,"o":"m 206 1147 b 228 1142 210 1138 217 1133 b 310 1168 260 1161 282 1168 b 513 1103 389 1168 421 1103 b 632 1142 554 1103 592 1115 b 643 1167 643 1149 647 1157 l 622 1214 b 600 1219 618 1224 611 1226 b 518 1193 567 1199 546 1193 b 315 1257 439 1193 407 1257 b 196 1218 274 1257 236 1246 b 185 1194 185 1211 181 1204 z m 772 24 l 501 950 b 476 972 497 964 489 972 l 353 972 b 326 950 340 972 331 964 l 56 24 b 71 0 51 8 58 0 l 138 0 b 163 24 151 0 158 8 l 213 196 l 615 196 l 665 24 b 690 0 669 8 676 0 l 757 0 b 772 24 769 0 776 8 z m 240 288 l 407 856 l 422 856 l 588 288 z "},"Æ":{"ha":1243,"x_min":0,"x_max":0,"o":"m 1169 96 l 717 96 l 717 442 l 1128 442 b 1149 461 1142 442 1149 447 l 1149 517 b 1128 535 1149 531 1142 535 l 717 535 l 717 876 l 1165 876 b 1186 896 1179 876 1186 882 l 1186 954 b 1165 972 1186 968 1179 972 l 592 972 b 564 951 578 972 572 965 l 44 22 b 57 0 38 8 43 0 l 129 0 b 157 21 143 0 149 7 l 254 196 l 613 196 l 613 19 b 633 0 613 6 619 0 l 1169 0 b 1189 19 1183 0 1189 6 l 1189 78 b 1169 96 1189 92 1183 96 z m 304 288 l 613 843 l 613 288 z "},"B":{"ha":819,"x_min":0,"x_max":0,"o":"m 606 511 l 606 519 b 711 726 686 556 711 622 b 469 972 711 901 639 972 l 114 972 b 96 954 100 972 96 968 l 96 19 b 114 0 96 6 100 0 l 469 0 b 744 257 647 0 744 68 l 744 300 b 606 511 744 415 697 481 z m 607 726 l 607 703 b 461 549 607 590 563 549 l 200 549 l 200 876 l 461 876 b 607 726 565 876 607 839 z m 640 260 b 467 96 640 135 586 96 l 200 96 l 200 461 l 467 461 b 640 300 586 461 640 428 z "},"C":{"ha":849,"x_min":0,"x_max":0,"o":"m 386 -7 l 481 -7 b 768 254 679 -7 768 85 l 768 261 b 751 276 768 269 761 276 l 679 276 b 664 261 669 276 664 271 b 476 89 664 138 599 89 l 390 89 b 200 276 261 89 200 144 l 200 697 b 390 883 200 828 261 883 l 476 883 b 664 701 599 883 664 833 b 679 686 664 692 669 686 l 751 686 b 768 701 761 686 768 692 l 768 707 b 481 979 768 886 679 979 l 386 979 b 96 699 189 979 96 882 l 96 274 b 386 -7 96 92 189 -7 z "},"Ć":{"ha":849,"x_min":0,"x_max":0,"o":"m 483 1225 l 390 1065 b 404 1040 381 1050 390 1040 l 460 1040 b 489 1065 474 1040 478 1050 l 615 1225 b 601 1250 628 1240 617 1250 l 513 1250 b 483 1225 499 1250 492 1242 z m 386 -7 l 481 -7 b 768 254 679 -7 768 85 l 768 261 b 751 276 768 269 761 276 l 679 276 b 664 261 669 276 664 271 b 476 89 664 138 599 89 l 390 89 b 200 276 261 89 200 144 l 200 697 b 390 883 200 828 261 883 l 476 883 b 664 701 599 883 664 833 b 679 686 664 692 669 686 l 751 686 b 768 701 761 686 768 692 l 768 707 b 481 979 768 886 679 979 l 386 979 b 96 699 189 979 96 882 l 96 274 b 386 -7 96 92 189 -7 z "},"Č":{"ha":849,"x_min":0,"x_max":0,"o":"m 396 1043 l 463 1043 b 501 1061 478 1043 489 1046 l 647 1226 b 638 1250 657 1239 651 1250 l 576 1250 b 539 1228 561 1250 554 1246 l 438 1114 l 424 1114 l 324 1228 b 286 1250 308 1246 301 1250 l 225 1250 b 215 1226 211 1250 206 1239 l 361 1061 b 396 1043 372 1047 381 1043 z m 386 -7 l 481 -7 b 768 254 679 -7 768 85 l 768 261 b 751 276 768 269 761 276 l 679 276 b 664 261 669 276 664 271 b 476 89 664 138 599 89 l 390 89 b 200 276 261 89 200 144 l 200 697 b 390 883 200 828 261 883 l 476 883 b 664 701 599 883 664 833 b 679 686 664 692 669 686 l 751 686 b 768 701 761 686 768 692 l 768 707 b 481 979 768 886 679 979 l 386 979 b 96 699 189 979 96 882 l 96 274 b 386 -7 96 92 189 -7 z "},"Ç":{"ha":849,"x_min":0,"x_max":0,"o":"m 390 883 l 476 883 b 664 701 599 883 664 833 b 679 686 664 692 669 686 l 751 686 b 768 701 761 686 768 692 l 768 707 b 481 979 768 886 679 979 l 386 979 b 96 699 189 979 96 882 l 96 274 b 386 -7 96 92 189 -7 l 394 -7 b 344 -82 358 -42 344 -60 b 400 -129 344 -114 369 -126 b 540 -174 504 -140 540 -143 b 478 -212 540 -206 522 -212 l 449 -212 b 386 -167 403 -212 388 -199 b 372 -156 386 -160 379 -156 l 317 -156 b 304 -171 307 -156 304 -161 b 425 -279 304 -239 333 -279 l 499 -279 b 624 -174 588 -279 624 -244 b 483 -71 624 -86 567 -81 b 488 -7 447 -67 426 -61 b 768 254 682 -4 768 88 l 768 261 b 751 276 768 269 761 276 l 679 276 b 664 261 669 276 664 271 b 476 89 664 138 599 89 l 390 89 b 200 276 261 89 200 144 l 200 697 b 390 883 200 828 261 883 z "},"Ĉ":{"ha":849,"x_min":0,"x_max":0,"o":"m 390 1250 b 356 1232 375 1250 367 1246 l 210 1065 b 219 1043 200 1054 206 1043 l 281 1043 b 318 1065 296 1043 303 1047 l 418 1179 l 432 1179 l 533 1065 b 571 1043 549 1047 556 1043 l 632 1043 b 642 1065 646 1043 651 1054 l 496 1232 b 457 1250 483 1246 472 1250 z m 386 -7 l 481 -7 b 768 254 679 -7 768 85 l 768 261 b 751 276 768 269 761 276 l 679 276 b 664 261 669 276 664 271 b 476 89 664 138 599 89 l 390 89 b 200 276 261 89 200 144 l 200 697 b 390 883 200 828 261 883 l 476 883 b 664 701 599 883 664 833 b 679 686 664 692 669 686 l 751 686 b 768 701 761 686 768 692 l 768 707 b 481 979 768 886 679 979 l 386 979 b 96 699 189 979 96 882 l 96 274 b 386 -7 96 92 189 -7 z "},"Ċ":{"ha":849,"x_min":0,"x_max":0,"o":"m 396 1140 l 468 1140 b 486 1160 482 1140 486 1146 l 486 1232 b 468 1250 486 1246 482 1250 l 396 1250 b 376 1232 382 1250 376 1246 l 376 1160 b 396 1140 376 1146 382 1140 z m 386 -7 l 481 -7 b 768 254 679 -7 768 85 l 768 261 b 751 276 768 269 761 276 l 679 276 b 664 261 669 276 664 271 b 476 89 664 138 599 89 l 390 89 b 200 276 261 89 200 144 l 200 697 b 390 883 200 828 261 883 l 476 883 b 664 701 599 883 664 833 b 679 686 664 692 669 686 l 751 686 b 768 701 761 686 768 692 l 768 707 b 481 979 768 886 679 979 l 386 979 b 96 699 189 979 96 882 l 96 274 b 386 -7 96 92 189 -7 z "},"D":{"ha":854,"x_min":0,"x_max":0,"o":"m 468 972 l 114 972 b 96 954 100 972 96 968 l 96 19 b 114 0 96 6 100 0 l 468 0 b 758 281 665 0 758 99 l 758 692 b 468 972 758 875 665 972 z m 654 283 b 464 96 654 151 593 96 l 200 96 l 200 876 l 464 876 b 654 690 593 876 654 821 z "},"Ð":{"ha":871,"x_min":0,"x_max":0,"o":"m 486 972 l 132 972 b 113 954 118 972 113 968 l 113 533 l 26 533 b 8 515 15 533 8 529 l 8 461 b 26 443 8 447 15 443 l 113 443 l 113 19 b 132 0 113 6 118 0 l 486 0 b 776 281 683 0 776 99 l 776 692 b 486 972 776 875 683 972 z m 672 283 b 482 96 672 151 610 96 l 217 96 l 217 443 l 365 443 b 383 461 378 443 383 447 l 383 515 b 365 533 383 529 378 533 l 217 533 l 217 876 l 482 876 b 672 690 610 876 672 821 z "},"Ď":{"ha":854,"x_min":0,"x_max":0,"o":"m 343 1061 b 378 1043 354 1047 363 1043 l 444 1043 b 483 1061 460 1043 471 1046 l 629 1226 b 619 1250 639 1239 633 1250 l 558 1250 b 521 1228 543 1250 536 1246 l 419 1114 l 406 1114 l 306 1228 b 268 1250 290 1246 283 1250 l 207 1250 b 197 1226 193 1250 188 1239 z m 468 972 l 114 972 b 96 954 100 972 96 968 l 96 19 b 114 0 96 6 100 0 l 468 0 b 758 281 665 0 758 99 l 758 692 b 468 972 758 875 665 972 z m 654 283 b 464 96 654 151 593 96 l 200 96 l 200 876 l 464 876 b 654 690 593 876 654 821 z "},"Đ":{"ha":871,"x_min":0,"x_max":0,"o":"m 486 972 l 132 972 b 113 954 118 972 113 968 l 113 533 l 26 533 b 8 515 15 533 8 529 l 8 461 b 26 443 8 447 15 443 l 113 443 l 113 19 b 132 0 113 6 118 0 l 486 0 b 776 281 683 0 776 99 l 776 692 b 486 972 776 875 683 972 z m 672 283 b 482 96 672 151 610 96 l 217 96 l 217 443 l 365 443 b 383 461 378 443 383 447 l 383 515 b 365 533 383 529 378 533 l 217 533 l 217 876 l 482 876 b 672 690 610 876 672 821 z "},"E":{"ha":726,"x_min":0,"x_max":0,"o":"m 115 0 l 653 0 b 672 19 667 0 672 6 l 672 78 b 653 96 672 92 667 96 l 200 96 l 200 442 l 611 442 b 631 461 625 442 631 447 l 631 517 b 611 535 631 531 625 535 l 200 535 l 200 876 l 649 876 b 668 896 663 876 668 882 l 668 954 b 649 972 668 968 663 972 l 115 972 b 96 954 101 972 96 968 l 96 19 b 115 0 96 6 101 0 z "},"É":{"ha":726,"x_min":0,"x_max":0,"o":"m 438 1225 l 344 1065 b 358 1040 335 1050 344 1040 l 414 1040 b 443 1065 428 1040 432 1050 l 569 1225 b 556 1250 582 1240 571 1250 l 467 1250 b 438 1225 453 1250 446 1242 z m 115 0 l 653 0 b 672 19 667 0 672 6 l 672 78 b 653 96 672 92 667 96 l 200 96 l 200 442 l 611 442 b 631 461 625 442 631 447 l 631 517 b 611 535 631 531 625 535 l 200 535 l 200 876 l 649 876 b 668 896 663 876 668 882 l 668 954 b 649 972 668 968 663 972 l 115 972 b 96 954 101 972 96 968 l 96 19 b 115 0 96 6 101 0 z "},"Ě":{"ha":726,"x_min":0,"x_max":0,"o":"m 351 1043 l 418 1043 b 457 1061 433 1043 444 1046 l 603 1226 b 593 1250 613 1239 607 1250 l 532 1250 b 494 1228 517 1250 510 1246 l 393 1114 l 379 1114 l 279 1228 b 242 1250 264 1246 257 1250 l 181 1250 b 171 1226 167 1250 161 1239 l 317 1061 b 351 1043 328 1047 336 1043 z m 115 0 l 653 0 b 672 19 667 0 672 6 l 672 78 b 653 96 672 92 667 96 l 200 96 l 200 442 l 611 442 b 631 461 625 442 631 447 l 631 517 b 611 535 631 531 625 535 l 200 535 l 200 876 l 649 876 b 668 896 663 876 668 882 l 668 954 b 649 972 668 968 663 972 l 115 972 b 96 954 101 972 96 968 l 96 19 b 115 0 96 6 101 0 z "},"Ȩ":{"ha":726,"x_min":0,"x_max":0,"o":"m 653 96 l 200 96 l 200 442 l 611 442 b 631 461 625 442 631 447 l 631 517 b 611 535 631 531 625 535 l 200 535 l 200 876 l 649 876 b 668 896 663 876 668 882 l 668 954 b 649 972 668 968 663 972 l 115 972 b 96 954 101 972 96 968 l 96 19 b 115 0 96 6 101 0 l 343 0 b 286 -82 301 -39 286 -58 b 342 -129 286 -114 311 -126 b 482 -174 446 -140 482 -143 b 419 -212 482 -206 464 -212 l 390 -212 b 328 -167 344 -212 329 -199 b 314 -156 328 -160 321 -156 l 258 -156 b 246 -171 249 -156 246 -161 b 367 -279 246 -239 275 -279 l 440 -279 b 565 -174 529 -279 565 -244 b 425 -71 565 -86 508 -81 b 438 0 388 -67 367 -61 l 653 0 b 672 19 667 0 672 6 l 672 78 b 653 96 672 92 667 96 z "},"Ê":{"ha":726,"x_min":0,"x_max":0,"o":"m 344 1250 b 310 1232 329 1250 321 1246 l 164 1065 b 174 1043 154 1054 160 1043 l 235 1043 b 272 1065 250 1043 257 1047 l 372 1179 l 386 1179 l 488 1065 b 525 1043 503 1047 510 1043 l 586 1043 b 596 1065 600 1043 606 1054 l 450 1232 b 411 1250 438 1246 426 1250 z m 115 0 l 653 0 b 672 19 667 0 672 6 l 672 78 b 653 96 672 92 667 96 l 200 96 l 200 442 l 611 442 b 631 461 625 442 631 447 l 631 517 b 611 535 631 531 625 535 l 200 535 l 200 876 l 649 876 b 668 896 663 876 668 882 l 668 954 b 649 972 668 968 663 972 l 115 972 b 96 954 101 972 96 968 l 96 19 b 115 0 96 6 101 0 z "},"Ë":{"ha":726,"x_min":0,"x_max":0,"o":"m 157 1140 l 229 1140 b 247 1160 243 1140 247 1146 l 247 1232 b 229 1250 247 1246 243 1250 l 157 1250 b 138 1232 143 1250 138 1246 l 138 1160 b 157 1140 138 1146 143 1140 z m 543 1140 l 615 1140 b 635 1160 629 1140 635 1146 l 635 1232 b 615 1250 635 1246 629 1250 l 543 1250 b 525 1232 529 1250 525 1246 l 525 1160 b 543 1140 525 1146 529 1140 z m 115 0 l 653 0 b 672 19 667 0 672 6 l 672 78 b 653 96 672 92 667 96 l 200 96 l 200 442 l 611 442 b 631 461 625 442 631 447 l 631 517 b 611 535 631 531 625 535 l 200 535 l 200 876 l 649 876 b 668 896 663 876 668 882 l 668 954 b 649 972 668 968 663 972 l 115 972 b 96 954 101 972 96 968 l 96 19 b 115 0 96 6 101 0 z "},"Ė":{"ha":726,"x_min":0,"x_max":0,"o":"m 350 1140 l 422 1140 b 440 1160 436 1140 440 1146 l 440 1232 b 422 1250 440 1246 436 1250 l 350 1250 b 331 1232 336 1250 331 1246 l 331 1160 b 350 1140 331 1146 336 1140 z m 115 0 l 653 0 b 672 19 667 0 672 6 l 672 78 b 653 96 672 92 667 96 l 200 96 l 200 442 l 611 442 b 631 461 625 442 631 447 l 631 517 b 611 535 631 531 625 535 l 200 535 l 200 876 l 649 876 b 668 896 663 876 668 882 l 668 954 b 649 972 668 968 663 972 l 115 972 b 96 954 101 972 96 968 l 96 19 b 115 0 96 6 101 0 z "},"È":{"ha":726,"x_min":0,"x_max":0,"o":"m 338 1225 b 308 1250 329 1242 322 1250 l 219 1250 b 206 1225 204 1250 193 1240 l 332 1065 b 361 1040 343 1050 347 1040 l 417 1040 b 431 1065 431 1040 440 1050 z m 115 0 l 653 0 b 672 19 667 0 672 6 l 672 78 b 653 96 672 92 667 96 l 200 96 l 200 442 l 611 442 b 631 461 625 442 631 447 l 631 517 b 611 535 631 531 625 535 l 200 535 l 200 876 l 649 876 b 668 896 663 876 668 882 l 668 954 b 649 972 668 968 663 972 l 115 972 b 96 954 101 972 96 968 l 96 19 b 115 0 96 6 101 0 z "},"Ē":{"ha":726,"x_min":0,"x_max":0,"o":"m 161 1154 l 611 1154 b 632 1175 624 1154 632 1161 l 632 1229 b 611 1250 632 1243 624 1250 l 161 1250 b 140 1229 147 1250 140 1243 l 140 1175 b 161 1154 140 1161 147 1154 z m 115 0 l 653 0 b 672 19 667 0 672 6 l 672 78 b 653 96 672 92 667 96 l 200 96 l 200 442 l 611 442 b 631 461 625 442 631 447 l 631 517 b 611 535 631 531 625 535 l 200 535 l 200 876 l 649 876 b 668 896 663 876 668 882 l 668 954 b 649 972 668 968 663 972 l 115 972 b 96 954 101 972 96 968 l 96 19 b 115 0 96 6 101 0 z "},"Ę":{"ha":726,"x_min":0,"x_max":0,"o":"m 653 96 l 200 96 l 200 442 l 611 442 b 631 461 625 442 631 447 l 631 517 b 611 535 631 531 625 535 l 200 535 l 200 876 l 649 876 b 668 896 663 876 668 882 l 668 954 b 649 972 668 968 663 972 l 115 972 b 96 954 101 972 96 968 l 96 19 b 115 0 96 6 101 0 l 571 0 l 571 -22 b 526 -62 571 -50 563 -60 l 468 -69 b 357 -172 385 -79 357 -89 b 485 -282 357 -257 385 -282 l 642 -282 b 656 -268 651 -282 656 -276 l 656 -225 b 642 -211 656 -215 650 -211 l 501 -211 b 450 -171 460 -211 450 -201 b 481 -136 450 -142 458 -137 l 600 -121 b 672 -39 653 -115 672 -100 l 672 78 b 653 96 672 92 667 96 z "},"F":{"ha":722,"x_min":0,"x_max":0,"o":"m 649 972 l 114 972 b 96 954 100 972 96 968 l 96 19 b 114 0 96 6 100 0 l 181 0 b 200 19 194 0 200 6 l 200 442 l 613 442 b 632 461 626 442 632 447 l 632 517 b 613 535 632 531 626 535 l 200 535 l 200 876 l 649 876 b 668 896 663 876 668 882 l 668 954 b 649 972 668 968 663 972 z "},"G":{"ha":863,"x_min":0,"x_max":0,"o":"m 386 -7 l 478 -7 b 768 274 675 -7 768 92 l 768 513 b 744 535 768 526 758 535 l 460 535 b 440 517 446 535 440 531 l 440 461 b 460 442 440 447 446 442 l 664 442 l 664 276 b 474 89 664 144 601 89 l 390 89 b 200 276 261 89 200 144 l 200 697 b 390 883 200 828 261 883 l 476 883 b 664 701 599 883 664 833 b 679 686 664 692 669 686 l 751 686 b 768 701 761 686 768 692 l 768 707 b 481 979 768 886 679 979 l 386 979 b 96 699 189 979 96 882 l 96 274 b 386 -7 96 92 189 -7 z "},"Ğ":{"ha":863,"x_min":0,"x_max":0,"o":"m 408 1057 l 469 1057 b 639 1233 583 1057 639 1115 b 619 1250 639 1246 633 1250 l 572 1250 b 553 1233 558 1250 553 1246 b 461 1132 551 1175 524 1132 l 417 1132 b 325 1233 354 1132 326 1175 b 306 1250 324 1246 319 1250 l 258 1250 b 239 1233 244 1250 239 1246 b 408 1057 239 1115 296 1057 z m 386 -7 l 478 -7 b 768 274 675 -7 768 92 l 768 513 b 744 535 768 526 758 535 l 460 535 b 440 517 446 535 440 531 l 440 461 b 460 442 440 447 446 442 l 664 442 l 664 276 b 474 89 664 144 601 89 l 390 89 b 200 276 261 89 200 144 l 200 697 b 390 883 200 828 261 883 l 476 883 b 664 701 599 883 664 833 b 679 686 664 692 669 686 l 751 686 b 768 701 761 686 768 692 l 768 707 b 481 979 768 886 679 979 l 386 979 b 96 699 189 979 96 882 l 96 274 b 386 -7 96 92 189 -7 z "},"Ǧ":{"ha":863,"x_min":0,"x_max":0,"o":"m 404 1043 l 471 1043 b 510 1061 486 1043 497 1046 l 656 1226 b 646 1250 665 1239 660 1250 l 585 1250 b 547 1228 569 1250 563 1246 l 446 1114 l 432 1114 l 332 1228 b 294 1250 317 1246 310 1250 l 233 1250 b 224 1226 219 1250 214 1239 l 369 1061 b 404 1043 381 1047 389 1043 z m 386 -7 l 478 -7 b 768 274 675 -7 768 92 l 768 513 b 744 535 768 526 758 535 l 460 535 b 440 517 446 535 440 531 l 440 461 b 460 442 440 447 446 442 l 664 442 l 664 276 b 474 89 664 144 601 89 l 390 89 b 200 276 261 89 200 144 l 200 697 b 390 883 200 828 261 883 l 476 883 b 664 701 599 883 664 833 b 679 686 664 692 669 686 l 751 686 b 768 701 761 686 768 692 l 768 707 b 481 979 768 886 679 979 l 386 979 b 96 699 189 979 96 882 l 96 274 b 386 -7 96 92 189 -7 z "},"Ĝ":{"ha":863,"x_min":0,"x_max":0,"o":"m 397 1250 b 363 1232 382 1250 374 1246 l 217 1065 b 226 1043 207 1054 213 1043 l 288 1043 b 325 1065 303 1043 310 1047 l 425 1179 l 439 1179 l 540 1065 b 578 1043 556 1047 563 1043 l 639 1043 b 649 1065 653 1043 658 1054 l 503 1232 b 464 1250 490 1246 479 1250 z m 386 -7 l 478 -7 b 768 274 675 -7 768 92 l 768 513 b 744 535 768 526 758 535 l 460 535 b 440 517 446 535 440 531 l 440 461 b 460 442 440 447 446 442 l 664 442 l 664 276 b 474 89 664 144 601 89 l 390 89 b 200 276 261 89 200 144 l 200 697 b 390 883 200 828 261 883 l 476 883 b 664 701 599 883 664 833 b 679 686 664 692 669 686 l 751 686 b 768 701 761 686 768 692 l 768 707 b 481 979 768 886 679 979 l 386 979 b 96 699 189 979 96 882 l 96 274 b 386 -7 96 92 189 -7 z "},"Ģ":{"ha":863,"x_min":0,"x_max":0,"o":"m 386 -7 l 478 -7 b 768 274 675 -7 768 92 l 768 513 b 744 535 768 526 758 535 l 460 535 b 440 517 446 535 440 531 l 440 461 b 460 442 440 447 446 442 l 664 442 l 664 276 b 474 89 664 144 601 89 l 390 89 b 200 276 261 89 200 144 l 200 697 b 390 883 200 828 261 883 l 476 883 b 664 701 599 883 664 833 b 679 686 664 692 669 686 l 751 686 b 768 701 761 686 768 692 l 768 707 b 481 979 768 886 679 979 l 386 979 b 96 699 189 979 96 882 l 96 274 b 386 -7 96 92 189 -7 z m 464 -83 l 410 -83 b 392 -103 396 -83 392 -89 l 392 -308 l 347 -308 b 328 -326 333 -308 328 -312 l 328 -375 b 347 -394 328 -389 333 -394 l 446 -394 b 482 -357 471 -394 482 -382 l 482 -103 b 464 -83 482 -89 478 -83 z "},"Ġ":{"ha":863,"x_min":0,"x_max":0,"o":"m 403 1140 l 475 1140 b 493 1160 489 1140 493 1146 l 493 1232 b 475 1250 493 1246 489 1250 l 403 1250 b 383 1232 389 1250 383 1246 l 383 1160 b 403 1140 383 1146 389 1140 z m 386 -7 l 478 -7 b 768 274 675 -7 768 92 l 768 513 b 744 535 768 526 758 535 l 460 535 b 440 517 446 535 440 531 l 440 461 b 460 442 440 447 446 442 l 664 442 l 664 276 b 474 89 664 144 601 89 l 390 89 b 200 276 261 89 200 144 l 200 697 b 390 883 200 828 261 883 l 476 883 b 664 701 599 883 664 833 b 679 686 664 692 669 686 l 751 686 b 768 701 761 686 768 692 l 768 707 b 481 979 768 886 679 979 l 386 979 b 96 699 189 979 96 882 l 96 274 b 386 -7 96 92 189 -7 z "},"H":{"ha":854,"x_min":0,"x_max":0,"o":"m 740 972 l 674 972 b 654 954 660 972 654 968 l 654 535 l 200 535 l 200 954 b 182 972 200 968 196 972 l 114 972 b 96 954 100 972 96 968 l 96 19 b 114 0 96 6 100 0 l 182 0 b 200 19 196 0 200 6 l 200 442 l 654 442 l 654 19 b 674 0 654 6 660 0 l 740 0 b 758 19 754 0 758 6 l 758 954 b 740 972 758 968 754 972 z "},"Ħ":{"ha":854,"x_min":0,"x_max":0,"o":"m 740 972 l 674 972 b 654 954 660 972 654 968 l 654 746 l 200 746 l 200 954 b 182 972 200 968 196 972 l 114 972 b 96 954 100 972 96 968 l 96 19 b 114 0 96 6 100 0 l 182 0 b 200 19 196 0 200 6 l 200 442 l 654 442 l 654 19 b 674 0 654 6 660 0 l 740 0 b 758 19 754 0 758 6 l 758 954 b 740 972 758 968 754 972 z m 200 535 l 200 653 l 654 653 l 654 535 z "},"Ĥ":{"ha":854,"x_min":0,"x_max":0,"o":"m 215 1043 l 276 1043 b 314 1065 292 1043 299 1047 l 414 1179 l 428 1179 l 529 1065 b 567 1043 544 1047 551 1043 l 628 1043 b 638 1065 642 1043 647 1054 l 492 1232 b 453 1250 479 1246 468 1250 l 386 1250 b 351 1232 371 1250 363 1246 l 206 1065 b 215 1043 196 1054 201 1043 z m 740 972 l 674 972 b 654 954 660 972 654 968 l 654 535 l 200 535 l 200 954 b 182 972 200 968 196 972 l 114 972 b 96 954 100 972 96 968 l 96 19 b 114 0 96 6 100 0 l 182 0 b 200 19 196 0 200 6 l 200 442 l 654 442 l 654 19 b 674 0 654 6 660 0 l 740 0 b 758 19 754 0 758 6 l 758 954 b 740 972 758 968 754 972 z "},"I":{"ha":296,"x_min":0,"x_max":0,"o":"m 114 0 l 181 0 b 200 19 194 0 200 6 l 200 954 b 181 972 200 968 194 972 l 114 972 b 96 954 100 972 96 968 l 96 19 b 114 0 96 6 100 0 z "},"Ĳ":{"ha":803,"x_min":0,"x_max":0,"o":"m 114 0 l 181 0 b 200 19 194 0 200 6 l 200 954 b 181 972 200 968 194 972 l 114 972 b 96 954 100 972 96 968 l 96 19 b 114 0 96 6 100 0 z m 376 -7 l 417 -7 b 707 274 614 -7 707 92 l 707 954 b 689 972 707 968 703 972 l 622 972 b 603 954 608 972 603 968 l 603 276 b 413 89 603 144 542 89 l 376 89 b 357 71 363 89 357 85 l 357 13 b 376 -7 357 -3 363 -7 z "},"Í":{"ha":296,"x_min":0,"x_max":0,"o":"m 200 1225 l 107 1065 b 121 1040 97 1050 107 1040 l 176 1040 b 206 1065 190 1040 194 1050 l 332 1225 b 318 1250 344 1240 333 1250 l 229 1250 b 200 1225 215 1250 208 1242 z m 114 0 l 181 0 b 200 19 194 0 200 6 l 200 954 b 181 972 200 968 194 972 l 114 972 b 96 954 100 972 96 968 l 96 19 b 114 0 96 6 100 0 z "},"Ǐ":{"ha":296,"x_min":0,"x_max":0,"o":"m 113 1043 l 179 1043 b 218 1061 194 1043 206 1046 l 364 1226 b 354 1250 374 1239 368 1250 l 293 1250 b 256 1228 278 1250 271 1246 l 154 1114 l 140 1114 l 40 1228 b 3 1250 25 1246 18 1250 l -60 1250 b -68 1226 -74 1250 -78 1239 l 78 1061 b 113 1043 89 1047 97 1043 z m 114 0 l 181 0 b 200 19 194 0 200 6 l 200 954 b 181 972 200 968 194 972 l 114 972 b 96 954 100 972 96 968 l 96 19 b 114 0 96 6 100 0 z "},"Î":{"ha":296,"x_min":0,"x_max":0,"o":"m 106 1250 b 71 1232 90 1250 82 1246 l -75 1065 b -67 1043 -85 1054 -81 1043 l -6 1043 b 33 1065 11 1043 18 1047 l 133 1179 l 147 1179 l 249 1065 b 286 1043 264 1047 271 1043 l 347 1043 b 357 1065 361 1043 367 1054 l 211 1232 b 172 1250 199 1246 188 1250 z m 114 0 l 181 0 b 200 19 194 0 200 6 l 200 954 b 181 972 200 968 194 972 l 114 972 b 96 954 100 972 96 968 l 96 19 b 114 0 96 6 100 0 z "},"Ï":{"ha":296,"x_min":0,"x_max":0,"o":"m -83 1140 l -11 1140 b 8 1160 4 1140 8 1146 l 8 1232 b -11 1250 8 1246 4 1250 l -83 1250 b -101 1232 -97 1250 -101 1246 l -101 1160 b -83 1140 -101 1146 -97 1140 z m 304 1140 l 376 1140 b 396 1160 390 1140 396 1146 l 396 1232 b 376 1250 396 1246 390 1250 l 304 1250 b 286 1232 290 1250 286 1246 l 286 1160 b 304 1140 286 1146 290 1140 z m 114 0 l 181 0 b 200 19 194 0 200 6 l 200 954 b 181 972 200 968 194 972 l 114 972 b 96 954 100 972 96 968 l 96 19 b 114 0 96 6 100 0 z "},"İ":{"ha":296,"x_min":0,"x_max":0,"o":"m 111 1140 l 183 1140 b 201 1160 197 1140 201 1146 l 201 1232 b 183 1250 201 1246 197 1250 l 111 1250 b 92 1232 97 1250 92 1246 l 92 1160 b 111 1140 92 1146 97 1140 z m 114 0 l 181 0 b 200 19 194 0 200 6 l 200 954 b 181 972 200 968 194 972 l 114 972 b 96 954 100 972 96 968 l 96 19 b 114 0 96 6 100 0 z "},"Ì":{"ha":296,"x_min":0,"x_max":0,"o":"m 99 1225 b 69 1250 90 1242 83 1250 l -19 1250 b -33 1225 -35 1250 -46 1240 l 93 1065 b 122 1040 104 1050 108 1040 l 178 1040 b 192 1065 192 1040 201 1050 z m 114 0 l 181 0 b 200 19 194 0 200 6 l 200 954 b 181 972 200 968 194 972 l 114 972 b 96 954 100 972 96 968 l 96 19 b 114 0 96 6 100 0 z "},"Ī":{"ha":296,"x_min":0,"x_max":0,"o":"m -78 1154 l 372 1154 b 393 1175 385 1154 393 1161 l 393 1229 b 372 1250 393 1243 385 1250 l -78 1250 b -99 1229 -92 1250 -99 1243 l -99 1175 b -78 1154 -99 1161 -92 1154 z m 114 0 l 181 0 b 200 19 194 0 200 6 l 200 954 b 181 972 200 968 194 972 l 114 972 b 96 954 100 972 96 968 l 96 19 b 114 0 96 6 100 0 z "},"Į":{"ha":274,"x_min":0,"x_max":0,"o":"m 183 972 l 117 972 b 97 954 103 972 97 968 l 97 -22 b 53 -62 97 -50 90 -58 l -4 -69 b -115 -172 -87 -79 -115 -89 b 14 -282 -115 -257 -87 -282 l 169 -282 b 183 -268 179 -282 183 -276 l 183 -225 b 169 -211 183 -215 178 -211 l 31 -211 b -22 -171 -12 -211 -22 -201 b 10 -136 -22 -142 -14 -137 l 128 -121 b 201 -39 182 -115 201 -100 l 201 954 b 183 972 201 968 197 972 z "},"J":{"ha":507,"x_min":0,"x_max":0,"o":"m 81 -7 l 121 -7 b 411 274 318 -7 411 92 l 411 954 b 393 972 411 968 407 972 l 326 972 b 307 954 313 972 307 968 l 307 276 b 117 89 307 144 246 89 l 81 89 b 61 71 67 89 61 85 l 61 13 b 81 -7 61 -3 67 -7 z "},"Ĵ":{"ha":507,"x_min":0,"x_max":0,"o":"m 318 1250 b 283 1232 303 1250 294 1246 l 138 1065 b 147 1043 128 1054 133 1043 l 208 1043 b 246 1065 224 1043 231 1047 l 346 1179 l 360 1179 l 461 1065 b 499 1043 476 1047 483 1043 l 560 1043 b 569 1065 574 1043 579 1054 l 424 1232 b 385 1250 411 1246 400 1250 z m 81 -7 l 121 -7 b 411 274 318 -7 411 92 l 411 954 b 393 972 411 968 407 972 l 326 972 b 307 954 313 972 307 968 l 307 276 b 117 89 307 144 246 89 l 81 89 b 61 71 67 89 61 85 l 61 13 b 81 -7 61 -3 67 -7 z "},"K":{"ha":797,"x_min":0,"x_max":0,"o":"m 739 28 l 368 525 l 710 942 b 701 972 724 958 718 972 l 622 972 b 593 953 610 972 603 965 l 200 465 l 200 954 b 181 972 200 968 194 972 l 114 972 b 96 954 100 972 96 968 l 96 19 b 114 0 96 6 100 0 l 181 0 b 200 19 194 0 200 6 l 200 319 l 303 443 l 618 19 b 654 0 629 6 639 0 l 728 0 b 739 28 746 0 747 17 z "},"Ķ":{"ha":797,"x_min":0,"x_max":0,"o":"m 739 28 l 368 525 l 710 942 b 701 972 724 958 718 972 l 622 972 b 593 953 610 972 603 965 l 200 465 l 200 954 b 181 972 200 968 194 972 l 114 972 b 96 954 100 972 96 968 l 96 19 b 114 0 96 6 100 0 l 181 0 b 200 19 194 0 200 6 l 200 319 l 303 443 l 618 19 b 654 0 629 6 639 0 l 728 0 b 739 28 746 0 747 17 z m 418 -83 l 364 -83 b 346 -103 350 -83 346 -89 l 346 -308 l 301 -308 b 282 -326 288 -308 282 -312 l 282 -375 b 301 -394 282 -389 288 -394 l 400 -394 b 436 -357 425 -394 436 -382 l 436 -103 b 418 -83 436 -89 432 -83 z "},"L":{"ha":699,"x_min":0,"x_max":0,"o":"m 115 0 l 618 0 b 638 19 632 0 638 6 l 638 78 b 618 96 638 92 632 96 l 200 96 l 200 954 b 181 972 200 968 194 972 l 114 972 b 96 954 100 972 96 968 l 96 19 b 115 0 96 6 101 0 z "},"Ĺ":{"ha":699,"x_min":0,"x_max":0,"o":"m 200 1225 l 107 1065 b 121 1040 97 1050 107 1040 l 176 1040 b 206 1065 190 1040 194 1050 l 332 1225 b 318 1250 344 1240 333 1250 l 229 1250 b 200 1225 215 1250 208 1242 z m 115 0 l 618 0 b 638 19 632 0 638 6 l 638 78 b 618 96 638 92 632 96 l 200 96 l 200 954 b 181 972 200 968 194 972 l 114 972 b 96 954 100 972 96 968 l 96 19 b 115 0 96 6 101 0 z "},"Ľ":{"ha":699,"x_min":0,"x_max":0,"o":"m 115 0 l 618 0 b 638 19 632 0 638 6 l 638 78 b 618 96 638 92 632 96 l 200 96 l 200 954 b 181 972 200 968 194 972 l 114 972 b 96 954 100 972 96 968 l 96 19 b 115 0 96 6 101 0 z m 475 972 l 421 972 b 403 954 407 972 403 968 l 403 749 l 358 749 b 339 729 344 749 339 743 l 339 681 b 358 663 339 667 344 663 l 457 663 b 493 699 482 663 493 674 l 493 954 b 475 972 493 968 489 972 z "},"Ļ":{"ha":699,"x_min":0,"x_max":0,"o":"m 115 0 l 618 0 b 638 19 632 0 638 6 l 638 78 b 618 96 638 92 632 96 l 200 96 l 200 954 b 181 972 200 968 194 972 l 114 972 b 96 954 100 972 96 968 l 96 19 b 115 0 96 6 101 0 z m 397 -83 l 343 -83 b 325 -103 329 -83 325 -89 l 325 -308 l 281 -308 b 261 -326 267 -308 261 -312 l 261 -375 b 281 -394 261 -389 267 -394 l 379 -394 b 415 -357 404 -394 415 -382 l 415 -103 b 397 -83 415 -89 411 -83 z "},"Ŀ":{"ha":699,"x_min":0,"x_max":0,"o":"m 115 0 l 618 0 b 638 19 632 0 638 6 l 638 78 b 618 96 638 92 632 96 l 200 96 l 200 954 b 181 972 200 968 194 972 l 114 972 b 96 954 100 972 96 968 l 96 19 b 115 0 96 6 101 0 z m 397 453 l 469 453 b 488 472 483 453 488 458 l 488 544 b 469 563 488 558 483 563 l 397 563 b 378 544 383 563 378 558 l 378 472 b 397 453 378 458 383 453 z "},"Ł":{"ha":749,"x_min":0,"x_max":0,"o":"m 668 96 l 250 96 l 250 368 l 471 631 b 458 653 482 644 475 653 l 385 653 b 353 631 374 653 367 649 l 250 510 l 250 954 b 232 972 250 968 246 972 l 165 972 b 146 954 151 972 146 968 l 146 386 l 13 229 b 26 206 1 215 10 206 l 100 206 b 132 228 111 206 118 210 l 146 244 l 146 19 b 165 0 146 6 151 0 l 668 0 b 688 19 682 0 688 6 l 688 78 b 668 96 688 92 682 96 z "},"M":{"ha":1029,"x_min":0,"x_max":0,"o":"m 114 0 l 181 0 b 200 19 194 0 200 6 l 200 847 l 211 847 l 440 21 b 467 0 444 7 454 0 l 563 0 b 589 21 575 0 586 7 l 818 847 l 829 847 l 829 19 b 849 0 829 6 835 0 l 915 0 b 933 19 929 0 933 6 l 933 954 b 915 972 933 968 929 972 l 775 972 b 750 951 761 972 754 965 l 519 119 l 510 119 l 279 951 b 254 972 276 965 268 972 l 114 972 b 96 954 100 972 96 968 l 96 19 b 114 0 96 6 100 0 z "},"Ḿ":{"ha":1029,"x_min":0,"x_max":0,"o":"m 574 1215 l 481 1056 b 494 1031 471 1040 481 1031 l 550 1031 b 579 1056 564 1031 568 1040 l 706 1215 b 692 1240 718 1231 707 1240 l 603 1240 b 574 1215 589 1240 582 1232 z m 114 0 l 181 0 b 200 19 194 0 200 6 l 200 847 l 211 847 l 440 21 b 467 0 444 7 454 0 l 563 0 b 589 21 575 0 586 7 l 818 847 l 829 847 l 829 19 b 849 0 829 6 835 0 l 915 0 b 933 19 929 0 933 6 l 933 954 b 915 972 933 968 929 972 l 775 972 b 750 951 761 972 754 965 l 519 119 l 510 119 l 279 951 b 254 972 276 965 268 972 l 114 972 b 96 954 100 972 96 968 l 96 19 b 114 0 96 6 100 0 z "},"N":{"ha":851,"x_min":0,"x_max":0,"o":"m 114 0 l 181 0 b 200 19 194 0 200 6 l 200 847 l 211 847 l 582 15 b 607 0 588 4 596 0 l 736 0 b 756 19 750 0 756 6 l 756 954 b 736 972 756 968 750 972 l 669 972 b 651 954 656 972 651 968 l 651 126 l 640 126 l 269 957 b 244 972 264 968 256 972 l 114 972 b 96 954 100 972 96 968 l 96 19 b 114 0 96 6 100 0 z "},"Ń":{"ha":851,"x_min":0,"x_max":0,"o":"m 478 1225 l 385 1065 b 399 1040 375 1050 385 1040 l 454 1040 b 483 1065 468 1040 472 1050 l 610 1225 b 596 1250 622 1240 611 1250 l 507 1250 b 478 1225 493 1250 486 1242 z m 114 0 l 181 0 b 200 19 194 0 200 6 l 200 847 l 211 847 l 582 15 b 607 0 588 4 596 0 l 736 0 b 756 19 750 0 756 6 l 756 954 b 736 972 756 968 750 972 l 669 972 b 651 954 656 972 651 968 l 651 126 l 640 126 l 269 957 b 244 972 264 968 256 972 l 114 972 b 96 954 100 972 96 968 l 96 19 b 114 0 96 6 100 0 z "},"Ň":{"ha":851,"x_min":0,"x_max":0,"o":"m 390 1043 l 457 1043 b 496 1061 472 1043 483 1046 l 642 1226 b 632 1250 651 1239 646 1250 l 571 1250 b 533 1228 556 1250 549 1246 l 432 1114 l 418 1114 l 318 1228 b 281 1250 303 1246 296 1250 l 219 1250 b 210 1226 206 1250 200 1239 l 356 1061 b 390 1043 367 1047 375 1043 z m 114 0 l 181 0 b 200 19 194 0 200 6 l 200 847 l 211 847 l 582 15 b 607 0 588 4 596 0 l 736 0 b 756 19 750 0 756 6 l 756 954 b 736 972 756 968 750 972 l 669 972 b 651 954 656 972 651 968 l 651 126 l 640 126 l 269 957 b 244 972 264 968 256 972 l 114 972 b 96 954 100 972 96 968 l 96 19 b 114 0 96 6 100 0 z "},"Ņ":{"ha":851,"x_min":0,"x_max":0,"o":"m 114 0 l 181 0 b 200 19 194 0 200 6 l 200 847 l 211 847 l 582 15 b 607 0 588 4 596 0 l 736 0 b 756 19 750 0 756 6 l 756 954 b 736 972 756 968 750 972 l 669 972 b 651 954 656 972 651 968 l 651 126 l 640 126 l 269 957 b 244 972 264 968 256 972 l 114 972 b 96 954 100 972 96 968 l 96 19 b 114 0 96 6 100 0 z m 450 -83 l 396 -83 b 378 -103 382 -83 378 -89 l 378 -308 l 333 -308 b 314 -326 319 -308 314 -312 l 314 -375 b 333 -394 314 -389 319 -394 l 432 -394 b 468 -357 457 -394 468 -382 l 468 -103 b 450 -83 468 -89 464 -83 z "},"Ŋ":{"ha":851,"x_min":0,"x_max":0,"o":"m 736 972 l 669 972 b 651 954 656 972 651 968 l 651 126 l 640 126 l 269 957 b 244 972 264 968 256 972 l 114 972 b 96 954 100 972 96 968 l 96 19 b 114 0 96 6 100 0 l 181 0 b 200 19 194 0 200 6 l 200 847 l 211 847 l 582 15 b 607 0 588 4 596 0 l 651 0 l 651 -3 b 461 -189 651 -133 589 -189 l 425 -189 b 404 -208 411 -189 404 -194 l 404 -267 b 425 -285 404 -281 411 -285 l 465 -285 b 756 -4 663 -285 756 -187 l 756 954 b 736 972 756 968 750 972 z "},"Ñ":{"ha":851,"x_min":0,"x_max":0,"o":"m 525 1103 b 644 1142 567 1103 604 1115 b 656 1167 656 1149 660 1157 l 635 1214 b 613 1219 631 1224 624 1226 b 531 1193 579 1199 558 1193 b 328 1257 451 1193 419 1257 b 208 1218 286 1257 249 1246 b 197 1194 197 1211 193 1204 l 218 1147 b 240 1142 222 1138 229 1133 b 322 1168 272 1161 294 1168 b 525 1103 401 1168 433 1103 z m 114 0 l 181 0 b 200 19 194 0 200 6 l 200 847 l 211 847 l 582 15 b 607 0 588 4 596 0 l 736 0 b 756 19 750 0 756 6 l 756 954 b 736 972 756 968 750 972 l 669 972 b 651 954 656 972 651 968 l 651 126 l 640 126 l 269 957 b 244 972 264 968 256 972 l 114 972 b 96 954 100 972 96 968 l 96 19 b 114 0 96 6 100 0 z "},"O":{"ha":875,"x_min":0,"x_max":0,"o":"m 386 -7 l 489 -7 b 779 274 686 -7 779 92 l 779 699 b 489 979 779 882 686 979 l 386 979 b 96 699 188 979 96 882 l 96 274 b 386 -7 96 92 188 -7 z m 390 89 b 200 276 261 89 200 144 l 200 697 b 390 883 200 828 261 883 l 485 883 b 675 697 614 883 675 828 l 675 276 b 485 89 675 144 614 89 z "},"Ó":{"ha":875,"x_min":0,"x_max":0,"o":"m 490 1225 l 397 1065 b 411 1040 388 1050 397 1040 l 467 1040 b 496 1065 481 1040 485 1050 l 622 1225 b 608 1250 635 1240 624 1250 l 519 1250 b 490 1225 506 1250 499 1242 z m 386 -7 l 489 -7 b 779 274 686 -7 779 92 l 779 699 b 489 979 779 882 686 979 l 386 979 b 96 699 188 979 96 882 l 96 274 b 386 -7 96 92 188 -7 z m 390 89 b 200 276 261 89 200 144 l 200 697 b 390 883 200 828 261 883 l 485 883 b 675 697 614 883 675 828 l 675 276 b 485 89 675 144 614 89 z "},"Ǒ":{"ha":875,"x_min":0,"x_max":0,"o":"m 403 1043 l 469 1043 b 508 1061 485 1043 496 1046 l 654 1226 b 644 1250 664 1239 658 1250 l 583 1250 b 546 1228 568 1250 561 1246 l 444 1114 l 431 1114 l 331 1228 b 293 1250 315 1246 308 1250 l 232 1250 b 222 1226 218 1250 213 1239 l 368 1061 b 403 1043 379 1047 388 1043 z m 386 -7 l 489 -7 b 779 274 686 -7 779 92 l 779 699 b 489 979 779 882 686 979 l 386 979 b 96 699 188 979 96 882 l 96 274 b 386 -7 96 92 188 -7 z m 390 89 b 200 276 261 89 200 144 l 200 697 b 390 883 200 828 261 883 l 485 883 b 675 697 614 883 675 828 l 675 276 b 485 89 675 144 614 89 z "},"Ô":{"ha":875,"x_min":0,"x_max":0,"o":"m 397 1250 b 363 1232 382 1250 374 1246 l 217 1065 b 226 1043 207 1054 213 1043 l 288 1043 b 325 1065 303 1043 310 1047 l 425 1179 l 439 1179 l 540 1065 b 578 1043 556 1047 563 1043 l 639 1043 b 649 1065 653 1043 658 1054 l 503 1232 b 464 1250 490 1246 479 1250 z m 386 -7 l 489 -7 b 779 274 686 -7 779 92 l 779 699 b 489 979 779 882 686 979 l 386 979 b 96 699 188 979 96 882 l 96 274 b 386 -7 96 92 188 -7 z m 390 89 b 200 276 261 89 200 144 l 200 697 b 390 883 200 828 261 883 l 485 883 b 675 697 614 883 675 828 l 675 276 b 485 89 675 144 614 89 z "},"Ö":{"ha":875,"x_min":0,"x_max":0,"o":"m 210 1140 l 282 1140 b 300 1160 296 1140 300 1146 l 300 1232 b 282 1250 300 1246 296 1250 l 210 1250 b 190 1232 196 1250 190 1246 l 190 1160 b 210 1140 190 1146 196 1140 z m 596 1140 l 668 1140 b 688 1160 682 1140 688 1146 l 688 1232 b 668 1250 688 1246 682 1250 l 596 1250 b 578 1232 582 1250 578 1246 l 578 1160 b 596 1140 578 1146 582 1140 z m 386 -7 l 489 -7 b 779 274 686 -7 779 92 l 779 699 b 489 979 779 882 686 979 l 386 979 b 96 699 188 979 96 882 l 96 274 b 386 -7 96 92 188 -7 z m 390 89 b 200 276 261 89 200 144 l 200 697 b 390 883 200 828 261 883 l 485 883 b 675 697 614 883 675 828 l 675 276 b 485 89 675 144 614 89 z "},"Ò":{"ha":875,"x_min":0,"x_max":0,"o":"m 389 1225 b 360 1250 381 1242 374 1250 l 271 1250 b 257 1225 256 1250 244 1240 l 383 1065 b 413 1040 394 1050 399 1040 l 468 1040 b 482 1065 482 1040 492 1050 z m 386 -7 l 489 -7 b 779 274 686 -7 779 92 l 779 699 b 489 979 779 882 686 979 l 386 979 b 96 699 188 979 96 882 l 96 274 b 386 -7 96 92 188 -7 z m 390 89 b 200 276 261 89 200 144 l 200 697 b 390 883 200 828 261 883 l 485 883 b 675 697 614 883 675 828 l 675 276 b 485 89 675 144 614 89 z "},"Ő":{"ha":875,"x_min":0,"x_max":0,"o":"m 390 1225 l 297 1065 b 311 1040 288 1050 297 1040 l 367 1040 b 396 1065 381 1040 385 1050 l 522 1225 b 508 1250 535 1240 524 1250 l 419 1250 b 390 1225 406 1250 399 1242 z m 589 1225 l 497 1065 b 511 1040 488 1050 496 1040 l 565 1040 b 596 1065 579 1040 583 1050 l 721 1225 b 707 1250 733 1240 722 1250 l 618 1250 b 589 1225 604 1250 599 1242 z m 386 -7 l 489 -7 b 779 274 686 -7 779 92 l 779 699 b 489 979 779 882 686 979 l 386 979 b 96 699 188 979 96 882 l 96 274 b 386 -7 96 92 188 -7 z m 390 89 b 200 276 261 89 200 144 l 200 697 b 390 883 200 828 261 883 l 485 883 b 675 697 614 883 675 828 l 675 276 b 485 89 675 144 614 89 z "},"Ō":{"ha":875,"x_min":0,"x_max":0,"o":"m 214 1154 l 664 1154 b 685 1175 676 1154 685 1161 l 685 1229 b 664 1250 685 1243 676 1250 l 214 1250 b 193 1229 200 1250 193 1243 l 193 1175 b 214 1154 193 1161 200 1154 z m 386 -7 l 489 -7 b 779 274 686 -7 779 92 l 779 699 b 489 979 779 882 686 979 l 386 979 b 96 699 188 979 96 882 l 96 274 b 386 -7 96 92 188 -7 z m 390 89 b 200 276 261 89 200 144 l 200 697 b 390 883 200 828 261 883 l 485 883 b 675 697 614 883 675 828 l 675 276 b 485 89 675 144 614 89 z "},"Ø":{"ha":875,"x_min":0,"x_max":0,"o":"m 681 931 l 710 999 b 697 1019 715 1013 711 1019 l 631 1019 b 606 999 617 1019 611 1013 l 593 968 b 489 979 563 975 528 979 l 386 979 b 96 699 188 979 96 882 l 96 274 b 196 40 96 165 128 88 l 167 -28 b 179 -49 161 -42 165 -49 l 246 -49 b 272 -28 260 -49 267 -42 l 286 3 b 386 -7 315 -3 349 -7 l 489 -7 b 779 274 686 -7 779 92 l 779 699 b 681 931 779 807 747 885 z m 200 276 l 200 697 b 390 883 200 828 261 883 l 485 883 b 553 876 510 883 533 881 l 239 142 b 200 276 213 172 200 217 z m 675 276 b 485 89 675 144 614 89 l 390 89 b 325 94 365 89 344 90 l 638 829 b 675 697 663 799 675 756 z "},"Õ":{"ha":875,"x_min":0,"x_max":0,"o":"m 538 1103 b 657 1142 579 1103 617 1115 b 668 1167 668 1149 672 1157 l 647 1214 b 625 1219 643 1224 636 1226 b 543 1193 592 1199 571 1193 b 340 1257 464 1193 432 1257 b 221 1218 299 1257 261 1246 b 210 1194 210 1211 206 1204 l 231 1147 b 253 1142 235 1138 242 1133 b 335 1168 285 1161 307 1168 b 538 1103 414 1168 446 1103 z m 386 -7 l 489 -7 b 779 274 686 -7 779 92 l 779 699 b 489 979 779 882 686 979 l 386 979 b 96 699 188 979 96 882 l 96 274 b 386 -7 96 92 188 -7 z m 390 89 b 200 276 261 89 200 144 l 200 697 b 390 883 200 828 261 883 l 485 883 b 675 697 614 883 675 828 l 675 276 b 485 89 675 144 614 89 z "},"Œ":{"ha":1306,"x_min":0,"x_max":0,"o":"m 1232 96 l 779 96 l 779 442 l 1190 442 b 1211 461 1204 442 1211 447 l 1211 517 b 1190 535 1211 531 1204 535 l 779 535 l 779 876 l 1228 876 b 1249 896 1242 876 1249 882 l 1249 954 b 1228 972 1249 968 1242 972 l 696 972 b 675 954 682 972 675 968 l 675 935 b 489 979 629 964 567 979 l 386 979 b 96 699 188 979 96 882 l 96 274 b 386 -7 96 92 188 -7 l 489 -7 b 675 39 567 -7 629 8 l 675 19 b 696 0 675 6 682 0 l 1232 0 b 1251 19 1246 0 1251 6 l 1251 78 b 1232 96 1251 92 1246 96 z m 485 89 l 390 89 b 200 276 261 89 200 144 l 200 697 b 390 883 200 828 261 883 l 485 883 b 675 697 614 883 675 828 l 675 276 b 485 89 675 144 614 89 z "},"P":{"ha":817,"x_min":0,"x_max":0,"o":"m 450 972 l 114 972 b 96 954 100 972 96 968 l 96 19 b 114 0 96 6 100 0 l 181 0 b 200 19 194 0 200 6 l 200 283 l 450 283 b 735 560 649 283 735 375 l 735 697 b 450 972 735 882 649 972 z m 631 561 b 446 379 631 431 574 379 l 200 379 l 200 876 l 446 876 b 631 694 574 876 631 826 z "},"Þ":{"ha":831,"x_min":0,"x_max":0,"o":"m 450 831 l 200 831 l 200 954 b 181 972 200 968 194 972 l 114 972 b 96 954 100 972 96 968 l 96 19 b 114 0 96 6 100 0 l 181 0 b 200 19 194 0 200 6 l 200 143 l 450 143 b 735 418 647 143 735 235 l 735 556 b 450 831 735 739 647 831 z m 631 419 b 446 239 631 289 574 239 l 200 239 l 200 735 l 446 735 b 631 554 574 735 631 685 z "},"Q":{"ha":875,"x_min":0,"x_max":0,"o":"m 489 979 l 386 979 b 96 699 188 979 96 882 l 96 274 b 386 -7 96 92 188 -7 l 386 -108 b 406 -128 386 -122 392 -128 l 472 -128 b 490 -108 486 -128 490 -122 l 490 -7 b 779 274 686 -7 779 92 l 779 699 b 489 979 779 882 686 979 z m 675 276 b 485 89 675 144 614 89 l 390 89 b 200 276 261 89 200 144 l 200 697 b 390 883 200 828 261 883 l 485 883 b 675 697 614 883 675 828 z "},"R":{"ha":811,"x_min":0,"x_max":0,"o":"m 735 560 l 735 697 b 450 972 735 882 649 972 l 114 972 b 96 954 100 972 96 968 l 96 19 b 114 0 96 6 100 0 l 181 0 b 200 19 194 0 200 6 l 200 283 l 450 283 b 501 286 468 283 485 285 l 626 17 b 653 0 632 6 640 0 l 714 0 b 732 26 731 0 739 11 l 600 308 b 735 560 693 347 735 431 z m 631 561 b 446 379 631 431 574 379 l 200 379 l 200 876 l 446 876 b 631 694 574 876 631 826 z "},"Ŕ":{"ha":811,"x_min":0,"x_max":0,"o":"m 358 1040 l 414 1040 b 443 1065 428 1040 432 1050 l 569 1225 b 556 1250 582 1240 571 1250 l 467 1250 b 438 1225 453 1250 446 1242 l 344 1065 b 358 1040 335 1050 344 1040 z m 735 560 l 735 697 b 450 972 735 882 649 972 l 114 972 b 96 954 100 972 96 968 l 96 19 b 114 0 96 6 100 0 l 181 0 b 200 19 194 0 200 6 l 200 283 l 450 283 b 501 286 468 283 485 285 l 626 17 b 653 0 632 6 640 0 l 714 0 b 732 26 731 0 739 11 l 600 308 b 735 560 693 347 735 431 z m 631 561 b 446 379 631 431 574 379 l 200 379 l 200 876 l 446 876 b 631 694 574 876 631 826 z "},"Ř":{"ha":811,"x_min":0,"x_max":0,"o":"m 317 1061 b 351 1043 328 1047 336 1043 l 418 1043 b 457 1061 433 1043 444 1046 l 603 1226 b 593 1250 613 1239 607 1250 l 532 1250 b 494 1228 517 1250 510 1246 l 393 1114 l 379 1114 l 279 1228 b 242 1250 264 1246 257 1250 l 181 1250 b 171 1226 167 1250 161 1239 z m 735 560 l 735 697 b 450 972 735 882 649 972 l 114 972 b 96 954 100 972 96 968 l 96 19 b 114 0 96 6 100 0 l 181 0 b 200 19 194 0 200 6 l 200 283 l 450 283 b 501 286 468 283 485 285 l 626 17 b 653 0 632 6 640 0 l 714 0 b 732 26 731 0 739 11 l 600 308 b 735 560 693 347 735 431 z m 631 561 b 446 379 631 431 574 379 l 200 379 l 200 876 l 446 876 b 631 694 574 876 631 826 z "},"Ŗ":{"ha":811,"x_min":0,"x_max":0,"o":"m 735 560 l 735 697 b 450 972 735 882 649 972 l 114 972 b 96 954 100 972 96 968 l 96 19 b 114 0 96 6 100 0 l 181 0 b 200 19 194 0 200 6 l 200 283 l 450 283 b 501 286 468 283 485 285 l 626 17 b 653 0 632 6 640 0 l 714 0 b 732 26 731 0 739 11 l 600 308 b 735 560 693 347 735 431 z m 631 561 b 446 379 631 431 574 379 l 200 379 l 200 876 l 446 876 b 631 694 574 876 631 826 z m 411 -83 l 357 -83 b 339 -103 343 -83 339 -89 l 339 -308 l 294 -308 b 275 -326 281 -308 275 -312 l 275 -375 b 294 -394 275 -389 281 -394 l 393 -394 b 429 -357 418 -394 429 -382 l 429 -103 b 411 -83 429 -89 425 -83 z "},"S":{"ha":807,"x_min":0,"x_max":0,"o":"m 365 -7 l 453 -7 b 733 258 632 -7 733 74 b 431 533 733 468 600 503 l 371 544 b 189 728 258 565 189 596 b 374 883 189 847 257 883 l 429 883 b 607 728 543 883 606 842 b 631 706 607 713 617 706 l 689 706 b 711 728 703 706 711 713 b 435 979 711 900 610 979 l 371 979 b 85 731 193 979 85 910 b 369 453 85 517 207 482 l 431 442 b 629 258 549 419 629 390 b 444 89 629 133 563 89 l 372 89 b 179 239 253 89 181 129 b 156 261 179 254 169 261 l 97 261 b 75 239 83 261 75 254 b 365 -7 75 67 179 -7 z "},"Ś":{"ha":807,"x_min":0,"x_max":0,"o":"m 457 1225 l 364 1065 b 378 1040 354 1050 364 1040 l 433 1040 b 463 1065 447 1040 451 1050 l 589 1225 b 575 1250 601 1240 590 1250 l 486 1250 b 457 1225 472 1250 465 1242 z m 365 -7 l 453 -7 b 733 258 632 -7 733 74 b 431 533 733 468 600 503 l 371 544 b 189 728 258 565 189 596 b 374 883 189 847 257 883 l 429 883 b 607 728 543 883 606 842 b 631 706 607 713 617 706 l 689 706 b 711 728 703 706 711 713 b 435 979 711 900 610 979 l 371 979 b 85 731 193 979 85 910 b 369 453 85 517 207 482 l 431 442 b 629 258 549 419 629 390 b 444 89 629 133 563 89 l 372 89 b 179 239 253 89 181 129 b 156 261 179 254 169 261 l 97 261 b 75 239 83 261 75 254 b 365 -7 75 67 179 -7 z "},"Š":{"ha":807,"x_min":0,"x_max":0,"o":"m 369 1043 l 436 1043 b 475 1061 451 1043 463 1046 l 621 1226 b 611 1250 631 1239 625 1250 l 550 1250 b 513 1228 535 1250 528 1246 l 411 1114 l 397 1114 l 297 1228 b 260 1250 282 1246 275 1250 l 199 1250 b 189 1226 185 1250 179 1239 l 335 1061 b 369 1043 346 1047 354 1043 z m 365 -7 l 453 -7 b 733 258 632 -7 733 74 b 431 533 733 468 600 503 l 371 544 b 189 728 258 565 189 596 b 374 883 189 847 257 883 l 429 883 b 607 728 543 883 606 842 b 631 706 607 713 617 706 l 689 706 b 711 728 703 706 711 713 b 435 979 711 900 610 979 l 371 979 b 85 731 193 979 85 910 b 369 453 85 517 207 482 l 431 442 b 629 258 549 419 629 390 b 444 89 629 133 563 89 l 372 89 b 179 239 253 89 181 129 b 156 261 179 254 169 261 l 97 261 b 75 239 83 261 75 254 b 365 -7 75 67 179 -7 z "},"Ş":{"ha":807,"x_min":0,"x_max":0,"o":"m 461 -7 b 733 258 635 -4 733 76 b 431 533 733 468 600 503 l 371 544 b 189 728 258 565 189 596 b 374 883 189 847 257 883 l 429 883 b 607 728 543 883 606 842 b 631 706 607 713 617 706 l 689 706 b 711 728 703 706 711 713 b 435 979 711 900 610 979 l 371 979 b 85 731 193 979 85 910 b 369 453 85 517 207 482 l 431 442 b 629 258 549 419 629 390 b 444 89 629 133 563 89 l 372 89 b 179 239 253 89 181 129 b 156 261 179 254 169 261 l 97 261 b 75 239 83 261 75 254 b 365 -7 75 67 179 -7 l 368 -7 b 318 -82 332 -42 318 -60 b 374 -129 318 -114 343 -126 b 514 -174 478 -140 514 -143 b 451 -212 514 -206 496 -212 l 422 -212 b 360 -167 376 -212 361 -199 b 346 -156 360 -160 353 -156 l 290 -156 b 278 -171 281 -156 278 -161 b 399 -279 278 -239 307 -279 l 472 -279 b 597 -174 561 -279 597 -244 b 457 -71 597 -86 540 -81 b 461 -7 421 -67 400 -61 z "},"Ŝ":{"ha":807,"x_min":0,"x_max":0,"o":"m 363 1250 b 328 1232 347 1250 339 1246 l 182 1065 b 192 1043 172 1054 178 1043 l 253 1043 b 290 1065 268 1043 275 1047 l 390 1179 l 404 1179 l 506 1065 b 543 1043 521 1047 528 1043 l 604 1043 b 614 1065 618 1043 624 1054 l 468 1232 b 429 1250 456 1246 444 1250 z m 365 -7 l 453 -7 b 733 258 632 -7 733 74 b 431 533 733 468 600 503 l 371 544 b 189 728 258 565 189 596 b 374 883 189 847 257 883 l 429 883 b 607 728 543 883 606 842 b 631 706 607 713 617 706 l 689 706 b 711 728 703 706 711 713 b 435 979 711 900 610 979 l 371 979 b 85 731 193 979 85 910 b 369 453 85 517 207 482 l 431 442 b 629 258 549 419 629 390 b 444 89 629 133 563 89 l 372 89 b 179 239 253 89 181 129 b 156 261 179 254 169 261 l 97 261 b 75 239 83 261 75 254 b 365 -7 75 67 179 -7 z "},"Ș":{"ha":807,"x_min":0,"x_max":0,"o":"m 365 -7 l 453 -7 b 733 258 632 -7 733 74 b 431 533 733 468 600 503 l 371 544 b 189 728 258 565 189 596 b 374 883 189 847 257 883 l 429 883 b 607 728 543 883 606 842 b 631 706 607 713 617 706 l 689 706 b 711 728 703 706 711 713 b 435 979 711 900 610 979 l 371 979 b 85 731 193 979 85 910 b 369 453 85 517 207 482 l 431 442 b 629 258 549 419 629 390 b 444 89 629 133 563 89 l 372 89 b 179 239 253 89 181 129 b 156 261 179 254 169 261 l 97 261 b 75 239 83 261 75 254 b 365 -7 75 67 179 -7 z m 429 -83 l 375 -83 b 357 -103 361 -83 357 -89 l 357 -308 l 313 -308 b 293 -326 299 -308 293 -312 l 293 -375 b 313 -394 293 -389 299 -394 l 411 -394 b 447 -357 436 -394 447 -382 l 447 -103 b 429 -83 447 -89 443 -83 z "},"T":{"ha":740,"x_min":0,"x_max":0,"o":"m 653 972 l 88 972 b 68 954 74 972 68 968 l 68 896 b 88 876 68 882 74 876 l 319 876 l 319 19 b 338 0 319 6 324 0 l 404 0 b 424 19 418 0 424 6 l 424 876 l 653 876 b 672 896 667 876 672 882 l 672 954 b 653 972 672 968 667 972 z "},"Ŧ":{"ha":719,"x_min":0,"x_max":0,"o":"m 653 972 l 88 972 b 68 954 74 972 68 968 l 68 896 b 88 876 68 882 74 876 l 319 876 l 319 656 l 146 656 b 125 635 132 656 125 649 l 125 581 b 146 560 125 567 132 560 l 319 560 l 319 19 b 338 0 319 6 324 0 l 404 0 b 424 19 418 0 424 6 l 424 560 l 596 560 b 617 581 608 560 617 567 l 617 635 b 596 656 617 649 608 656 l 424 656 l 424 876 l 653 876 b 672 896 667 876 672 882 l 672 954 b 653 972 672 968 667 972 z "},"Ť":{"ha":740,"x_min":0,"x_max":0,"o":"m 301 1061 b 336 1043 313 1047 321 1043 l 403 1043 b 442 1061 418 1043 429 1046 l 588 1226 b 578 1250 597 1239 592 1250 l 517 1250 b 479 1228 501 1250 494 1246 l 378 1114 l 364 1114 l 264 1228 b 226 1250 249 1246 242 1250 l 165 1250 b 156 1226 151 1250 146 1239 z m 653 972 l 88 972 b 68 954 74 972 68 968 l 68 896 b 88 876 68 882 74 876 l 319 876 l 319 19 b 338 0 319 6 324 0 l 404 0 b 424 19 418 0 424 6 l 424 876 l 653 876 b 672 896 667 876 672 882 l 672 954 b 653 972 672 968 667 972 z "},"Ţ":{"ha":740,"x_min":0,"x_max":0,"o":"m 653 972 l 88 972 b 68 954 74 972 68 968 l 68 896 b 88 876 68 882 74 876 l 319 876 l 319 19 b 338 0 319 6 324 0 l 342 0 b 285 -82 300 -39 285 -58 b 340 -129 285 -114 310 -126 b 481 -174 444 -140 481 -143 b 418 -212 481 -206 463 -212 l 389 -212 b 326 -167 343 -212 328 -199 b 313 -156 326 -160 319 -156 l 257 -156 b 244 -171 247 -156 244 -161 b 365 -279 244 -239 274 -279 l 439 -279 b 564 -174 528 -279 564 -244 b 424 -71 564 -86 507 -81 b 436 0 386 -67 365 -61 l 404 0 b 424 19 418 0 424 6 l 424 876 l 653 876 b 672 896 667 876 672 882 l 672 954 b 653 972 672 968 667 972 z "},"Ț":{"ha":740,"x_min":0,"x_max":0,"o":"m 653 972 l 88 972 b 68 954 74 972 68 968 l 68 896 b 88 876 68 882 74 876 l 319 876 l 319 19 b 338 0 319 6 324 0 l 404 0 b 424 19 418 0 424 6 l 424 876 l 653 876 b 672 896 667 876 672 882 l 672 954 b 653 972 672 968 667 972 z m 396 -83 l 342 -83 b 324 -103 328 -83 324 -89 l 324 -308 l 279 -308 b 260 -326 265 -308 260 -312 l 260 -375 b 279 -394 260 -389 265 -394 l 378 -394 b 414 -357 403 -394 414 -382 l 414 -103 b 396 -83 414 -89 410 -83 z "},"U":{"ha":875,"x_min":0,"x_max":0,"o":"m 386 -7 l 489 -7 b 779 274 686 -7 779 92 l 779 954 b 761 972 779 968 775 972 l 694 972 b 675 954 681 972 675 968 l 675 276 b 485 89 675 144 614 89 l 390 89 b 200 276 261 89 200 144 l 200 954 b 181 972 200 968 194 972 l 114 972 b 96 954 100 972 96 968 l 96 274 b 386 -7 96 92 188 -7 z "},"Ú":{"ha":875,"x_min":0,"x_max":0,"o":"m 490 1225 l 397 1065 b 411 1040 388 1050 397 1040 l 467 1040 b 496 1065 481 1040 485 1050 l 622 1225 b 608 1250 635 1240 624 1250 l 519 1250 b 490 1225 506 1250 499 1242 z m 386 -7 l 489 -7 b 779 274 686 -7 779 92 l 779 954 b 761 972 779 968 775 972 l 694 972 b 675 954 681 972 675 968 l 675 276 b 485 89 675 144 614 89 l 390 89 b 200 276 261 89 200 144 l 200 954 b 181 972 200 968 194 972 l 114 972 b 96 954 100 972 96 968 l 96 274 b 386 -7 96 92 188 -7 z "},"Ŭ":{"ha":875,"x_min":0,"x_max":0,"o":"m 407 1057 l 468 1057 b 638 1233 582 1057 638 1115 b 618 1250 638 1246 632 1250 l 571 1250 b 551 1233 557 1250 551 1246 b 460 1132 550 1175 522 1132 l 415 1132 b 324 1233 353 1132 325 1175 b 304 1250 322 1246 318 1250 l 257 1250 b 238 1233 243 1250 238 1246 b 407 1057 238 1115 294 1057 z m 386 -7 l 489 -7 b 779 274 686 -7 779 92 l 779 954 b 761 972 779 968 775 972 l 694 972 b 675 954 681 972 675 968 l 675 276 b 485 89 675 144 614 89 l 390 89 b 200 276 261 89 200 144 l 200 954 b 181 972 200 968 194 972 l 114 972 b 96 954 100 972 96 968 l 96 274 b 386 -7 96 92 188 -7 z "},"Û":{"ha":875,"x_min":0,"x_max":0,"o":"m 397 1250 b 363 1232 382 1250 374 1246 l 217 1065 b 226 1043 207 1054 213 1043 l 288 1043 b 325 1065 303 1043 310 1047 l 425 1179 l 439 1179 l 540 1065 b 578 1043 556 1047 563 1043 l 639 1043 b 649 1065 653 1043 658 1054 l 503 1232 b 464 1250 490 1246 479 1250 z m 386 -7 l 489 -7 b 779 274 686 -7 779 92 l 779 954 b 761 972 779 968 775 972 l 694 972 b 675 954 681 972 675 968 l 675 276 b 485 89 675 144 614 89 l 390 89 b 200 276 261 89 200 144 l 200 954 b 181 972 200 968 194 972 l 114 972 b 96 954 100 972 96 968 l 96 274 b 386 -7 96 92 188 -7 z "},"Ü":{"ha":875,"x_min":0,"x_max":0,"o":"m 210 1140 l 282 1140 b 300 1160 296 1140 300 1146 l 300 1232 b 282 1250 300 1246 296 1250 l 210 1250 b 190 1232 196 1250 190 1246 l 190 1160 b 210 1140 190 1146 196 1140 z m 596 1140 l 668 1140 b 688 1160 682 1140 688 1146 l 688 1232 b 668 1250 688 1246 682 1250 l 596 1250 b 578 1232 582 1250 578 1246 l 578 1160 b 596 1140 578 1146 582 1140 z m 386 -7 l 489 -7 b 779 274 686 -7 779 92 l 779 954 b 761 972 779 968 775 972 l 694 972 b 675 954 681 972 675 968 l 675 276 b 485 89 675 144 614 89 l 390 89 b 200 276 261 89 200 144 l 200 954 b 181 972 200 968 194 972 l 114 972 b 96 954 100 972 96 968 l 96 274 b 386 -7 96 92 188 -7 z "},"Ù":{"ha":875,"x_min":0,"x_max":0,"o":"m 389 1225 b 360 1250 381 1242 374 1250 l 271 1250 b 257 1225 256 1250 244 1240 l 383 1065 b 413 1040 394 1050 399 1040 l 468 1040 b 482 1065 482 1040 492 1050 z m 386 -7 l 489 -7 b 779 274 686 -7 779 92 l 779 954 b 761 972 779 968 775 972 l 694 972 b 675 954 681 972 675 968 l 675 276 b 485 89 675 144 614 89 l 390 89 b 200 276 261 89 200 144 l 200 954 b 181 972 200 968 194 972 l 114 972 b 96 954 100 972 96 968 l 96 274 b 386 -7 96 92 188 -7 z "},"Ű":{"ha":875,"x_min":0,"x_max":0,"o":"m 390 1225 l 297 1065 b 311 1040 288 1050 297 1040 l 367 1040 b 396 1065 381 1040 385 1050 l 522 1225 b 508 1250 535 1240 524 1250 l 419 1250 b 390 1225 406 1250 399 1242 z m 589 1225 l 497 1065 b 511 1040 488 1050 496 1040 l 565 1040 b 596 1065 579 1040 583 1050 l 721 1225 b 707 1250 733 1240 722 1250 l 618 1250 b 589 1225 604 1250 599 1242 z m 386 -7 l 489 -7 b 779 274 686 -7 779 92 l 779 954 b 761 972 779 968 775 972 l 694 972 b 675 954 681 972 675 968 l 675 276 b 485 89 675 144 614 89 l 390 89 b 200 276 261 89 200 144 l 200 954 b 181 972 200 968 194 972 l 114 972 b 96 954 100 972 96 968 l 96 274 b 386 -7 96 92 188 -7 z "},"Ū":{"ha":875,"x_min":0,"x_max":0,"o":"m 214 1154 l 664 1154 b 685 1175 676 1154 685 1161 l 685 1229 b 664 1250 685 1243 676 1250 l 214 1250 b 193 1229 200 1250 193 1243 l 193 1175 b 214 1154 193 1161 200 1154 z m 386 -7 l 489 -7 b 779 274 686 -7 779 92 l 779 954 b 761 972 779 968 775 972 l 694 972 b 675 954 681 972 675 968 l 675 276 b 485 89 675 144 614 89 l 390 89 b 200 276 261 89 200 144 l 200 954 b 181 972 200 968 194 972 l 114 972 b 96 954 100 972 96 968 l 96 274 b 386 -7 96 92 188 -7 z "},"Ų":{"ha":875,"x_min":0,"x_max":0,"o":"m 761 972 l 694 972 b 675 954 681 972 675 968 l 675 276 b 485 89 675 144 614 89 l 390 89 b 200 276 261 89 200 144 l 200 954 b 181 972 200 968 194 972 l 114 972 b 96 954 100 972 96 968 l 96 274 b 386 -7 96 92 188 -7 l 433 -7 l 433 -22 b 389 -62 433 -50 425 -60 l 331 -69 b 219 -172 247 -79 219 -89 b 347 -282 219 -257 247 -282 l 504 -282 b 518 -268 514 -282 518 -276 l 518 -225 b 504 -211 518 -215 513 -211 l 364 -211 b 313 -171 322 -211 313 -201 b 343 -136 313 -142 321 -137 l 463 -121 b 535 -39 515 -115 535 -100 l 535 -6 b 779 274 700 10 779 107 l 779 954 b 761 972 779 968 775 972 z "},"Ů":{"ha":875,"x_min":0,"x_max":0,"o":"m 447 1272 l 429 1272 b 313 1156 361 1272 313 1221 l 313 1140 b 429 1025 313 1075 361 1025 l 447 1025 b 564 1140 515 1025 564 1075 l 564 1156 b 447 1272 564 1221 515 1272 z m 497 1154 l 497 1143 b 444 1090 497 1111 479 1090 l 432 1090 b 379 1143 399 1090 379 1111 l 379 1154 b 432 1207 379 1186 399 1207 l 444 1207 b 497 1154 479 1207 497 1186 z m 386 -7 l 489 -7 b 779 274 686 -7 779 92 l 779 954 b 761 972 779 968 775 972 l 694 972 b 675 954 681 972 675 968 l 675 276 b 485 89 675 144 614 89 l 390 89 b 200 276 261 89 200 144 l 200 954 b 181 972 200 968 194 972 l 114 972 b 96 954 100 972 96 968 l 96 274 b 386 -7 96 92 188 -7 z "},"Ũ":{"ha":875,"x_min":0,"x_max":0,"o":"m 538 1103 b 657 1142 579 1103 617 1115 b 668 1167 668 1149 672 1157 l 647 1214 b 625 1219 643 1224 636 1226 b 543 1193 592 1199 571 1193 b 340 1257 464 1193 432 1257 b 221 1218 299 1257 261 1246 b 210 1194 210 1211 206 1204 l 231 1147 b 253 1142 235 1138 242 1133 b 335 1168 285 1161 307 1168 b 538 1103 414 1168 446 1103 z m 386 -7 l 489 -7 b 779 274 686 -7 779 92 l 779 954 b 761 972 779 968 775 972 l 694 972 b 675 954 681 972 675 968 l 675 276 b 485 89 675 144 614 89 l 390 89 b 200 276 261 89 200 144 l 200 954 b 181 972 200 968 194 972 l 114 972 b 96 954 100 972 96 968 l 96 274 b 386 -7 96 92 188 -7 z "},"V":{"ha":828,"x_min":0,"x_max":0,"o":"m 353 0 l 476 0 b 501 22 489 0 497 8 l 772 949 b 757 972 776 964 769 972 l 690 972 b 665 949 676 972 669 964 l 422 117 l 407 117 l 163 949 b 138 972 158 964 151 972 l 71 972 b 56 949 58 972 51 964 l 326 22 b 353 0 331 8 340 0 z "},"W":{"ha":1271,"x_min":0,"x_max":0,"o":"m 1200 972 l 1133 972 b 1108 949 1119 972 1113 964 l 921 118 l 907 118 l 697 949 b 674 972 693 965 688 972 l 597 972 b 574 949 583 972 578 964 l 364 118 l 350 118 l 163 949 b 138 972 158 964 151 972 l 71 972 b 56 949 58 972 51 964 l 267 22 b 293 0 269 8 281 0 l 418 0 b 443 22 431 0 439 8 l 628 789 l 643 789 l 828 22 b 853 0 832 8 840 0 l 978 0 b 1003 22 990 0 1000 8 l 1215 949 b 1200 972 1219 964 1213 972 z "},"Ẃ":{"ha":1256,"x_min":0,"x_max":0,"o":"m 679 1261 l 586 1101 b 600 1076 578 1086 586 1076 l 656 1076 b 686 1101 669 1076 674 1086 l 811 1261 b 797 1286 824 1276 813 1286 l 708 1286 b 679 1261 694 1286 689 1278 z m 1200 972 l 1133 972 b 1108 949 1119 972 1113 964 l 921 118 l 907 118 l 697 949 b 674 972 693 965 688 972 l 597 972 b 574 949 583 972 578 964 l 364 118 l 350 118 l 163 949 b 138 972 158 964 151 972 l 71 972 b 56 949 58 972 51 964 l 267 22 b 293 0 269 8 281 0 l 418 0 b 443 22 431 0 439 8 l 628 789 l 643 789 l 828 22 b 853 0 832 8 840 0 l 978 0 b 1003 22 990 0 1000 8 l 1215 949 b 1200 972 1219 964 1213 972 z "},"Ŵ":{"ha":1256,"x_min":0,"x_max":0,"o":"m 574 1286 b 538 1268 558 1286 550 1282 l 393 1101 b 401 1079 382 1090 388 1079 l 463 1079 b 500 1101 478 1079 486 1083 l 601 1215 l 615 1215 l 715 1101 b 754 1079 731 1083 739 1079 l 815 1079 b 824 1101 829 1079 833 1090 l 679 1268 b 640 1286 667 1282 656 1286 z m 1200 972 l 1133 972 b 1108 949 1119 972 1113 964 l 921 118 l 907 118 l 697 949 b 674 972 693 965 688 972 l 597 972 b 574 949 583 972 578 964 l 364 118 l 350 118 l 163 949 b 138 972 158 964 151 972 l 71 972 b 56 949 58 972 51 964 l 267 22 b 293 0 269 8 281 0 l 418 0 b 443 22 431 0 439 8 l 628 789 l 643 789 l 828 22 b 853 0 832 8 840 0 l 978 0 b 1003 22 990 0 1000 8 l 1215 949 b 1200 972 1219 964 1213 972 z "},"Ẅ":{"ha":1256,"x_min":0,"x_max":0,"o":"m 415 1176 l 488 1176 b 507 1196 501 1176 507 1182 l 507 1268 b 488 1286 507 1282 501 1286 l 415 1286 b 397 1268 401 1286 397 1282 l 397 1196 b 415 1176 397 1182 401 1176 z m 803 1176 l 875 1176 b 893 1196 889 1176 893 1182 l 893 1268 b 875 1286 893 1282 889 1286 l 803 1286 b 783 1268 789 1286 783 1282 l 783 1196 b 803 1176 783 1182 789 1176 z m 1200 972 l 1133 972 b 1108 949 1119 972 1113 964 l 921 118 l 907 118 l 697 949 b 674 972 693 965 688 972 l 597 972 b 574 949 583 972 578 964 l 364 118 l 350 118 l 163 949 b 138 972 158 964 151 972 l 71 972 b 56 949 58 972 51 964 l 267 22 b 293 0 269 8 281 0 l 418 0 b 443 22 431 0 439 8 l 628 789 l 643 789 l 828 22 b 853 0 832 8 840 0 l 978 0 b 1003 22 990 0 1000 8 l 1215 949 b 1200 972 1219 964 1213 972 z "},"Ẁ":{"ha":1256,"x_min":0,"x_max":0,"o":"m 579 1261 b 550 1286 569 1278 564 1286 l 461 1286 b 447 1261 446 1286 435 1276 l 572 1101 b 603 1076 585 1086 589 1076 l 657 1076 b 671 1101 672 1076 681 1086 z m 1200 972 l 1133 972 b 1108 949 1119 972 1113 964 l 921 118 l 907 118 l 697 949 b 674 972 693 965 688 972 l 597 972 b 574 949 583 972 578 964 l 364 118 l 350 118 l 163 949 b 138 972 158 964 151 972 l 71 972 b 56 949 58 972 51 964 l 267 22 b 293 0 269 8 281 0 l 418 0 b 443 22 431 0 439 8 l 628 789 l 643 789 l 828 22 b 853 0 832 8 840 0 l 978 0 b 1003 22 990 0 1000 8 l 1215 949 b 1200 972 1219 964 1213 972 z "},"X":{"ha":786,"x_min":0,"x_max":0,"o":"m 82 0 l 157 0 b 185 19 172 0 176 6 l 389 388 l 399 388 l 603 19 b 629 0 611 6 615 0 l 704 0 b 714 21 718 0 722 7 l 451 486 l 713 951 b 703 972 721 967 717 972 l 628 972 b 601 953 614 972 608 967 l 399 585 l 389 585 l 186 953 b 160 972 178 967 174 972 l 83 972 b 74 951 71 972 65 967 l 336 486 l 72 21 b 82 0 64 7 69 0 z "},"Y":{"ha":789,"x_min":0,"x_max":0,"o":"m 721 972 l 646 972 b 619 953 632 972 626 967 l 399 494 l 390 494 l 169 953 b 143 972 163 967 157 972 l 68 972 b 57 950 54 972 50 965 l 342 369 l 342 19 b 361 0 342 6 347 0 l 428 0 b 446 19 442 0 446 6 l 446 367 l 732 950 b 721 972 739 965 733 972 z "},"Ý":{"ha":789,"x_min":0,"x_max":0,"o":"m 367 1040 l 422 1040 b 451 1065 436 1040 440 1050 l 578 1225 b 564 1250 590 1240 579 1250 l 475 1250 b 446 1225 461 1250 454 1242 l 353 1065 b 367 1040 343 1050 353 1040 z m 721 972 l 646 972 b 619 953 632 972 626 967 l 399 494 l 390 494 l 169 953 b 143 972 163 967 157 972 l 68 972 b 57 950 54 972 50 965 l 342 369 l 342 19 b 361 0 342 6 347 0 l 428 0 b 446 19 442 0 446 6 l 446 367 l 732 950 b 721 972 739 965 733 972 z "},"Ŷ":{"ha":789,"x_min":0,"x_max":0,"o":"m 182 1043 l 243 1043 b 281 1065 258 1043 265 1047 l 381 1179 l 394 1179 l 496 1065 b 533 1043 511 1047 518 1043 l 594 1043 b 604 1065 608 1043 614 1054 l 458 1232 b 419 1250 446 1246 435 1250 l 353 1250 b 318 1232 338 1250 329 1246 l 172 1065 b 182 1043 163 1054 168 1043 z m 721 972 l 646 972 b 619 953 632 972 626 967 l 399 494 l 390 494 l 169 953 b 143 972 163 967 157 972 l 68 972 b 57 950 54 972 50 965 l 342 369 l 342 19 b 361 0 342 6 347 0 l 428 0 b 446 19 442 0 446 6 l 446 367 l 732 950 b 721 972 739 965 733 972 z "},"Ÿ":{"ha":789,"x_min":0,"x_max":0,"o":"m 165 1140 l 238 1140 b 256 1160 251 1140 256 1146 l 256 1232 b 238 1250 256 1246 251 1250 l 165 1250 b 146 1232 151 1250 146 1246 l 146 1160 b 165 1140 146 1146 151 1140 z m 551 1140 l 624 1140 b 643 1160 638 1140 643 1146 l 643 1232 b 624 1250 643 1246 638 1250 l 551 1250 b 533 1232 538 1250 533 1246 l 533 1160 b 551 1140 533 1146 538 1140 z m 721 972 l 646 972 b 619 953 632 972 626 967 l 399 494 l 390 494 l 169 953 b 143 972 163 967 157 972 l 68 972 b 57 950 54 972 50 965 l 342 369 l 342 19 b 361 0 342 6 347 0 l 428 0 b 446 19 442 0 446 6 l 446 367 l 732 950 b 721 972 739 965 733 972 z "},"Ỳ":{"ha":789,"x_min":0,"x_max":0,"o":"m 340 1065 b 369 1040 351 1050 356 1040 l 425 1040 b 439 1065 439 1040 449 1050 l 346 1225 b 317 1250 338 1242 331 1250 l 228 1250 b 214 1225 213 1250 201 1240 z m 721 972 l 646 972 b 619 953 632 972 626 967 l 399 494 l 390 494 l 169 953 b 143 972 163 967 157 972 l 68 972 b 57 950 54 972 50 965 l 342 369 l 342 19 b 361 0 342 6 347 0 l 428 0 b 446 19 442 0 446 6 l 446 367 l 732 950 b 721 972 739 965 733 972 z "},"Z":{"ha":726,"x_min":0,"x_max":0,"o":"m 88 0 l 638 0 b 657 19 651 0 657 6 l 657 78 b 638 96 657 92 651 96 l 179 96 l 179 107 l 646 843 b 658 885 657 861 658 874 l 658 954 b 639 972 658 968 653 972 l 97 972 b 78 954 83 972 78 968 l 78 896 b 97 876 78 882 83 876 l 547 876 l 547 867 l 81 129 b 68 88 69 111 68 100 l 68 19 b 88 0 68 6 74 0 z "},"Ź":{"ha":726,"x_min":0,"x_max":0,"o":"m 417 1225 l 324 1065 b 338 1040 314 1050 324 1040 l 393 1040 b 422 1065 407 1040 411 1050 l 549 1225 b 535 1250 561 1240 550 1250 l 446 1250 b 417 1225 432 1250 425 1242 z m 88 0 l 638 0 b 657 19 651 0 657 6 l 657 78 b 638 96 657 92 651 96 l 179 96 l 179 107 l 646 843 b 658 885 657 861 658 874 l 658 954 b 639 972 658 968 653 972 l 97 972 b 78 954 83 972 78 968 l 78 896 b 97 876 78 882 83 876 l 547 876 l 547 867 l 81 129 b 68 88 69 111 68 100 l 68 19 b 88 0 68 6 74 0 z "},"Ž":{"ha":726,"x_min":0,"x_max":0,"o":"m 329 1043 l 396 1043 b 435 1061 411 1043 422 1046 l 581 1226 b 571 1250 590 1239 585 1250 l 510 1250 b 472 1228 494 1250 488 1246 l 371 1114 l 357 1114 l 257 1228 b 219 1250 242 1246 235 1250 l 158 1250 b 149 1226 144 1250 139 1239 l 294 1061 b 329 1043 306 1047 314 1043 z m 88 0 l 638 0 b 657 19 651 0 657 6 l 657 78 b 638 96 657 92 651 96 l 179 96 l 179 107 l 646 843 b 658 885 657 861 658 874 l 658 954 b 639 972 658 968 653 972 l 97 972 b 78 954 83 972 78 968 l 78 896 b 97 876 78 882 83 876 l 547 876 l 547 867 l 81 129 b 68 88 69 111 68 100 l 68 19 b 88 0 68 6 74 0 z "},"Ż":{"ha":726,"x_min":0,"x_max":0,"o":"m 328 1140 l 400 1140 b 418 1160 414 1140 418 1146 l 418 1232 b 400 1250 418 1246 414 1250 l 328 1250 b 308 1232 314 1250 308 1246 l 308 1160 b 328 1140 308 1146 314 1140 z m 88 0 l 638 0 b 657 19 651 0 657 6 l 657 78 b 638 96 657 92 651 96 l 179 96 l 179 107 l 646 843 b 658 885 657 861 658 874 l 658 954 b 639 972 658 968 653 972 l 97 972 b 78 954 83 972 78 968 l 78 896 b 97 876 78 882 83 876 l 547 876 l 547 867 l 81 129 b 68 88 69 111 68 100 l 68 19 b 88 0 68 6 74 0 z "},"a":{"ha":717,"x_min":0,"x_max":0,"o":"m 385 700 l 357 700 b 144 668 264 700 188 685 b 135 649 136 665 132 658 l 144 596 b 164 585 146 586 154 582 b 347 608 210 600 276 608 b 528 464 492 608 528 557 l 528 408 l 282 408 b 68 233 146 408 68 358 l 68 197 b 281 -7 68 68 132 -7 l 289 -7 b 514 104 393 -7 465 42 l 528 104 l 528 18 b 546 0 528 6 532 0 l 611 0 b 629 18 624 0 629 6 l 629 471 b 385 700 629 618 557 700 z m 343 85 l 294 85 b 168 203 213 85 168 118 l 168 226 b 293 329 168 307 214 329 l 528 329 l 528 243 b 343 85 528 164 446 85 z "},"á":{"ha":717,"x_min":0,"x_max":0,"o":"m 346 763 l 401 763 b 431 788 415 763 419 772 l 557 947 b 543 972 569 963 558 972 l 454 972 b 425 947 440 972 433 964 l 332 788 b 346 763 322 772 332 763 z m 385 700 l 357 700 b 144 668 264 700 188 685 b 135 649 136 665 132 658 l 144 596 b 164 585 146 586 154 582 b 347 608 210 600 276 608 b 528 464 492 608 528 557 l 528 408 l 282 408 b 68 233 146 408 68 358 l 68 197 b 281 -7 68 68 132 -7 l 289 -7 b 514 104 393 -7 465 42 l 528 104 l 528 18 b 546 0 528 6 532 0 l 611 0 b 629 18 624 0 629 6 l 629 471 b 385 700 629 618 557 700 z m 343 85 l 294 85 b 168 203 213 85 168 118 l 168 226 b 293 329 168 307 214 329 l 528 329 l 528 243 b 343 85 528 164 446 85 z "},"ă":{"ha":717,"x_min":0,"x_max":0,"o":"m 342 779 l 403 779 b 572 956 517 779 572 838 b 553 972 572 968 567 972 l 506 972 b 486 956 492 972 486 968 b 394 854 485 897 457 854 l 350 854 b 258 956 288 854 260 897 b 239 972 257 968 253 972 l 192 972 b 172 956 178 972 172 968 b 342 779 172 838 229 779 z m 385 700 l 357 700 b 144 668 264 700 188 685 b 135 649 136 665 132 658 l 144 596 b 164 585 146 586 154 582 b 347 608 210 600 276 608 b 528 464 492 608 528 557 l 528 408 l 282 408 b 68 233 146 408 68 358 l 68 197 b 281 -7 68 68 132 -7 l 289 -7 b 514 104 393 -7 465 42 l 528 104 l 528 18 b 546 0 528 6 532 0 l 611 0 b 629 18 624 0 629 6 l 629 471 b 385 700 629 618 557 700 z m 343 85 l 294 85 b 168 203 213 85 168 118 l 168 226 b 293 329 168 307 214 329 l 528 329 l 528 243 b 343 85 528 164 446 85 z "},"ǎ":{"ha":717,"x_min":0,"x_max":0,"o":"m 303 783 b 338 765 314 769 322 765 l 404 765 b 443 783 419 765 431 768 l 589 949 b 579 972 599 961 593 972 l 518 972 b 481 950 503 972 496 968 l 379 836 l 365 836 l 265 950 b 228 972 250 968 243 972 l 167 972 b 157 949 153 972 147 961 z m 385 700 l 357 700 b 144 668 264 700 188 685 b 135 649 136 665 132 658 l 144 596 b 164 585 146 586 154 582 b 347 608 210 600 276 608 b 528 464 492 608 528 557 l 528 408 l 282 408 b 68 233 146 408 68 358 l 68 197 b 281 -7 68 68 132 -7 l 289 -7 b 514 104 393 -7 465 42 l 528 104 l 528 18 b 546 0 528 6 532 0 l 611 0 b 629 18 624 0 629 6 l 629 471 b 385 700 629 618 557 700 z m 343 85 l 294 85 b 168 203 213 85 168 118 l 168 226 b 293 329 168 307 214 329 l 528 329 l 528 243 b 343 85 528 164 446 85 z "},"â":{"ha":717,"x_min":0,"x_max":0,"o":"m 161 765 l 222 765 b 260 788 238 765 244 769 l 360 901 l 374 901 l 475 788 b 513 765 490 769 497 765 l 574 765 b 583 788 588 765 593 776 l 438 954 b 399 972 425 968 414 972 l 332 972 b 297 954 317 972 308 968 l 151 788 b 161 765 142 776 147 765 z m 385 700 l 357 700 b 144 668 264 700 188 685 b 135 649 136 665 132 658 l 144 596 b 164 585 146 586 154 582 b 347 608 210 600 276 608 b 528 464 492 608 528 557 l 528 408 l 282 408 b 68 233 146 408 68 358 l 68 197 b 281 -7 68 68 132 -7 l 289 -7 b 514 104 393 -7 465 42 l 528 104 l 528 18 b 546 0 528 6 532 0 l 611 0 b 629 18 624 0 629 6 l 629 471 b 385 700 629 618 557 700 z m 343 85 l 294 85 b 168 203 213 85 168 118 l 168 226 b 293 329 168 307 214 329 l 528 329 l 528 243 b 343 85 528 164 446 85 z "},"ä":{"ha":717,"x_min":0,"x_max":0,"o":"m 144 863 l 217 863 b 235 882 231 863 235 868 l 235 954 b 217 972 235 968 231 972 l 144 972 b 125 954 131 972 125 968 l 125 882 b 144 863 125 868 131 863 z m 531 863 l 603 863 b 622 882 617 863 622 868 l 622 954 b 603 972 622 968 617 972 l 531 972 b 513 954 517 972 513 968 l 513 882 b 531 863 513 868 517 863 z m 385 700 l 357 700 b 144 668 264 700 188 685 b 135 649 136 665 132 658 l 144 596 b 164 585 146 586 154 582 b 347 608 210 600 276 608 b 528 464 492 608 528 557 l 528 408 l 282 408 b 68 233 146 408 68 358 l 68 197 b 281 -7 68 68 132 -7 l 289 -7 b 514 104 393 -7 465 42 l 528 104 l 528 18 b 546 0 528 6 532 0 l 611 0 b 629 18 624 0 629 6 l 629 471 b 385 700 629 618 557 700 z m 343 85 l 294 85 b 168 203 213 85 168 118 l 168 226 b 293 329 168 307 214 329 l 528 329 l 528 243 b 343 85 528 164 446 85 z "},"à":{"ha":717,"x_min":0,"x_max":0,"o":"m 318 788 b 347 763 329 772 333 763 l 403 763 b 417 788 417 763 426 772 l 324 947 b 294 972 315 964 308 972 l 206 972 b 192 947 190 972 179 963 z m 385 700 l 357 700 b 144 668 264 700 188 685 b 135 649 136 665 132 658 l 144 596 b 164 585 146 586 154 582 b 347 608 210 600 276 608 b 528 464 492 608 528 557 l 528 408 l 282 408 b 68 233 146 408 68 358 l 68 197 b 281 -7 68 68 132 -7 l 289 -7 b 514 104 393 -7 465 42 l 528 104 l 528 18 b 546 0 528 6 532 0 l 611 0 b 629 18 624 0 629 6 l 629 471 b 385 700 629 618 557 700 z m 343 85 l 294 85 b 168 203 213 85 168 118 l 168 226 b 293 329 168 307 214 329 l 528 329 l 528 243 b 343 85 528 164 446 85 z "},"ā":{"ha":717,"x_min":0,"x_max":0,"o":"m 149 876 l 599 876 b 619 897 611 876 619 883 l 619 951 b 599 972 619 965 611 972 l 149 972 b 128 951 135 972 128 965 l 128 897 b 149 876 128 883 135 876 z m 385 700 l 357 700 b 144 668 264 700 188 685 b 135 649 136 665 132 658 l 144 596 b 164 585 146 586 154 582 b 347 608 210 600 276 608 b 528 464 492 608 528 557 l 528 408 l 282 408 b 68 233 146 408 68 358 l 68 197 b 281 -7 68 68 132 -7 l 289 -7 b 514 104 393 -7 465 42 l 528 104 l 528 18 b 546 0 528 6 532 0 l 611 0 b 629 18 624 0 629 6 l 629 471 b 385 700 629 618 557 700 z m 343 85 l 294 85 b 168 203 213 85 168 118 l 168 226 b 293 329 168 307 214 329 l 528 329 l 528 243 b 343 85 528 164 446 85 z "},"ą":{"ha":717,"x_min":0,"x_max":0,"o":"m 385 700 l 357 700 b 144 668 264 700 188 685 b 135 649 136 665 132 658 l 144 596 b 164 585 146 586 154 582 b 347 608 210 600 276 608 b 528 464 492 608 528 557 l 528 408 l 282 408 b 68 233 146 408 68 358 l 68 197 b 281 -7 68 68 132 -7 l 289 -7 b 514 104 393 -7 465 42 l 528 104 l 528 -22 b 483 -62 528 -50 519 -60 l 425 -69 b 314 -172 342 -79 314 -89 b 442 -282 314 -257 342 -282 l 599 -282 b 613 -268 608 -282 613 -276 l 613 -225 b 599 -211 613 -215 607 -211 l 458 -211 b 407 -171 417 -211 407 -201 b 438 -136 407 -142 415 -137 l 557 -121 b 629 -39 610 -115 629 -100 l 629 471 b 385 700 629 618 557 700 z m 343 85 l 294 85 b 168 203 213 85 168 118 l 168 226 b 293 329 168 307 214 329 l 528 329 l 528 243 b 343 85 528 164 446 85 z "},"å":{"ha":717,"x_min":0,"x_max":0,"o":"m 364 747 l 382 747 b 499 863 450 747 499 797 l 499 878 b 382 994 499 943 450 994 l 364 994 b 247 878 296 994 247 943 l 247 863 b 364 747 247 797 296 747 z m 314 876 b 367 929 314 908 333 929 l 379 929 b 432 876 414 929 432 908 l 432 865 b 379 813 432 833 414 813 l 367 813 b 314 865 333 813 314 833 z m 385 700 l 357 700 b 144 668 264 700 188 685 b 135 649 136 665 132 658 l 144 596 b 164 585 146 586 154 582 b 347 608 210 600 276 608 b 528 464 492 608 528 557 l 528 408 l 282 408 b 68 233 146 408 68 358 l 68 197 b 281 -7 68 68 132 -7 l 289 -7 b 514 104 393 -7 465 42 l 528 104 l 528 18 b 546 0 528 6 532 0 l 611 0 b 629 18 624 0 629 6 l 629 471 b 385 700 629 618 557 700 z m 343 85 l 294 85 b 168 203 213 85 168 118 l 168 226 b 293 329 168 307 214 329 l 528 329 l 528 243 b 343 85 528 164 446 85 z "},"ã":{"ha":717,"x_min":0,"x_max":0,"o":"m 165 869 b 188 864 169 860 176 856 b 269 890 219 883 242 890 b 472 825 349 890 381 825 b 592 864 514 825 551 838 b 603 889 603 871 607 879 l 582 936 b 560 942 578 946 571 949 b 478 915 526 921 506 915 b 275 979 399 915 367 979 b 156 940 233 979 196 968 b 144 917 144 933 140 926 z m 385 700 l 357 700 b 144 668 264 700 188 685 b 135 649 136 665 132 658 l 144 596 b 164 585 146 586 154 582 b 347 608 210 600 276 608 b 528 464 492 608 528 557 l 528 408 l 282 408 b 68 233 146 408 68 358 l 68 197 b 281 -7 68 68 132 -7 l 289 -7 b 514 104 393 -7 465 42 l 528 104 l 528 18 b 546 0 528 6 532 0 l 611 0 b 629 18 624 0 629 6 l 629 471 b 385 700 629 618 557 700 z m 343 85 l 294 85 b 168 203 213 85 168 118 l 168 226 b 293 329 168 307 214 329 l 528 329 l 528 243 b 343 85 528 164 446 85 z "},"æ":{"ha":1158,"x_min":0,"x_max":0,"o":"m 838 700 l 774 700 b 583 629 689 700 624 675 b 385 700 544 675 479 700 l 357 700 b 144 668 264 700 188 685 b 135 649 136 665 132 658 l 144 596 b 164 585 146 586 154 582 b 347 608 210 600 276 608 b 528 461 492 608 528 556 l 528 385 l 282 385 b 68 219 146 385 68 333 l 68 185 b 281 -7 68 57 132 -7 l 289 -7 b 547 122 400 -7 500 38 b 801 -7 582 40 664 -7 l 817 -7 b 1054 72 929 -7 1014 31 b 1053 92 1060 76 1060 83 l 1032 124 b 1007 128 1025 132 1019 135 b 817 82 968 103 914 82 l 803 82 b 629 232 681 82 629 143 l 629 306 l 1039 306 b 1083 349 1067 306 1083 322 l 1083 465 b 838 700 1083 614 999 700 z m 982 383 l 629 383 l 629 461 b 775 607 629 554 679 607 l 836 607 b 982 464 933 607 982 556 z m 528 243 b 343 85 528 164 446 85 l 294 85 b 168 190 213 85 168 107 l 168 214 b 293 306 168 282 214 306 l 528 306 z "},"b":{"ha":725,"x_min":0,"x_max":0,"o":"m 414 700 l 372 700 b 201 619 290 700 233 669 l 190 619 l 190 954 b 172 972 190 967 185 972 l 107 972 b 89 954 93 972 89 967 l 89 18 b 107 0 89 6 93 0 l 172 0 b 190 18 185 0 190 6 l 190 75 l 201 75 b 372 -7 233 25 290 -7 l 414 -7 b 650 228 568 -7 650 74 l 650 465 b 414 700 650 619 568 700 z m 550 236 b 400 86 550 139 499 86 l 338 86 b 190 233 242 86 190 140 l 190 460 b 338 607 190 553 242 607 l 400 607 b 550 458 499 607 550 554 z "},"c":{"ha":692,"x_min":0,"x_max":0,"o":"m 349 -7 l 361 -7 b 614 115 499 -7 575 35 b 603 143 619 128 618 136 l 564 161 b 532 153 546 169 539 164 b 361 83 501 104 465 83 l 353 83 b 176 236 229 83 176 140 l 176 461 b 322 607 176 554 226 607 l 385 607 b 526 486 475 607 526 561 l 526 481 b 544 463 526 468 531 463 l 607 463 b 625 481 619 463 625 468 l 625 488 b 386 700 625 619 536 700 l 321 700 b 75 463 163 700 75 613 l 75 231 b 349 -7 75 82 161 -7 z "},"ć":{"ha":692,"x_min":0,"x_max":0,"o":"m 406 947 l 313 788 b 326 763 303 772 313 763 l 382 763 b 411 788 396 763 400 772 l 538 947 b 524 972 550 963 539 972 l 435 972 b 406 947 421 972 414 964 z m 349 -7 l 361 -7 b 614 115 499 -7 575 35 b 603 143 619 128 618 136 l 564 161 b 532 153 546 169 539 164 b 361 83 501 104 465 83 l 353 83 b 176 236 229 83 176 140 l 176 461 b 322 607 176 554 226 607 l 385 607 b 526 486 475 607 526 561 l 526 481 b 544 463 526 468 531 463 l 607 463 b 625 481 619 463 625 468 l 625 488 b 386 700 625 619 536 700 l 321 700 b 75 463 163 700 75 613 l 75 231 b 349 -7 75 82 161 -7 z "},"č":{"ha":692,"x_min":0,"x_max":0,"o":"m 318 765 l 385 765 b 424 783 400 765 411 768 l 569 949 b 560 972 579 961 574 972 l 499 972 b 461 950 483 972 476 968 l 360 836 l 346 836 l 246 950 b 208 972 231 968 224 972 l 147 972 b 138 949 133 972 128 961 l 283 783 b 318 765 294 769 303 765 z m 349 -7 l 361 -7 b 614 115 499 -7 575 35 b 603 143 619 128 618 136 l 564 161 b 532 153 546 169 539 164 b 361 83 501 104 465 83 l 353 83 b 176 236 229 83 176 140 l 176 461 b 322 607 176 554 226 607 l 385 607 b 526 486 475 607 526 561 l 526 481 b 544 463 526 468 531 463 l 607 463 b 625 481 619 463 625 468 l 625 488 b 386 700 625 619 536 700 l 321 700 b 75 463 163 700 75 613 l 75 231 b 349 -7 75 82 161 -7 z "},"ç":{"ha":692,"x_min":0,"x_max":0,"o":"m 386 700 l 321 700 b 75 463 163 700 75 613 l 75 231 b 317 -6 75 90 151 4 b 267 -82 281 -42 267 -60 b 322 -129 267 -114 292 -126 b 463 -174 426 -140 463 -143 b 400 -212 463 -206 444 -212 l 371 -212 b 308 -167 325 -212 310 -199 b 294 -156 308 -160 301 -156 l 239 -156 b 226 -171 229 -156 226 -161 b 347 -279 226 -239 256 -279 l 421 -279 b 546 -174 510 -279 546 -244 b 406 -71 546 -86 489 -81 b 413 -4 369 -67 349 -61 b 614 115 518 4 581 46 b 603 143 619 128 618 136 l 564 161 b 532 153 546 169 539 164 b 361 83 501 104 465 83 l 353 83 b 176 236 229 83 176 140 l 176 461 b 322 607 176 554 226 607 l 385 607 b 526 486 475 607 526 561 l 526 481 b 544 463 526 468 531 463 l 607 463 b 625 481 619 463 625 468 l 625 488 b 386 700 625 619 536 700 z "},"ĉ":{"ha":692,"x_min":0,"x_max":0,"o":"m 313 972 b 278 954 297 972 289 968 l 132 788 b 142 765 122 776 128 765 l 203 765 b 240 788 218 765 225 769 l 340 901 l 354 901 l 456 788 b 493 765 471 769 478 765 l 554 765 b 564 788 568 765 574 776 l 418 954 b 379 972 406 968 394 972 z m 349 -7 l 361 -7 b 614 115 499 -7 575 35 b 603 143 619 128 618 136 l 564 161 b 532 153 546 169 539 164 b 361 83 501 104 465 83 l 353 83 b 176 236 229 83 176 140 l 176 461 b 322 607 176 554 226 607 l 385 607 b 526 486 475 607 526 561 l 526 481 b 544 463 526 468 531 463 l 607 463 b 625 481 619 463 625 468 l 625 488 b 386 700 625 619 536 700 l 321 700 b 75 463 163 700 75 613 l 75 231 b 349 -7 75 82 161 -7 z "},"ċ":{"ha":692,"x_min":0,"x_max":0,"o":"m 317 863 l 389 863 b 407 882 403 863 407 868 l 407 954 b 389 972 407 968 403 972 l 317 972 b 297 954 303 972 297 968 l 297 882 b 317 863 297 868 303 863 z m 349 -7 l 361 -7 b 614 115 499 -7 575 35 b 603 143 619 128 618 136 l 564 161 b 532 153 546 169 539 164 b 361 83 501 104 465 83 l 353 83 b 176 236 229 83 176 140 l 176 461 b 322 607 176 554 226 607 l 385 607 b 526 486 475 607 526 561 l 526 481 b 544 463 526 468 531 463 l 607 463 b 625 481 619 463 625 468 l 625 488 b 386 700 625 619 536 700 l 321 700 b 75 463 163 700 75 613 l 75 231 b 349 -7 75 82 161 -7 z "},"d":{"ha":725,"x_min":0,"x_max":0,"o":"m 619 972 l 553 972 b 536 954 540 972 536 967 l 536 619 l 524 619 b 353 700 492 669 435 700 l 311 700 b 75 465 157 700 75 619 l 75 228 b 311 -7 75 74 157 -7 l 353 -7 b 524 75 435 -7 492 25 l 536 75 l 536 18 b 553 0 536 6 540 0 l 619 0 b 636 18 632 0 636 6 l 636 954 b 619 972 636 967 632 972 z m 388 86 l 325 86 b 176 236 226 86 176 139 l 176 458 b 325 607 176 554 226 607 l 388 607 b 536 460 483 607 536 553 l 536 233 b 388 86 536 140 483 86 z "},"ð":{"ha":717,"x_min":0,"x_max":0,"o":"m 722 929 l 636 929 l 636 954 b 619 972 636 967 632 972 l 553 972 b 536 954 540 972 536 967 l 536 879 l 356 763 l 464 763 l 536 810 l 536 619 l 524 619 b 353 700 492 669 435 700 l 311 700 b 75 465 157 700 75 619 l 75 228 b 311 -7 75 74 157 -7 l 353 -7 b 524 75 435 -7 492 25 l 536 75 l 536 18 b 553 0 536 6 540 0 l 619 0 b 636 18 632 0 636 6 l 636 874 z m 388 86 l 325 86 b 176 236 226 86 176 139 l 176 458 b 325 607 176 554 226 607 l 388 607 b 536 460 483 607 536 553 l 536 233 b 388 86 536 140 483 86 z "},"ď":{"ha":769,"x_min":0,"x_max":0,"o":"m 619 972 l 553 972 b 536 954 540 972 536 967 l 536 619 l 524 619 b 353 700 492 669 435 700 l 311 700 b 75 465 157 700 75 619 l 75 228 b 311 -7 75 74 157 -7 l 353 -7 b 524 75 435 -7 492 25 l 536 75 l 536 18 b 553 0 536 6 540 0 l 619 0 b 636 18 632 0 636 6 l 636 954 b 619 972 636 967 632 972 z m 813 972 l 760 972 b 740 954 746 972 740 968 l 740 749 l 696 749 b 678 729 682 749 678 743 l 678 681 b 696 663 678 667 682 663 l 794 663 b 832 699 821 663 832 674 l 832 954 b 813 972 832 968 826 972 z m 388 86 l 325 86 b 176 236 226 86 176 139 l 176 458 b 325 607 176 554 226 607 l 388 607 b 536 460 483 607 536 553 l 536 233 b 388 86 536 140 483 86 z "},"đ":{"ha":706,"x_min":0,"x_max":0,"o":"m 711 865 l 636 865 l 636 954 b 619 972 636 967 632 972 l 553 972 b 536 954 540 972 536 967 l 536 865 l 261 865 b 240 844 247 865 240 858 l 240 790 b 261 769 240 776 247 769 l 536 769 l 536 619 l 524 619 b 353 700 492 669 435 700 l 311 700 b 75 465 157 700 75 619 l 75 228 b 311 -7 75 74 157 -7 l 353 -7 b 524 75 435 -7 492 25 l 536 75 l 536 18 b 553 0 536 6 540 0 l 619 0 b 636 18 632 0 636 6 l 636 769 l 711 769 b 732 790 724 769 732 776 l 732 844 b 711 865 732 858 724 865 z m 388 86 l 325 86 b 176 236 226 86 176 139 l 176 458 b 325 607 176 554 226 607 l 388 607 b 536 460 483 607 536 553 l 536 233 b 388 86 536 140 483 86 z "},"e":{"ha":706,"x_min":0,"x_max":0,"o":"m 364 -7 b 601 72 476 -7 561 31 b 600 92 607 76 607 83 l 579 124 b 554 128 572 132 567 135 b 364 82 515 103 461 82 l 350 82 b 176 232 228 82 176 143 l 176 306 l 586 306 b 631 349 614 306 631 322 l 631 465 b 385 700 631 614 546 700 l 321 700 b 75 463 163 700 75 613 l 75 231 b 349 -7 75 85 158 -7 z m 176 383 l 176 461 b 322 607 176 554 226 607 l 383 607 b 529 464 481 607 529 556 l 529 383 z "},"é":{"ha":706,"x_min":0,"x_max":0,"o":"m 407 947 l 314 788 b 328 763 304 772 314 763 l 383 763 b 413 788 397 763 401 772 l 539 947 b 525 972 551 963 540 972 l 436 972 b 407 947 422 972 415 964 z m 364 -7 b 601 72 476 -7 561 31 b 600 92 607 76 607 83 l 579 124 b 554 128 572 132 567 135 b 364 82 515 103 461 82 l 350 82 b 176 232 228 82 176 143 l 176 306 l 586 306 b 631 349 614 306 631 322 l 631 465 b 385 700 631 614 546 700 l 321 700 b 75 463 163 700 75 613 l 75 231 b 349 -7 75 85 158 -7 z m 176 383 l 176 461 b 322 607 176 554 226 607 l 383 607 b 529 464 481 607 529 556 l 529 383 z "},"ě":{"ha":706,"x_min":0,"x_max":0,"o":"m 319 765 l 386 765 b 425 783 401 765 413 768 l 571 949 b 561 972 581 961 575 972 l 500 972 b 463 950 485 972 478 968 l 361 836 l 347 836 l 247 950 b 210 972 232 968 225 972 l 149 972 b 139 949 135 972 129 961 l 285 783 b 319 765 296 769 304 765 z m 364 -7 b 601 72 476 -7 561 31 b 600 92 607 76 607 83 l 579 124 b 554 128 572 132 567 135 b 364 82 515 103 461 82 l 350 82 b 176 232 228 82 176 143 l 176 306 l 586 306 b 631 349 614 306 631 322 l 631 465 b 385 700 631 614 546 700 l 321 700 b 75 463 163 700 75 613 l 75 231 b 349 -7 75 85 158 -7 z m 176 383 l 176 461 b 322 607 176 554 226 607 l 383 607 b 529 464 481 607 529 556 l 529 383 z "},"ȩ":{"ha":706,"x_min":0,"x_max":0,"o":"m 385 700 l 321 700 b 75 463 163 700 75 613 l 75 231 b 314 -6 75 94 149 6 b 263 -82 276 -40 263 -60 b 318 -129 263 -114 288 -126 b 458 -174 422 -140 458 -143 b 396 -212 458 -206 440 -212 l 367 -212 b 304 -167 321 -212 306 -199 b 290 -156 304 -160 297 -156 l 235 -156 b 222 -171 225 -156 222 -161 b 343 -279 222 -239 251 -279 l 417 -279 b 542 -174 506 -279 542 -244 b 401 -71 542 -86 485 -81 b 408 -6 365 -67 344 -61 b 601 72 499 3 567 36 b 600 92 607 76 607 83 l 579 124 b 554 128 572 132 567 135 b 364 82 515 103 461 82 l 350 82 b 176 232 228 82 176 143 l 176 306 l 586 306 b 631 349 614 306 631 322 l 631 465 b 385 700 631 614 546 700 z m 529 383 l 176 383 l 176 461 b 322 607 176 554 226 607 l 383 607 b 529 464 481 607 529 556 z "},"ê":{"ha":706,"x_min":0,"x_max":0,"o":"m 314 972 b 279 954 299 972 290 968 l 133 788 b 143 765 124 776 129 765 l 204 765 b 242 788 219 765 226 769 l 342 901 l 356 901 l 457 788 b 494 765 472 769 479 765 l 556 765 b 565 788 569 765 575 776 l 419 954 b 381 972 407 968 396 972 z m 364 -7 b 601 72 476 -7 561 31 b 600 92 607 76 607 83 l 579 124 b 554 128 572 132 567 135 b 364 82 515 103 461 82 l 350 82 b 176 232 228 82 176 143 l 176 306 l 586 306 b 631 349 614 306 631 322 l 631 465 b 385 700 631 614 546 700 l 321 700 b 75 463 163 700 75 613 l 75 231 b 349 -7 75 85 158 -7 z m 176 383 l 176 461 b 322 607 176 554 226 607 l 383 607 b 529 464 481 607 529 556 l 529 383 z "},"ë":{"ha":706,"x_min":0,"x_max":0,"o":"m 126 863 l 199 863 b 217 882 213 863 217 868 l 217 954 b 199 972 217 968 213 972 l 126 972 b 107 954 113 972 107 968 l 107 882 b 126 863 107 868 113 863 z m 513 863 l 585 863 b 604 882 599 863 604 868 l 604 954 b 585 972 604 968 599 972 l 513 972 b 494 954 499 972 494 968 l 494 882 b 513 863 494 868 499 863 z m 364 -7 b 601 72 476 -7 561 31 b 600 92 607 76 607 83 l 579 124 b 554 128 572 132 567 135 b 364 82 515 103 461 82 l 350 82 b 176 232 228 82 176 143 l 176 306 l 586 306 b 631 349 614 306 631 322 l 631 465 b 385 700 631 614 546 700 l 321 700 b 75 463 163 700 75 613 l 75 231 b 349 -7 75 85 158 -7 z m 176 383 l 176 461 b 322 607 176 554 226 607 l 383 607 b 529 464 481 607 529 556 l 529 383 z "},"ė":{"ha":706,"x_min":0,"x_max":0,"o":"m 319 863 l 392 863 b 410 882 406 863 410 868 l 410 954 b 392 972 410 968 406 972 l 319 972 b 300 954 306 972 300 968 l 300 882 b 319 863 300 868 306 863 z m 364 -7 b 601 72 476 -7 561 31 b 600 92 607 76 607 83 l 579 124 b 554 128 572 132 567 135 b 364 82 515 103 461 82 l 350 82 b 176 232 228 82 176 143 l 176 306 l 586 306 b 631 349 614 306 631 322 l 631 465 b 385 700 631 614 546 700 l 321 700 b 75 463 163 700 75 613 l 75 231 b 349 -7 75 85 158 -7 z m 176 383 l 176 461 b 322 607 176 554 226 607 l 383 607 b 529 464 481 607 529 556 l 529 383 z "},"è":{"ha":706,"x_min":0,"x_max":0,"o":"m 306 947 b 276 972 297 964 290 972 l 188 972 b 174 947 172 972 161 963 l 300 788 b 329 763 311 772 315 763 l 385 763 b 399 788 399 763 408 772 z m 364 -7 b 601 72 476 -7 561 31 b 600 92 607 76 607 83 l 579 124 b 554 128 572 132 567 135 b 364 82 515 103 461 82 l 350 82 b 176 232 228 82 176 143 l 176 306 l 586 306 b 631 349 614 306 631 322 l 631 465 b 385 700 631 614 546 700 l 321 700 b 75 463 163 700 75 613 l 75 231 b 349 -7 75 85 158 -7 z m 176 383 l 176 461 b 322 607 176 554 226 607 l 383 607 b 529 464 481 607 529 556 l 529 383 z "},"ē":{"ha":706,"x_min":0,"x_max":0,"o":"m 131 876 l 581 876 b 601 897 593 876 601 883 l 601 951 b 581 972 601 965 593 972 l 131 972 b 110 951 117 972 110 965 l 110 897 b 131 876 110 883 117 876 z m 364 -7 b 601 72 476 -7 561 31 b 600 92 607 76 607 83 l 579 124 b 554 128 572 132 567 135 b 364 82 515 103 461 82 l 350 82 b 176 232 228 82 176 143 l 176 306 l 586 306 b 631 349 614 306 631 322 l 631 465 b 385 700 631 614 546 700 l 321 700 b 75 463 163 700 75 613 l 75 231 b 349 -7 75 85 158 -7 z m 176 383 l 176 461 b 322 607 176 554 226 607 l 383 607 b 529 464 481 607 529 556 l 529 383 z "},"ę":{"ha":706,"x_min":0,"x_max":0,"o":"m 385 700 l 321 700 b 75 463 163 700 75 613 l 75 231 b 349 -7 75 85 158 -7 l 364 -7 l 367 -7 l 367 -22 b 322 -62 367 -50 358 -60 l 264 -69 b 153 -172 181 -79 153 -89 b 281 -282 153 -257 181 -282 l 438 -282 b 451 -268 447 -282 451 -276 l 451 -225 b 438 -211 451 -215 446 -211 l 297 -211 b 246 -171 256 -211 246 -201 b 276 -136 246 -142 254 -137 l 396 -121 b 468 -39 449 -115 468 -100 l 468 4 b 601 72 529 19 575 44 b 600 92 607 76 607 83 l 579 124 b 554 128 572 132 567 135 b 364 82 515 103 461 82 l 350 82 b 176 232 228 82 176 143 l 176 306 l 586 306 b 631 349 614 306 631 322 l 631 465 b 385 700 631 614 546 700 z m 529 383 l 176 383 l 176 461 b 322 607 176 554 226 607 l 383 607 b 529 464 481 607 529 556 z "},"f":{"ha":499,"x_min":0,"x_max":0,"o":"m 431 972 l 357 972 b 151 756 217 972 151 899 l 151 694 l 72 694 b 54 676 60 694 54 690 l 54 621 b 72 603 54 608 60 603 l 151 603 l 151 18 b 169 0 151 6 157 0 l 235 0 b 253 18 249 0 253 6 l 253 603 l 428 603 b 446 621 440 603 446 608 l 446 676 b 428 694 446 690 440 694 l 253 694 l 253 747 b 369 879 253 833 286 879 l 431 879 b 451 900 444 879 451 886 l 451 951 b 431 972 451 965 444 972 z "},"g":{"ha":718,"x_min":0,"x_max":0,"o":"m 344 -257 b 636 -21 544 -257 636 -197 l 636 676 b 619 694 636 689 632 694 l 553 694 b 536 676 542 694 536 689 l 536 619 l 524 619 b 353 700 492 669 435 700 l 311 700 b 75 465 157 700 75 619 l 75 228 b 311 -7 75 74 157 -7 l 353 -7 b 524 75 435 -7 492 25 l 536 75 l 536 -21 b 353 -168 536 -139 465 -168 b 222 -165 304 -168 268 -168 b 200 -182 208 -164 200 -171 l 200 -228 b 229 -250 200 -242 210 -247 b 344 -257 267 -256 306 -257 z m 325 86 b 176 236 226 86 176 139 l 176 458 b 325 607 176 554 226 607 l 388 607 b 536 460 483 607 536 553 l 536 233 b 388 86 536 140 483 86 z "},"ğ":{"ha":718,"x_min":0,"x_max":0,"o":"m 340 779 l 401 779 b 571 956 515 779 571 838 b 551 972 571 968 565 972 l 504 972 b 485 956 490 972 485 968 b 393 854 483 897 456 854 l 349 854 b 257 956 286 854 258 897 b 238 972 256 968 251 972 l 190 972 b 171 956 176 972 171 968 b 340 779 171 838 228 779 z m 344 -257 b 636 -21 544 -257 636 -197 l 636 676 b 619 694 636 689 632 694 l 553 694 b 536 676 542 694 536 689 l 536 619 l 524 619 b 353 700 492 669 435 700 l 311 700 b 75 465 157 700 75 619 l 75 228 b 311 -7 75 74 157 -7 l 353 -7 b 524 75 435 -7 492 25 l 536 75 l 536 -21 b 353 -168 536 -139 465 -168 b 222 -165 304 -168 268 -168 b 200 -182 208 -164 200 -171 l 200 -228 b 229 -250 200 -242 210 -247 b 344 -257 267 -256 306 -257 z m 325 86 b 176 236 226 86 176 139 l 176 458 b 325 607 176 554 226 607 l 388 607 b 536 460 483 607 536 553 l 536 233 b 388 86 536 140 483 86 z "},"ǧ":{"ha":718,"x_min":0,"x_max":0,"o":"m 336 765 l 403 765 b 442 783 418 765 429 768 l 588 949 b 578 972 597 961 592 972 l 517 972 b 479 950 501 972 494 968 l 378 836 l 364 836 l 264 950 b 226 972 249 968 242 972 l 165 972 b 156 949 151 972 146 961 l 301 783 b 336 765 313 769 321 765 z m 344 -257 b 636 -21 544 -257 636 -197 l 636 676 b 619 694 636 689 632 694 l 553 694 b 536 676 542 694 536 689 l 536 619 l 524 619 b 353 700 492 669 435 700 l 311 700 b 75 465 157 700 75 619 l 75 228 b 311 -7 75 74 157 -7 l 353 -7 b 524 75 435 -7 492 25 l 536 75 l 536 -21 b 353 -168 536 -139 465 -168 b 222 -165 304 -168 268 -168 b 200 -182 208 -164 200 -171 l 200 -228 b 229 -250 200 -242 210 -247 b 344 -257 267 -256 306 -257 z m 325 86 b 176 236 226 86 176 139 l 176 458 b 325 607 176 554 226 607 l 388 607 b 536 460 483 607 536 553 l 536 233 b 388 86 536 140 483 86 z "},"ĝ":{"ha":718,"x_min":0,"x_max":0,"o":"m 329 972 b 294 954 314 972 306 968 l 149 788 b 158 765 139 776 144 765 l 219 765 b 257 788 235 765 242 769 l 357 901 l 371 901 l 472 788 b 510 765 488 769 494 765 l 571 765 b 581 788 585 765 590 776 l 435 954 b 396 972 422 968 411 972 z m 344 -257 b 636 -21 544 -257 636 -197 l 636 676 b 619 694 636 689 632 694 l 553 694 b 536 676 542 694 536 689 l 536 619 l 524 619 b 353 700 492 669 435 700 l 311 700 b 75 465 157 700 75 619 l 75 228 b 311 -7 75 74 157 -7 l 353 -7 b 524 75 435 -7 492 25 l 536 75 l 536 -21 b 353 -168 536 -139 465 -168 b 222 -165 304 -168 268 -168 b 200 -182 208 -164 200 -171 l 200 -228 b 229 -250 200 -242 210 -247 b 344 -257 267 -256 306 -257 z m 325 86 b 176 236 226 86 176 139 l 176 458 b 325 607 176 554 226 607 l 388 607 b 536 460 483 607 536 553 l 536 233 b 388 86 536 140 483 86 z "},"ģ":{"ha":718,"x_min":0,"x_max":0,"o":"m 307 811 l 360 811 b 379 829 374 811 379 815 l 379 1035 l 424 1035 b 442 1054 438 1035 442 1040 l 442 1103 b 424 1121 442 1117 438 1121 l 325 1121 b 288 1083 299 1121 288 1110 l 288 829 b 307 811 288 815 293 811 z m 344 -257 b 636 -21 544 -257 636 -197 l 636 676 b 619 694 636 689 632 694 l 553 694 b 536 676 542 694 536 689 l 536 619 l 524 619 b 353 700 492 669 435 700 l 311 700 b 75 465 157 700 75 619 l 75 228 b 311 -7 75 74 157 -7 l 353 -7 b 524 75 435 -7 492 25 l 536 75 l 536 -21 b 353 -168 536 -139 465 -168 b 222 -165 304 -168 268 -168 b 200 -182 208 -164 200 -171 l 200 -228 b 229 -250 200 -242 210 -247 b 344 -257 267 -256 306 -257 z m 325 86 b 176 236 226 86 176 139 l 176 458 b 325 607 176 554 226 607 l 388 607 b 536 460 483 607 536 553 l 536 233 b 388 86 536 140 483 86 z "},"ġ":{"ha":718,"x_min":0,"x_max":0,"o":"m 335 863 l 407 863 b 425 882 421 863 425 868 l 425 954 b 407 972 425 968 421 972 l 335 972 b 315 954 321 972 315 968 l 315 882 b 335 863 315 868 321 863 z m 344 -257 b 636 -21 544 -257 636 -197 l 636 676 b 619 694 636 689 632 694 l 553 694 b 536 676 542 694 536 689 l 536 619 l 524 619 b 353 700 492 669 435 700 l 311 700 b 75 465 157 700 75 619 l 75 228 b 311 -7 75 74 157 -7 l 353 -7 b 524 75 435 -7 492 25 l 536 75 l 536 -21 b 353 -168 536 -139 465 -168 b 222 -165 304 -168 268 -168 b 200 -182 208 -164 200 -171 l 200 -228 b 229 -250 200 -242 210 -247 b 344 -257 267 -256 306 -257 z m 325 86 b 176 236 226 86 176 139 l 176 458 b 325 607 176 554 226 607 l 388 607 b 536 460 483 607 536 553 l 536 233 b 388 86 536 140 483 86 z "},"h":{"ha":739,"x_min":0,"x_max":0,"o":"m 425 700 l 385 700 b 206 617 303 700 240 668 l 190 617 l 190 954 b 172 972 190 967 185 972 l 107 972 b 89 954 93 972 89 967 l 89 18 b 107 0 89 6 93 0 l 172 0 b 190 18 185 0 190 6 l 190 458 b 350 607 190 553 249 607 l 403 607 b 550 457 504 607 550 554 l 550 18 b 567 0 550 6 554 0 l 633 0 b 650 18 644 0 650 6 l 650 465 b 425 700 650 619 585 700 z "},"ħ":{"ha":697,"x_min":0,"x_max":0,"o":"m 425 700 l 385 700 b 206 617 303 700 240 668 l 190 617 l 190 769 l 471 769 b 492 790 483 769 492 776 l 492 844 b 471 865 492 858 483 865 l 190 865 l 190 954 b 172 972 190 967 185 972 l 107 972 b 89 954 93 972 89 967 l 89 865 l 21 865 b 0 844 7 865 0 858 l 0 790 b 21 769 0 776 7 769 l 89 769 l 89 18 b 107 0 89 6 93 0 l 172 0 b 190 18 185 0 190 6 l 190 458 b 350 607 190 553 249 607 l 403 607 b 550 457 504 607 550 554 l 550 18 b 567 0 550 6 554 0 l 633 0 b 650 18 644 0 650 6 l 650 465 b 425 700 650 619 585 700 z "},"ĥ":{"ha":739,"x_min":0,"x_max":0,"o":"m 140 1179 l 242 1065 b 279 1043 257 1047 264 1043 l 340 1043 b 350 1065 354 1043 360 1054 l 204 1232 b 165 1250 192 1246 181 1250 l 99 1250 b 64 1232 83 1250 75 1246 l -82 1065 b -74 1043 -92 1054 -87 1043 l -12 1043 b 26 1065 4 1043 11 1047 l 126 1179 z m 425 700 l 385 700 b 206 617 303 700 240 668 l 190 617 l 190 954 b 172 972 190 967 185 972 l 107 972 b 89 954 93 972 89 967 l 89 18 b 107 0 89 6 93 0 l 172 0 b 190 18 185 0 190 6 l 190 458 b 350 607 190 553 249 607 l 403 607 b 550 457 504 607 550 554 l 550 18 b 567 0 550 6 554 0 l 633 0 b 650 18 644 0 650 6 l 650 465 b 425 700 650 619 585 700 z "},"i":{"ha":281,"x_min":0,"x_max":0,"o":"m 107 872 l 174 872 b 192 890 188 872 192 878 l 192 954 b 174 972 192 967 188 972 l 107 972 b 89 954 93 972 89 967 l 89 890 b 107 872 89 878 93 872 z m 107 0 l 174 0 b 190 18 186 0 190 6 l 190 676 b 174 694 190 689 186 694 l 107 694 b 90 676 94 694 90 689 l 90 18 b 107 0 90 6 94 0 z "},"ı":{"ha":254,"x_min":0,"x_max":0,"o":"m 94 0 l 160 0 b 178 18 172 0 178 6 l 178 676 b 160 694 178 689 172 694 l 94 694 b 76 676 82 694 76 689 l 76 18 b 94 0 76 6 82 0 z "},"í":{"ha":254,"x_min":0,"x_max":0,"o":"m 179 947 l 86 788 b 100 763 76 772 86 763 l 156 763 b 185 788 169 763 174 772 l 311 947 b 297 972 324 963 313 972 l 208 972 b 179 947 194 972 188 964 z m 94 0 l 160 0 b 178 18 172 0 178 6 l 178 676 b 160 694 178 689 172 694 l 94 694 b 76 676 82 694 76 689 l 76 18 b 94 0 76 6 82 0 z "},"ǐ":{"ha":254,"x_min":0,"x_max":0,"o":"m 92 765 l 158 765 b 197 783 174 765 185 768 l 343 949 b 333 972 353 961 347 972 l 272 972 b 235 950 257 972 250 968 l 133 836 l 119 836 l 19 950 b -19 972 4 968 -4 972 l -81 972 b -89 949 -94 972 -99 961 l 57 783 b 92 765 68 769 76 765 z m 94 0 l 160 0 b 178 18 172 0 178 6 l 178 676 b 160 694 178 689 172 694 l 94 694 b 76 676 82 694 76 689 l 76 18 b 94 0 76 6 82 0 z "},"î":{"ha":254,"x_min":0,"x_max":0,"o":"m 85 972 b 50 954 69 972 61 968 l -96 788 b -87 765 -106 776 -101 765 l -26 765 b 13 788 -11 765 -3 769 l 113 901 l 126 901 l 228 788 b 265 765 243 769 250 765 l 326 765 b 336 788 340 765 346 776 l 190 954 b 151 972 178 968 167 972 z m 94 0 l 160 0 b 178 18 172 0 178 6 l 178 676 b 160 694 178 689 172 694 l 94 694 b 76 676 82 694 76 689 l 76 18 b 94 0 76 6 82 0 z "},"ï":{"ha":254,"x_min":0,"x_max":0,"o":"m -104 863 l -32 863 b -12 882 -18 863 -12 868 l -12 954 b -32 972 -12 968 -18 972 l -104 972 b -122 954 -118 972 -122 968 l -122 882 b -104 863 -122 868 -118 863 z m 283 863 l 356 863 b 375 882 369 863 375 868 l 375 954 b 356 972 375 968 369 972 l 283 972 b 265 954 269 972 265 968 l 265 882 b 283 863 265 868 269 863 z m 94 0 l 160 0 b 178 18 172 0 178 6 l 178 676 b 160 694 178 689 172 694 l 94 694 b 76 676 82 694 76 689 l 76 18 b 94 0 76 6 82 0 z "},"ì":{"ha":254,"x_min":0,"x_max":0,"o":"m 78 947 b 49 972 69 964 63 972 l -40 972 b -54 947 -56 972 -67 963 l 72 788 b 101 763 83 772 88 763 l 157 763 b 171 788 171 763 181 772 z m 94 0 l 160 0 b 178 18 172 0 178 6 l 178 676 b 160 694 178 689 172 694 l 94 694 b 76 676 82 694 76 689 l 76 18 b 94 0 76 6 82 0 z "},"ĳ":{"ha":569,"x_min":0,"x_max":0,"o":"m 107 872 l 174 872 b 192 890 188 872 192 878 l 192 954 b 174 972 192 967 188 972 l 107 972 b 89 954 93 972 89 967 l 89 890 b 107 872 89 878 93 872 z m 396 872 l 464 872 b 482 890 476 872 482 878 l 482 954 b 464 972 482 967 476 972 l 396 972 b 379 954 383 972 379 967 l 379 890 b 396 872 379 878 383 872 z m 107 0 l 174 0 b 190 18 186 0 190 6 l 190 676 b 174 694 190 689 186 694 l 107 694 b 90 676 94 694 90 689 l 90 18 b 107 0 90 6 94 0 z m 326 -254 b 482 -71 446 -254 482 -190 l 482 676 b 464 694 482 689 476 694 l 399 694 b 381 676 386 694 381 689 l 381 -64 b 292 -164 381 -140 356 -164 b 265 -186 272 -164 265 -172 l 265 -225 b 326 -254 265 -246 279 -254 z "},"ī":{"ha":254,"x_min":0,"x_max":0,"o":"m -99 876 l 351 876 b 372 897 364 876 372 883 l 372 951 b 351 972 372 965 364 972 l -99 972 b -119 951 -112 972 -119 965 l -119 897 b -99 876 -119 883 -112 876 z m 94 0 l 160 0 b 178 18 172 0 178 6 l 178 676 b 160 694 178 689 172 694 l 94 694 b 76 676 82 694 76 689 l 76 18 b 94 0 76 6 82 0 z "},"į":{"ha":254,"x_min":0,"x_max":0,"o":"m 163 972 l 90 972 b 71 954 76 972 71 968 l 71 882 b 90 863 71 868 76 863 l 163 863 b 181 882 176 863 181 868 l 181 954 b 163 972 181 968 176 972 z m 160 694 l 94 694 b 76 676 82 694 76 689 l 76 -22 b 32 -62 76 -50 68 -60 l -26 -69 b -137 -172 -110 -79 -137 -89 b -10 -282 -137 -257 -110 -282 l 147 -282 b 161 -268 157 -282 161 -276 l 161 -225 b 147 -211 161 -215 156 -211 l 7 -211 b -44 -171 -35 -211 -44 -201 b -14 -136 -44 -142 -36 -137 l 106 -121 b 178 -39 158 -115 178 -100 l 178 676 b 160 694 178 689 172 694 z "},"j":{"ha":290,"x_min":0,"x_max":0,"o":"m 115 872 l 183 872 b 201 890 196 872 201 878 l 201 954 b 183 972 201 967 196 972 l 115 972 b 99 954 103 972 99 967 l 99 890 b 115 872 99 878 103 872 z m 46 -254 b 201 -71 165 -254 201 -190 l 201 676 b 183 694 201 689 196 694 l 118 694 b 100 676 106 694 100 689 l 100 -64 b 11 -164 100 -140 75 -164 b -15 -186 -10 -164 -15 -172 l -15 -225 b 46 -254 -15 -246 -1 -254 z "},"ȷ":{"ha":278,"x_min":0,"x_max":0,"o":"m 33 -254 b 189 -71 153 -254 189 -190 l 189 676 b 171 694 189 689 185 694 l 106 694 b 88 676 93 694 88 689 l 88 -64 b -1 -164 88 -140 63 -164 b -28 -186 -21 -164 -28 -172 l -28 -225 b 33 -254 -28 -246 -14 -254 z "},"ĵ":{"ha":278,"x_min":0,"x_max":0,"o":"m 97 972 b 63 954 82 972 74 968 l -83 788 b -75 765 -93 776 -89 765 l -14 765 b 25 788 3 765 10 769 l 125 901 l 139 901 l 240 788 b 278 765 256 769 263 765 l 339 765 b 349 788 353 765 358 776 l 203 954 b 164 972 190 968 179 972 z m 33 -254 b 189 -71 153 -254 189 -190 l 189 676 b 171 694 189 689 185 694 l 106 694 b 88 676 93 694 88 689 l 88 -64 b -1 -164 88 -140 63 -164 b -28 -186 -21 -164 -28 -172 l -28 -225 b 33 -254 -28 -246 -14 -254 z "},"k":{"ha":690,"x_min":0,"x_max":0,"o":"m 646 26 l 347 397 l 615 664 b 607 694 631 679 624 694 l 533 694 b 504 679 521 694 513 689 l 190 363 l 190 954 b 172 972 190 967 185 972 l 107 972 b 89 954 93 972 89 967 l 89 18 b 107 0 89 6 93 0 l 172 0 b 190 18 185 0 190 6 l 190 242 l 281 332 l 532 18 b 567 0 543 6 550 0 l 632 0 b 646 26 650 0 657 13 z "},"ķ":{"ha":690,"x_min":0,"x_max":0,"o":"m 646 26 l 347 397 l 615 664 b 607 694 631 679 624 694 l 533 694 b 504 679 521 694 513 689 l 190 363 l 190 954 b 172 972 190 967 185 972 l 107 972 b 89 954 93 972 89 967 l 89 18 b 107 0 89 6 93 0 l 172 0 b 190 18 185 0 190 6 l 190 242 l 281 332 l 532 18 b 567 0 543 6 550 0 l 632 0 b 646 26 650 0 657 13 z m 346 -83 l 292 -83 b 274 -103 278 -83 274 -89 l 274 -308 l 229 -308 b 210 -326 215 -308 210 -312 l 210 -375 b 229 -394 210 -389 215 -394 l 328 -394 b 364 -357 353 -394 364 -382 l 364 -103 b 346 -83 364 -89 360 -83 z "},"l":{"ha":278,"x_min":0,"x_max":0,"o":"m 107 0 l 172 0 b 190 18 185 0 190 6 l 190 954 b 172 972 190 967 185 972 l 107 972 b 89 954 93 972 89 967 l 89 18 b 107 0 89 6 93 0 z "},"ĺ":{"ha":278,"x_min":0,"x_max":0,"o":"m 192 1225 l 99 1065 b 113 1040 89 1050 99 1040 l 168 1040 b 197 1065 182 1040 186 1050 l 324 1225 b 310 1250 336 1240 325 1250 l 221 1250 b 192 1225 207 1250 200 1242 z m 107 0 l 172 0 b 190 18 185 0 190 6 l 190 954 b 172 972 190 967 185 972 l 107 972 b 89 954 93 972 89 967 l 89 18 b 107 0 89 6 93 0 z "},"ľ":{"ha":358,"x_min":0,"x_max":0,"o":"m 107 0 l 172 0 b 190 18 185 0 190 6 l 190 954 b 172 972 190 967 185 972 l 107 972 b 89 954 93 972 89 967 l 89 18 b 107 0 89 6 93 0 z m 374 972 l 321 972 b 301 954 307 972 301 968 l 301 749 l 257 749 b 238 729 243 749 238 743 l 238 681 b 257 663 238 667 243 663 l 356 663 b 393 699 381 663 393 674 l 393 954 b 374 972 393 968 388 972 z "},"ļ":{"ha":278,"x_min":0,"x_max":0,"o":"m 107 0 l 172 0 b 190 18 185 0 190 6 l 190 954 b 172 972 190 967 185 972 l 107 972 b 89 954 93 972 89 967 l 89 18 b 107 0 89 6 93 0 z m 164 -83 l 110 -83 b 92 -103 96 -83 92 -89 l 92 -308 l 47 -308 b 28 -326 33 -308 28 -312 l 28 -375 b 47 -394 28 -389 33 -394 l 146 -394 b 182 -357 171 -394 182 -382 l 182 -103 b 164 -83 182 -89 178 -83 z "},"ŀ":{"ha":325,"x_min":0,"x_max":0,"o":"m 107 0 l 172 0 b 190 18 185 0 190 6 l 190 954 b 172 972 190 967 185 972 l 107 972 b 89 954 93 972 89 967 l 89 18 b 107 0 89 6 93 0 z m 258 358 l 331 358 b 349 376 344 358 349 363 l 349 449 b 331 468 349 463 344 468 l 258 468 b 239 449 244 468 239 463 l 239 376 b 258 358 239 363 244 358 z "},"ł":{"ha":310,"x_min":0,"x_max":0,"o":"m 303 654 l 240 654 b 206 636 226 654 221 651 l 206 954 b 188 972 206 967 201 972 l 122 972 b 104 954 110 972 104 967 l 104 519 l 0 399 b 10 376 -12 386 -8 376 l 71 376 b 104 394 85 376 93 381 l 104 18 b 122 0 104 6 110 0 l 188 0 b 206 18 201 0 206 6 l 206 511 l 310 632 b 303 654 322 646 319 654 z "},"m":{"ha":1150,"x_min":0,"x_max":0,"o":"m 844 700 l 817 700 b 610 601 719 700 647 668 l 600 601 b 413 700 568 667 506 700 l 386 700 b 206 617 301 700 239 669 l 190 617 l 190 676 b 172 694 190 689 185 694 l 107 694 b 89 676 93 694 89 689 l 89 18 b 107 0 89 6 93 0 l 172 0 b 190 18 185 0 190 6 l 190 458 b 342 607 190 553 247 607 l 385 607 b 525 457 481 607 525 554 l 525 18 b 543 0 525 6 529 0 l 608 0 b 626 18 621 0 626 6 l 626 458 b 778 607 626 553 683 607 l 821 607 b 961 457 917 607 961 554 l 961 18 b 979 0 961 6 965 0 l 1044 0 b 1063 18 1057 0 1063 6 l 1063 465 b 844 700 1063 619 993 700 z "},"ḿ":{"ha":1150,"x_min":0,"x_max":0,"o":"m 560 763 l 615 763 b 644 788 629 763 633 772 l 771 947 b 757 972 783 963 772 972 l 668 972 b 639 947 654 972 647 964 l 546 788 b 560 763 536 772 546 763 z m 844 700 l 817 700 b 610 601 719 700 647 668 l 600 601 b 413 700 568 667 506 700 l 386 700 b 206 617 301 700 239 669 l 190 617 l 190 676 b 172 694 190 689 185 694 l 107 694 b 89 676 93 694 89 689 l 89 18 b 107 0 89 6 93 0 l 172 0 b 190 18 185 0 190 6 l 190 458 b 342 607 190 553 247 607 l 385 607 b 525 457 481 607 525 554 l 525 18 b 543 0 525 6 529 0 l 608 0 b 626 18 621 0 626 6 l 626 458 b 778 607 626 553 683 607 l 821 607 b 961 457 917 607 961 554 l 961 18 b 979 0 961 6 965 0 l 1044 0 b 1063 18 1057 0 1063 6 l 1063 465 b 844 700 1063 619 993 700 z "},"n":{"ha":739,"x_min":0,"x_max":0,"o":"m 107 0 l 172 0 b 190 18 185 0 190 6 l 190 458 b 350 607 190 553 249 607 l 403 607 b 550 457 504 607 550 554 l 550 18 b 567 0 550 6 554 0 l 633 0 b 650 18 644 0 650 6 l 650 465 b 425 700 650 619 585 700 l 385 700 b 206 617 303 700 240 668 l 190 617 l 190 676 b 172 694 190 689 185 694 l 107 694 b 89 676 93 694 89 689 l 89 18 b 107 0 89 6 93 0 z "},"ń":{"ha":739,"x_min":0,"x_max":0,"o":"m 422 947 l 329 788 b 343 763 319 772 329 763 l 399 763 b 428 788 413 763 417 772 l 554 947 b 540 972 567 963 556 972 l 451 972 b 422 947 438 972 431 964 z m 107 0 l 172 0 b 190 18 185 0 190 6 l 190 458 b 350 607 190 553 249 607 l 403 607 b 550 457 504 607 550 554 l 550 18 b 567 0 550 6 554 0 l 633 0 b 650 18 644 0 650 6 l 650 465 b 425 700 650 619 585 700 l 385 700 b 206 617 303 700 240 668 l 190 617 l 190 676 b 172 694 190 689 185 694 l 107 694 b 89 676 93 694 89 689 l 89 18 b 107 0 89 6 93 0 z "},"ň":{"ha":739,"x_min":0,"x_max":0,"o":"m 335 765 l 401 765 b 440 783 417 765 428 768 l 586 949 b 576 972 596 961 590 972 l 515 972 b 478 950 500 972 493 968 l 376 836 l 363 836 l 263 950 b 225 972 247 968 240 972 l 164 972 b 154 949 150 972 144 961 l 300 783 b 335 765 311 769 319 765 z m 107 0 l 172 0 b 190 18 185 0 190 6 l 190 458 b 350 607 190 553 249 607 l 403 607 b 550 457 504 607 550 554 l 550 18 b 567 0 550 6 554 0 l 633 0 b 650 18 644 0 650 6 l 650 465 b 425 700 650 619 585 700 l 385 700 b 206 617 303 700 240 668 l 190 617 l 190 676 b 172 694 190 689 185 694 l 107 694 b 89 676 93 694 89 689 l 89 18 b 107 0 89 6 93 0 z "},"ņ":{"ha":739,"x_min":0,"x_max":0,"o":"m 107 0 l 172 0 b 190 18 185 0 190 6 l 190 458 b 350 607 190 553 249 607 l 403 607 b 550 457 504 607 550 554 l 550 18 b 567 0 550 6 554 0 l 633 0 b 650 18 644 0 650 6 l 650 465 b 425 700 650 619 585 700 l 385 700 b 206 617 303 700 240 668 l 190 617 l 190 676 b 172 694 190 689 185 694 l 107 694 b 89 676 93 694 89 689 l 89 18 b 107 0 89 6 93 0 z m 394 -83 l 340 -83 b 322 -103 326 -83 322 -89 l 322 -308 l 278 -308 b 258 -326 264 -308 258 -312 l 258 -375 b 278 -394 258 -389 264 -394 l 376 -394 b 413 -357 401 -394 413 -382 l 413 -103 b 394 -83 413 -89 408 -83 z "},"ŋ":{"ha":739,"x_min":0,"x_max":0,"o":"m 425 700 l 385 700 b 206 617 303 700 240 668 l 190 617 l 190 676 b 172 694 190 689 185 694 l 107 694 b 89 676 93 694 89 689 l 89 18 b 107 0 89 6 93 0 l 172 0 b 190 18 185 0 190 6 l 190 458 b 350 607 190 553 249 607 l 403 607 b 550 457 504 607 550 554 l 550 236 l 538 236 l 538 -94 b 449 -194 538 -171 513 -194 b 422 -217 428 -194 422 -201 l 422 -256 b 482 -285 422 -276 436 -285 b 639 -101 603 -285 639 -221 l 639 0 b 650 18 646 3 650 8 l 650 465 b 425 700 650 619 585 700 z "},"ñ":{"ha":739,"x_min":0,"x_max":0,"o":"m 468 825 b 588 864 510 825 547 838 b 599 889 599 871 603 879 l 578 936 b 556 942 574 946 567 949 b 474 915 522 921 501 915 b 271 979 394 915 363 979 b 151 940 229 979 192 968 b 140 917 140 933 136 926 l 161 869 b 183 864 165 860 172 856 b 265 890 215 883 238 890 b 468 825 344 890 376 825 z m 107 0 l 172 0 b 190 18 185 0 190 6 l 190 458 b 350 607 190 553 249 607 l 403 607 b 550 457 504 607 550 554 l 550 18 b 567 0 550 6 554 0 l 633 0 b 650 18 644 0 650 6 l 650 465 b 425 700 650 619 585 700 l 385 700 b 206 617 303 700 240 668 l 190 617 l 190 676 b 172 694 190 689 185 694 l 107 694 b 89 676 93 694 89 689 l 89 18 b 107 0 89 6 93 0 z "},"o":{"ha":711,"x_min":0,"x_max":0,"o":"m 321 -7 l 392 -7 b 636 229 550 -7 636 79 l 636 465 b 392 700 636 614 551 700 l 321 700 b 75 465 160 700 75 614 l 75 229 b 321 -7 75 79 160 -7 z m 322 86 b 176 231 225 86 176 138 l 176 463 b 322 607 176 556 225 607 l 389 607 b 536 463 486 607 536 556 l 536 231 b 389 86 536 138 486 86 z "},"ó":{"ha":711,"x_min":0,"x_max":0,"o":"m 408 947 l 315 788 b 329 763 306 772 315 763 l 385 763 b 414 788 399 763 403 772 l 540 947 b 526 972 553 963 542 972 l 438 972 b 408 947 424 972 417 964 z m 321 -7 l 392 -7 b 636 229 550 -7 636 79 l 636 465 b 392 700 636 614 551 700 l 321 700 b 75 465 160 700 75 614 l 75 229 b 321 -7 75 79 160 -7 z m 322 86 b 176 231 225 86 176 138 l 176 463 b 322 607 176 556 225 607 l 389 607 b 536 463 486 607 536 556 l 536 231 b 389 86 536 138 486 86 z "},"ǒ":{"ha":711,"x_min":0,"x_max":0,"o":"m 321 765 l 388 765 b 426 783 403 765 414 768 l 572 949 b 563 972 582 961 576 972 l 501 972 b 464 950 486 972 479 968 l 363 836 l 349 836 l 249 950 b 211 972 233 968 226 972 l 150 972 b 140 949 136 972 131 961 l 286 783 b 321 765 297 769 306 765 z m 321 -7 l 392 -7 b 636 229 550 -7 636 79 l 636 465 b 392 700 636 614 551 700 l 321 700 b 75 465 160 700 75 614 l 75 229 b 321 -7 75 79 160 -7 z m 322 86 b 176 231 225 86 176 138 l 176 463 b 322 607 176 556 225 607 l 389 607 b 536 463 486 607 536 556 l 536 231 b 389 86 536 138 486 86 z "},"ô":{"ha":711,"x_min":0,"x_max":0,"o":"m 314 972 b 279 954 299 972 290 968 l 133 788 b 143 765 124 776 129 765 l 204 765 b 242 788 219 765 226 769 l 342 901 l 356 901 l 457 788 b 494 765 472 769 479 765 l 556 765 b 565 788 569 765 575 776 l 419 954 b 381 972 407 968 396 972 z m 321 -7 l 392 -7 b 636 229 550 -7 636 79 l 636 465 b 392 700 636 614 551 700 l 321 700 b 75 465 160 700 75 614 l 75 229 b 321 -7 75 79 160 -7 z m 322 86 b 176 231 225 86 176 138 l 176 463 b 322 607 176 556 225 607 l 389 607 b 536 463 486 607 536 556 l 536 231 b 389 86 536 138 486 86 z "},"ö":{"ha":711,"x_min":0,"x_max":0,"o":"m 126 863 l 199 863 b 217 882 213 863 217 868 l 217 954 b 199 972 217 968 213 972 l 126 972 b 107 954 113 972 107 968 l 107 882 b 126 863 107 868 113 863 z m 513 863 l 585 863 b 604 882 599 863 604 868 l 604 954 b 585 972 604 968 599 972 l 513 972 b 494 954 499 972 494 968 l 494 882 b 513 863 494 868 499 863 z m 321 -7 l 392 -7 b 636 229 550 -7 636 79 l 636 465 b 392 700 636 614 551 700 l 321 700 b 75 465 160 700 75 614 l 75 229 b 321 -7 75 79 160 -7 z m 322 86 b 176 231 225 86 176 138 l 176 463 b 322 607 176 556 225 607 l 389 607 b 536 463 486 607 536 556 l 536 231 b 389 86 536 138 486 86 z "},"ò":{"ha":711,"x_min":0,"x_max":0,"o":"m 307 947 b 278 972 299 964 292 972 l 189 972 b 175 947 174 972 163 963 l 301 788 b 331 763 313 772 317 763 l 386 763 b 400 788 400 763 410 772 z m 321 -7 l 392 -7 b 636 229 550 -7 636 79 l 636 465 b 392 700 636 614 551 700 l 321 700 b 75 465 160 700 75 614 l 75 229 b 321 -7 75 79 160 -7 z m 322 86 b 176 231 225 86 176 138 l 176 463 b 322 607 176 556 225 607 l 389 607 b 536 463 486 607 536 556 l 536 231 b 389 86 536 138 486 86 z "},"ő":{"ha":711,"x_min":0,"x_max":0,"o":"m 308 947 l 215 788 b 229 763 206 772 215 763 l 285 763 b 314 788 299 763 303 772 l 440 947 b 426 972 453 963 442 972 l 338 972 b 308 947 324 972 317 964 z m 507 947 l 415 788 b 429 763 406 772 414 763 l 483 763 b 514 788 497 763 501 772 l 639 947 b 625 972 651 963 640 972 l 536 972 b 507 947 522 972 517 964 z m 321 -7 l 392 -7 b 636 229 550 -7 636 79 l 636 465 b 392 700 636 614 551 700 l 321 700 b 75 465 160 700 75 614 l 75 229 b 321 -7 75 79 160 -7 z m 322 86 b 176 231 225 86 176 138 l 176 463 b 322 607 176 556 225 607 l 389 607 b 536 463 486 607 536 556 l 536 231 b 389 86 536 138 486 86 z "},"ō":{"ha":711,"x_min":0,"x_max":0,"o":"m 131 876 l 581 876 b 601 897 593 876 601 883 l 601 951 b 581 972 601 965 593 972 l 131 972 b 110 951 117 972 110 965 l 110 897 b 131 876 110 883 117 876 z m 321 -7 l 392 -7 b 636 229 550 -7 636 79 l 636 465 b 392 700 636 614 551 700 l 321 700 b 75 465 160 700 75 614 l 75 229 b 321 -7 75 79 160 -7 z m 322 86 b 176 231 225 86 176 138 l 176 463 b 322 607 176 556 225 607 l 389 607 b 536 463 486 607 536 556 l 536 231 b 389 86 536 138 486 86 z "},"ø":{"ha":711,"x_min":0,"x_max":0,"o":"m 550 658 l 565 692 b 551 708 569 703 565 708 l 504 708 b 481 693 490 708 485 704 l 479 690 b 392 700 453 696 424 700 l 321 700 b 75 465 160 700 75 614 l 75 229 b 164 33 75 139 106 72 l 147 -3 b 161 -21 142 -15 147 -21 l 208 -21 b 232 -6 222 -21 228 -17 l 236 3 b 321 -7 261 -4 290 -7 l 392 -7 b 636 229 550 -7 636 79 l 636 465 b 550 658 636 553 607 619 z m 176 231 l 176 463 b 322 607 176 556 225 607 l 389 607 b 438 601 407 607 422 606 l 210 126 b 176 231 188 151 176 186 z m 536 231 b 389 86 536 138 486 86 l 322 86 b 278 90 306 86 292 88 l 504 564 b 536 463 525 540 536 506 z "},"õ":{"ha":711,"x_min":0,"x_max":0,"o":"m 454 825 b 574 864 496 825 533 838 b 585 889 585 871 589 879 l 564 936 b 542 942 560 946 553 949 b 460 915 508 921 488 915 b 257 979 381 915 349 979 b 138 940 215 979 178 968 b 126 917 126 933 122 926 l 147 869 b 169 864 151 860 158 856 b 251 890 201 883 224 890 b 454 825 331 890 363 825 z m 321 -7 l 392 -7 b 636 229 550 -7 636 79 l 636 465 b 392 700 636 614 551 700 l 321 700 b 75 465 160 700 75 614 l 75 229 b 321 -7 75 79 160 -7 z m 322 86 b 176 231 225 86 176 138 l 176 463 b 322 607 176 556 225 607 l 389 607 b 536 463 486 607 536 556 l 536 231 b 389 86 536 138 486 86 z "},"œ":{"ha":1165,"x_min":0,"x_max":0,"o":"m 846 700 l 781 700 b 586 624 693 700 628 674 b 392 700 546 674 481 700 l 321 700 b 75 465 160 700 75 614 l 75 229 b 321 -7 75 79 160 -7 l 392 -7 b 588 71 481 -7 547 21 b 810 -7 632 21 704 -7 l 825 -7 b 1063 72 936 -7 1021 31 b 1061 92 1067 76 1067 83 l 1039 124 b 1015 128 1033 132 1026 135 b 825 82 976 103 922 82 l 811 82 b 636 232 689 82 636 143 l 636 306 l 1047 306 b 1092 349 1075 306 1092 322 l 1092 465 b 846 700 1092 614 1006 700 z m 389 86 l 322 86 b 176 231 225 86 176 138 l 176 463 b 322 607 176 556 225 607 l 389 607 b 536 463 486 607 536 556 l 536 231 b 389 86 536 138 486 86 z m 990 383 l 636 383 l 636 461 b 783 607 636 554 688 607 l 844 607 b 990 464 942 607 990 556 z "},"p":{"ha":725,"x_min":0,"x_max":0,"o":"m 414 700 l 372 700 b 201 619 290 700 233 669 l 190 619 l 190 676 b 172 694 190 689 185 694 l 107 694 b 89 676 93 694 89 689 l 89 -228 b 107 -246 89 -240 93 -246 l 172 -246 b 190 -228 185 -246 190 -240 l 190 75 l 201 75 b 372 -7 233 25 290 -7 l 414 -7 b 650 228 568 -7 650 74 l 650 465 b 414 700 650 619 568 700 z m 550 236 b 400 86 550 139 499 86 l 338 86 b 190 233 242 86 190 140 l 190 460 b 338 607 190 553 242 607 l 400 607 b 550 458 499 607 550 554 z "},"þ":{"ha":725,"x_min":0,"x_max":0,"o":"m 414 700 l 372 700 b 201 619 290 700 233 669 l 190 619 l 190 954 b 172 972 190 967 185 972 l 107 972 b 89 954 93 972 89 967 l 89 -228 b 107 -246 89 -240 93 -246 l 172 -246 b 190 -228 185 -246 190 -240 l 190 75 l 201 75 b 372 -7 233 25 290 -7 l 414 -7 b 650 228 568 -7 650 74 l 650 465 b 414 700 650 619 568 700 z m 550 236 b 400 86 550 139 499 86 l 338 86 b 190 233 242 86 190 140 l 190 460 b 338 607 190 553 242 607 l 400 607 b 550 458 499 607 550 554 z "},"q":{"ha":725,"x_min":0,"x_max":0,"o":"m 311 700 b 75 465 157 700 75 619 l 75 228 b 311 -7 75 74 157 -7 l 353 -7 b 524 75 435 -7 492 25 l 536 75 l 536 -228 b 553 -246 536 -240 540 -246 l 619 -246 b 636 -228 632 -246 636 -240 l 636 676 b 619 694 636 689 632 694 l 553 694 b 536 676 540 694 536 689 l 536 619 l 524 619 b 353 700 492 669 435 700 z m 176 236 l 176 458 b 325 607 176 554 226 607 l 388 607 b 536 460 483 607 536 553 l 536 233 b 388 86 536 140 483 86 l 325 86 b 176 236 226 86 176 139 z "},"r":{"ha":638,"x_min":0,"x_max":0,"o":"m 107 0 l 172 0 b 190 18 185 0 190 6 l 190 458 b 342 607 190 553 246 607 l 374 607 b 490 490 461 607 490 558 b 507 472 490 478 496 472 l 568 472 b 583 490 579 472 583 478 l 583 511 b 407 700 583 633 531 700 l 381 700 b 206 617 300 700 239 669 l 190 617 l 190 676 b 172 694 190 689 185 694 l 107 694 b 89 676 93 694 89 689 l 89 18 b 107 0 89 6 93 0 z "},"ŕ":{"ha":638,"x_min":0,"x_max":0,"o":"m 393 947 l 300 788 b 314 763 290 772 300 763 l 369 763 b 399 788 383 763 388 772 l 525 947 b 511 972 538 963 526 972 l 422 972 b 393 947 408 972 401 964 z m 107 0 l 172 0 b 190 18 185 0 190 6 l 190 458 b 342 607 190 553 246 607 l 374 607 b 490 490 461 607 490 558 b 507 472 490 478 496 472 l 568 472 b 583 490 579 472 583 478 l 583 511 b 407 700 583 633 531 700 l 381 700 b 206 617 300 700 239 669 l 190 617 l 190 676 b 172 694 190 689 185 694 l 107 694 b 89 676 93 694 89 689 l 89 18 b 107 0 89 6 93 0 z "},"ř":{"ha":638,"x_min":0,"x_max":0,"o":"m 306 765 l 372 765 b 411 783 388 765 399 768 l 557 949 b 547 972 567 961 561 972 l 486 972 b 449 950 471 972 464 968 l 347 836 l 333 836 l 233 950 b 196 972 218 968 211 972 l 135 972 b 125 949 121 972 115 961 l 271 783 b 306 765 282 769 290 765 z m 107 0 l 172 0 b 190 18 185 0 190 6 l 190 458 b 342 607 190 553 246 607 l 374 607 b 490 490 461 607 490 558 b 507 472 490 478 496 472 l 568 472 b 583 490 579 472 583 478 l 583 511 b 407 700 583 633 531 700 l 381 700 b 206 617 300 700 239 669 l 190 617 l 190 676 b 172 694 190 689 185 694 l 107 694 b 89 676 93 694 89 689 l 89 18 b 107 0 89 6 93 0 z "},"ŗ":{"ha":638,"x_min":0,"x_max":0,"o":"m 107 0 l 172 0 b 190 18 185 0 190 6 l 190 458 b 342 607 190 553 246 607 l 374 607 b 490 490 461 607 490 558 b 507 472 490 478 496 472 l 568 472 b 583 490 579 472 583 478 l 583 511 b 407 700 583 633 531 700 l 381 700 b 206 617 300 700 239 669 l 190 617 l 190 676 b 172 694 190 689 185 694 l 107 694 b 89 676 93 694 89 689 l 89 18 b 107 0 89 6 93 0 z m 164 -83 l 110 -83 b 92 -103 96 -83 92 -89 l 92 -308 l 47 -308 b 28 -326 33 -308 28 -312 l 28 -375 b 47 -394 28 -389 33 -394 l 146 -394 b 182 -357 171 -394 182 -382 l 182 -103 b 164 -83 182 -89 178 -83 z "},"s":{"ha":669,"x_min":0,"x_max":0,"o":"m 301 -7 l 360 -7 b 601 194 503 -7 601 44 b 357 389 601 339 511 372 l 324 392 b 174 507 224 403 174 428 b 307 611 174 583 221 611 l 353 611 b 488 507 440 611 481 578 b 511 486 489 492 496 486 l 568 486 b 586 506 582 486 586 493 b 358 700 586 635 496 700 l 304 700 b 72 506 164 700 72 644 b 304 307 72 369 151 324 l 336 304 b 501 193 436 292 501 278 b 360 82 501 111 444 82 l 303 82 b 169 174 218 82 178 111 b 150 192 167 185 163 192 l 86 192 b 68 171 72 192 68 183 b 301 -7 68 50 157 -7 z "},"ś":{"ha":669,"x_min":0,"x_max":0,"o":"m 385 947 l 292 788 b 306 763 282 772 292 763 l 361 763 b 390 788 375 763 379 772 l 517 947 b 503 972 529 963 518 972 l 414 972 b 385 947 400 972 393 964 z m 301 -7 l 360 -7 b 601 194 503 -7 601 44 b 357 389 601 339 511 372 l 324 392 b 174 507 224 403 174 428 b 307 611 174 583 221 611 l 353 611 b 488 507 440 611 481 578 b 511 486 489 492 496 486 l 568 486 b 586 506 582 486 586 493 b 358 700 586 635 496 700 l 304 700 b 72 506 164 700 72 644 b 304 307 72 369 151 324 l 336 304 b 501 193 436 292 501 278 b 360 82 501 111 444 82 l 303 82 b 169 174 218 82 178 111 b 150 192 167 185 163 192 l 86 192 b 68 171 72 192 68 183 b 301 -7 68 50 157 -7 z "},"š":{"ha":669,"x_min":0,"x_max":0,"o":"m 297 765 l 364 765 b 403 783 379 765 390 768 l 549 949 b 539 972 558 961 553 972 l 478 972 b 440 950 463 972 456 968 l 339 836 l 325 836 l 225 950 b 188 972 210 968 203 972 l 126 972 b 117 949 113 972 107 961 l 263 783 b 297 765 274 769 282 765 z m 301 -7 l 360 -7 b 601 194 503 -7 601 44 b 357 389 601 339 511 372 l 324 392 b 174 507 224 403 174 428 b 307 611 174 583 221 611 l 353 611 b 488 507 440 611 481 578 b 511 486 489 492 496 486 l 568 486 b 586 506 582 486 586 493 b 358 700 586 635 496 700 l 304 700 b 72 506 164 700 72 644 b 304 307 72 369 151 324 l 336 304 b 501 193 436 292 501 278 b 360 82 501 111 444 82 l 303 82 b 169 174 218 82 178 111 b 150 192 167 185 163 192 l 86 192 b 68 171 72 192 68 183 b 301 -7 68 50 157 -7 z "},"ş":{"ha":669,"x_min":0,"x_max":0,"o":"m 390 -6 b 601 194 517 1 601 56 b 357 389 601 339 511 372 l 324 392 b 174 507 224 403 174 428 b 307 611 174 583 221 611 l 353 611 b 488 507 440 611 481 578 b 511 486 489 492 496 486 l 568 486 b 586 506 582 486 586 493 b 358 700 586 635 496 700 l 304 700 b 72 506 164 700 72 644 b 304 307 72 369 151 324 l 336 304 b 501 193 436 292 501 278 b 360 82 501 111 444 82 l 303 82 b 169 174 218 82 178 111 b 150 192 167 185 163 192 l 86 192 b 68 171 72 192 68 183 b 296 -7 68 51 154 -6 b 246 -82 260 -42 246 -60 b 301 -129 246 -114 271 -126 b 442 -174 406 -140 442 -143 b 379 -212 442 -206 424 -212 l 350 -212 b 288 -167 304 -212 289 -199 b 274 -156 288 -160 281 -156 l 218 -156 b 206 -171 208 -156 206 -161 b 326 -279 206 -239 235 -279 l 400 -279 b 525 -174 489 -279 525 -244 b 385 -71 525 -86 468 -81 b 390 -6 349 -67 328 -61 z "},"ŝ":{"ha":669,"x_min":0,"x_max":0,"o":"m 290 972 b 256 954 275 972 267 968 l 110 788 b 119 765 100 776 106 765 l 181 765 b 218 788 196 765 203 769 l 318 901 l 332 901 l 433 788 b 471 765 449 769 456 765 l 532 765 b 542 788 546 765 551 776 l 396 954 b 357 972 383 968 372 972 z m 301 -7 l 360 -7 b 601 194 503 -7 601 44 b 357 389 601 339 511 372 l 324 392 b 174 507 224 403 174 428 b 307 611 174 583 221 611 l 353 611 b 488 507 440 611 481 578 b 511 486 489 492 496 486 l 568 486 b 586 506 582 486 586 493 b 358 700 586 635 496 700 l 304 700 b 72 506 164 700 72 644 b 304 307 72 369 151 324 l 336 304 b 501 193 436 292 501 278 b 360 82 501 111 444 82 l 303 82 b 169 174 218 82 178 111 b 150 192 167 185 163 192 l 86 192 b 68 171 72 192 68 183 b 301 -7 68 50 157 -7 z "},"ș":{"ha":669,"x_min":0,"x_max":0,"o":"m 301 -7 l 360 -7 b 601 194 503 -7 601 44 b 357 389 601 339 511 372 l 324 392 b 174 507 224 403 174 428 b 307 611 174 583 221 611 l 353 611 b 488 507 440 611 481 578 b 511 486 489 492 496 486 l 568 486 b 586 506 582 486 586 493 b 358 700 586 635 496 700 l 304 700 b 72 506 164 700 72 644 b 304 307 72 369 151 324 l 336 304 b 501 193 436 292 501 278 b 360 82 501 111 444 82 l 303 82 b 169 174 218 82 178 111 b 150 192 167 185 163 192 l 86 192 b 68 171 72 192 68 183 b 301 -7 68 50 157 -7 z m 357 -83 l 303 -83 b 285 -103 289 -83 285 -89 l 285 -308 l 240 -308 b 221 -326 226 -308 221 -312 l 221 -375 b 240 -394 221 -389 226 -394 l 339 -394 b 375 -357 364 -394 375 -382 l 375 -103 b 357 -83 375 -89 371 -83 z "},"ß":{"ha":783,"x_min":0,"x_max":0,"o":"m 107 0 l 172 0 b 190 18 185 0 190 6 l 190 740 b 336 886 190 832 240 886 l 421 886 b 567 740 515 886 567 832 l 567 692 b 421 560 567 599 506 560 l 383 560 b 365 542 371 560 365 556 l 365 488 b 383 469 365 474 371 469 l 421 469 b 607 322 514 469 607 442 l 607 251 b 426 92 607 135 560 92 l 383 92 b 365 74 371 92 365 86 l 365 18 b 383 0 365 6 371 0 l 426 0 b 708 251 621 0 708 63 l 708 322 b 554 515 708 446 642 492 l 554 525 b 668 692 642 556 668 614 l 668 742 b 422 979 668 892 582 979 l 335 979 b 89 742 174 979 89 892 l 89 18 b 107 0 89 6 93 0 z "},"t":{"ha":443,"x_min":0,"x_max":0,"o":"m 364 694 l 258 694 l 258 826 b 240 843 258 838 253 843 l 175 843 b 157 826 163 843 157 838 l 157 694 l 65 694 b 47 676 53 694 47 690 l 47 621 b 65 603 47 608 53 603 l 157 603 l 157 178 b 313 -7 157 57 193 -7 b 374 22 360 -7 374 1 l 374 61 b 347 85 374 76 367 85 b 258 183 283 85 258 107 l 258 603 l 364 603 b 382 621 376 603 382 608 l 382 676 b 364 694 382 690 376 694 z "},"ŧ":{"ha":443,"x_min":0,"x_max":0,"o":"m 364 603 b 382 621 376 603 382 608 l 382 676 b 364 694 382 690 376 694 l 258 694 l 258 826 b 240 843 258 838 253 843 l 175 843 b 157 826 163 843 157 838 l 157 694 l 65 694 b 47 676 53 694 47 690 l 47 621 b 65 603 47 608 53 603 l 157 603 l 157 504 l 65 504 b 47 486 53 504 47 499 l 47 431 b 65 413 47 417 53 413 l 157 413 l 157 178 b 313 -7 157 57 193 -7 b 374 22 360 -7 374 1 l 374 61 b 347 85 374 76 367 85 b 258 183 283 85 258 107 l 258 413 l 364 413 b 382 431 376 413 382 417 l 382 486 b 364 504 382 499 376 504 l 258 504 l 258 603 z "},"ť":{"ha":411,"x_min":0,"x_max":0,"o":"m 440 1054 l 386 1054 b 368 1035 372 1054 368 1049 l 368 829 l 322 829 b 304 811 308 829 304 825 l 304 763 b 322 743 304 749 308 743 l 421 743 b 458 781 447 743 458 756 l 458 1035 b 440 1054 458 1049 454 1054 z m 364 694 l 258 694 l 258 826 b 240 843 258 838 253 843 l 175 843 b 157 826 163 843 157 838 l 157 694 l 65 694 b 47 676 53 694 47 690 l 47 621 b 65 603 47 608 53 603 l 157 603 l 157 178 b 313 -7 157 57 193 -7 b 374 22 360 -7 374 1 l 374 61 b 347 85 374 76 367 85 b 258 183 283 85 258 107 l 258 603 l 364 603 b 382 621 376 603 382 608 l 382 676 b 364 694 382 690 376 694 z "},"ţ":{"ha":417,"x_min":0,"x_max":0,"o":"m 314 -65 b 313 -7 279 -61 258 -57 b 374 22 360 -7 374 1 l 374 61 b 347 85 374 76 367 85 b 258 183 283 85 258 107 l 258 603 l 364 603 b 382 621 376 603 382 608 l 382 676 b 364 694 382 690 376 694 l 258 694 l 258 826 b 240 843 258 838 253 843 l 175 843 b 157 826 163 843 157 838 l 157 694 l 65 694 b 47 676 53 694 47 690 l 47 621 b 65 603 47 608 53 603 l 157 603 l 157 178 b 236 6 157 88 176 29 l 232 6 b 175 -76 190 -33 175 -53 b 231 -124 175 -108 200 -121 b 371 -168 335 -135 371 -137 b 308 -207 371 -200 353 -207 l 279 -207 b 217 -161 233 -207 218 -193 b 203 -150 217 -154 210 -150 l 147 -150 b 135 -165 138 -150 135 -156 b 256 -274 135 -233 164 -274 l 329 -274 b 454 -168 418 -274 454 -239 b 314 -65 454 -81 397 -75 z "},"ț":{"ha":443,"x_min":0,"x_max":0,"o":"m 364 694 l 258 694 l 258 826 b 240 843 258 838 253 843 l 175 843 b 157 826 163 843 157 838 l 157 694 l 65 694 b 47 676 53 694 47 690 l 47 621 b 65 603 47 608 53 603 l 157 603 l 157 178 b 313 -7 157 57 193 -7 b 374 22 360 -7 374 1 l 374 61 b 347 85 374 76 367 85 b 258 183 283 85 258 107 l 258 603 l 364 603 b 382 621 376 603 382 608 l 382 676 b 364 694 382 690 376 694 z m 283 -83 l 229 -83 b 211 -103 215 -83 211 -89 l 211 -308 l 167 -308 b 147 -326 153 -308 147 -312 l 147 -375 b 167 -394 147 -389 153 -394 l 265 -394 b 301 -357 290 -394 301 -382 l 301 -103 b 283 -83 301 -89 297 -83 z "},"u":{"ha":739,"x_min":0,"x_max":0,"o":"m 633 694 l 567 694 b 550 676 556 694 550 689 l 550 236 b 389 88 550 142 490 88 l 336 88 b 190 238 235 88 190 140 l 190 676 b 172 694 190 689 185 694 l 106 694 b 89 676 94 694 89 689 l 89 229 b 314 -6 89 75 156 -6 l 354 -6 b 535 78 436 -6 500 26 l 550 78 l 550 18 b 567 0 550 6 556 0 l 633 0 b 650 18 646 0 650 6 l 650 676 b 633 694 650 689 646 694 z "},"ú":{"ha":739,"x_min":0,"x_max":0,"o":"m 406 947 l 313 788 b 326 763 303 772 313 763 l 382 763 b 411 788 396 763 400 772 l 538 947 b 524 972 550 963 539 972 l 435 972 b 406 947 421 972 414 964 z m 633 694 l 567 694 b 550 676 556 694 550 689 l 550 236 b 389 88 550 142 490 88 l 336 88 b 190 238 235 88 190 140 l 190 676 b 172 694 190 689 185 694 l 106 694 b 89 676 94 694 89 689 l 89 229 b 314 -6 89 75 156 -6 l 354 -6 b 535 78 436 -6 500 26 l 550 78 l 550 18 b 567 0 550 6 556 0 l 633 0 b 650 18 646 0 650 6 l 650 676 b 633 694 650 689 646 694 z "},"ŭ":{"ha":739,"x_min":0,"x_max":0,"o":"m 322 779 l 383 779 b 553 956 497 779 553 838 b 533 972 553 968 547 972 l 486 972 b 467 956 472 972 467 968 b 375 854 465 897 438 854 l 331 854 b 239 956 268 854 240 897 b 219 972 238 968 233 972 l 172 972 b 153 956 158 972 153 968 b 322 779 153 838 210 779 z m 633 694 l 567 694 b 550 676 556 694 550 689 l 550 236 b 389 88 550 142 490 88 l 336 88 b 190 238 235 88 190 140 l 190 676 b 172 694 190 689 185 694 l 106 694 b 89 676 94 694 89 689 l 89 229 b 314 -6 89 75 156 -6 l 354 -6 b 535 78 436 -6 500 26 l 550 78 l 550 18 b 567 0 550 6 556 0 l 633 0 b 650 18 646 0 650 6 l 650 676 b 633 694 650 689 646 694 z "},"ǔ":{"ha":739,"x_min":0,"x_max":0,"o":"m 318 765 l 385 765 b 424 783 400 765 411 768 l 569 949 b 560 972 579 961 574 972 l 499 972 b 461 950 483 972 476 968 l 360 836 l 346 836 l 246 950 b 208 972 231 968 224 972 l 147 972 b 138 949 133 972 128 961 l 283 783 b 318 765 294 769 303 765 z m 633 694 l 567 694 b 550 676 556 694 550 689 l 550 236 b 389 88 550 142 490 88 l 336 88 b 190 238 235 88 190 140 l 190 676 b 172 694 190 689 185 694 l 106 694 b 89 676 94 694 89 689 l 89 229 b 314 -6 89 75 156 -6 l 354 -6 b 535 78 436 -6 500 26 l 550 78 l 550 18 b 567 0 550 6 556 0 l 633 0 b 650 18 646 0 650 6 l 650 676 b 633 694 650 689 646 694 z "},"û":{"ha":739,"x_min":0,"x_max":0,"o":"m 313 972 b 278 954 297 972 289 968 l 132 788 b 142 765 122 776 128 765 l 203 765 b 240 788 218 765 225 769 l 340 901 l 354 901 l 456 788 b 493 765 471 769 478 765 l 554 765 b 564 788 568 765 574 776 l 418 954 b 379 972 406 968 394 972 z m 633 694 l 567 694 b 550 676 556 694 550 689 l 550 236 b 389 88 550 142 490 88 l 336 88 b 190 238 235 88 190 140 l 190 676 b 172 694 190 689 185 694 l 106 694 b 89 676 94 694 89 689 l 89 229 b 314 -6 89 75 156 -6 l 354 -6 b 535 78 436 -6 500 26 l 550 78 l 550 18 b 567 0 550 6 556 0 l 633 0 b 650 18 646 0 650 6 l 650 676 b 633 694 650 689 646 694 z "},"ü":{"ha":739,"x_min":0,"x_max":0,"o":"m 125 863 l 197 863 b 215 882 211 863 215 868 l 215 954 b 197 972 215 968 211 972 l 125 972 b 106 954 111 972 106 968 l 106 882 b 125 863 106 868 111 863 z m 511 863 l 583 863 b 603 882 597 863 603 868 l 603 954 b 583 972 603 968 597 972 l 511 972 b 493 954 497 972 493 968 l 493 882 b 511 863 493 868 497 863 z m 633 694 l 567 694 b 550 676 556 694 550 689 l 550 236 b 389 88 550 142 490 88 l 336 88 b 190 238 235 88 190 140 l 190 676 b 172 694 190 689 185 694 l 106 694 b 89 676 94 694 89 689 l 89 229 b 314 -6 89 75 156 -6 l 354 -6 b 535 78 436 -6 500 26 l 550 78 l 550 18 b 567 0 550 6 556 0 l 633 0 b 650 18 646 0 650 6 l 650 676 b 633 694 650 689 646 694 z "},"ù":{"ha":739,"x_min":0,"x_max":0,"o":"m 304 947 b 275 972 296 964 289 972 l 186 972 b 172 947 171 972 160 963 l 299 788 b 328 763 310 772 314 763 l 383 763 b 397 788 397 763 407 772 z m 633 694 l 567 694 b 550 676 556 694 550 689 l 550 236 b 389 88 550 142 490 88 l 336 88 b 190 238 235 88 190 140 l 190 676 b 172 694 190 689 185 694 l 106 694 b 89 676 94 694 89 689 l 89 229 b 314 -6 89 75 156 -6 l 354 -6 b 535 78 436 -6 500 26 l 550 78 l 550 18 b 567 0 550 6 556 0 l 633 0 b 650 18 646 0 650 6 l 650 676 b 633 694 650 689 646 694 z "},"ű":{"ha":739,"x_min":0,"x_max":0,"o":"m 306 947 l 213 788 b 226 763 203 772 213 763 l 282 763 b 311 788 296 763 300 772 l 438 947 b 424 972 450 963 439 972 l 335 972 b 306 947 321 972 314 964 z m 504 947 l 413 788 b 426 763 403 772 411 763 l 481 763 b 511 788 494 763 499 772 l 636 947 b 622 972 649 963 638 972 l 533 972 b 504 947 519 972 514 964 z m 633 694 l 567 694 b 550 676 556 694 550 689 l 550 236 b 389 88 550 142 490 88 l 336 88 b 190 238 235 88 190 140 l 190 676 b 172 694 190 689 185 694 l 106 694 b 89 676 94 694 89 689 l 89 229 b 314 -6 89 75 156 -6 l 354 -6 b 535 78 436 -6 500 26 l 550 78 l 550 18 b 567 0 550 6 556 0 l 633 0 b 650 18 646 0 650 6 l 650 676 b 633 694 650 689 646 694 z "},"ū":{"ha":739,"x_min":0,"x_max":0,"o":"m 128 876 l 578 876 b 599 897 590 876 599 883 l 599 951 b 578 972 599 965 590 972 l 128 972 b 107 951 114 972 107 965 l 107 897 b 128 876 107 883 114 876 z m 633 694 l 567 694 b 550 676 556 694 550 689 l 550 236 b 389 88 550 142 490 88 l 336 88 b 190 238 235 88 190 140 l 190 676 b 172 694 190 689 185 694 l 106 694 b 89 676 94 694 89 689 l 89 229 b 314 -6 89 75 156 -6 l 354 -6 b 535 78 436 -6 500 26 l 550 78 l 550 18 b 567 0 550 6 556 0 l 633 0 b 650 18 646 0 650 6 l 650 676 b 633 694 650 689 646 694 z "},"ų":{"ha":739,"x_min":0,"x_max":0,"o":"m 633 694 l 567 694 b 550 676 556 694 550 689 l 550 236 b 389 88 550 142 490 88 l 336 88 b 190 238 235 88 190 140 l 190 676 b 172 694 190 689 185 694 l 106 694 b 89 676 94 694 89 689 l 89 229 b 314 -6 89 75 156 -6 l 354 -6 b 535 78 436 -6 500 26 l 550 78 l 550 28 l 524 28 l 524 -22 b 479 -62 524 -50 515 -60 l 421 -69 b 310 -172 338 -79 310 -89 b 438 -282 310 -257 338 -282 l 594 -282 b 608 -268 604 -282 608 -276 l 608 -225 b 594 -211 608 -215 603 -211 l 454 -211 b 403 -171 413 -211 403 -201 b 433 -136 403 -142 411 -137 l 553 -121 b 625 -39 606 -115 625 -100 l 625 0 l 633 0 b 650 18 646 0 650 6 l 650 676 b 633 694 650 689 646 694 z "},"ů":{"ha":739,"x_min":0,"x_max":0,"o":"m 361 994 l 343 994 b 226 878 275 994 226 943 l 226 863 b 343 747 226 797 275 747 l 361 747 b 478 863 429 747 478 797 l 478 878 b 361 994 478 943 429 994 z m 411 876 l 411 865 b 358 813 411 833 393 813 l 346 813 b 293 865 313 813 293 833 l 293 876 b 346 929 293 908 313 929 l 358 929 b 411 876 393 929 411 908 z m 633 694 l 567 694 b 550 676 556 694 550 689 l 550 236 b 389 88 550 142 490 88 l 336 88 b 190 238 235 88 190 140 l 190 676 b 172 694 190 689 185 694 l 106 694 b 89 676 94 694 89 689 l 89 229 b 314 -6 89 75 156 -6 l 354 -6 b 535 78 436 -6 500 26 l 550 78 l 550 18 b 567 0 550 6 556 0 l 633 0 b 650 18 646 0 650 6 l 650 676 b 633 694 650 689 646 694 z "},"ũ":{"ha":739,"x_min":0,"x_max":0,"o":"m 453 825 b 572 864 494 825 532 838 b 583 889 583 871 588 879 l 563 936 b 540 942 558 946 551 949 b 458 915 507 921 486 915 b 256 979 379 915 347 979 b 136 940 214 979 176 968 b 125 917 125 933 121 926 l 146 869 b 168 864 150 860 157 856 b 250 890 200 883 222 890 b 453 825 329 890 361 825 z m 633 694 l 567 694 b 550 676 556 694 550 689 l 550 236 b 389 88 550 142 490 88 l 336 88 b 190 238 235 88 190 140 l 190 676 b 172 694 190 689 185 694 l 106 694 b 89 676 94 694 89 689 l 89 229 b 314 -6 89 75 156 -6 l 354 -6 b 535 78 436 -6 500 26 l 550 78 l 550 18 b 567 0 550 6 556 0 l 633 0 b 650 18 646 0 650 6 l 650 676 b 633 694 650 689 646 694 z "},"v":{"ha":700,"x_min":0,"x_max":0,"o":"m 299 0 l 401 0 b 431 24 417 0 425 7 l 644 674 b 632 694 649 686 646 694 l 564 694 b 540 674 549 694 544 688 l 354 97 l 346 97 l 158 674 b 136 694 154 688 151 694 l 68 694 b 56 674 54 694 51 686 l 269 24 b 299 0 275 7 282 0 z "},"w":{"ha":1035,"x_min":0,"x_max":0,"o":"m 243 0 l 344 0 b 374 24 360 0 369 7 l 514 547 l 521 547 l 661 24 b 690 0 665 7 675 0 l 792 0 b 821 24 807 0 817 7 l 979 674 b 965 694 982 686 979 694 l 900 694 b 878 674 886 694 881 686 l 742 99 l 736 99 l 578 674 b 557 694 574 686 571 694 l 478 694 b 456 674 464 694 460 686 l 299 99 l 293 99 l 157 674 b 135 694 154 686 149 694 l 68 694 b 56 674 54 694 53 686 l 214 24 b 243 0 218 7 228 0 z "},"ẃ":{"ha":1035,"x_min":0,"x_max":0,"o":"m 569 947 l 476 788 b 490 763 467 772 476 763 l 546 763 b 575 788 560 763 564 772 l 701 947 b 688 972 714 963 703 972 l 599 972 b 569 947 585 972 578 964 z m 243 0 l 344 0 b 374 24 360 0 369 7 l 514 547 l 521 547 l 661 24 b 690 0 665 7 675 0 l 792 0 b 821 24 807 0 817 7 l 979 674 b 965 694 982 686 979 694 l 900 694 b 878 674 886 694 881 686 l 742 99 l 736 99 l 578 674 b 557 694 574 686 571 694 l 478 694 b 456 674 464 694 460 686 l 299 99 l 293 99 l 157 674 b 135 694 154 686 149 694 l 68 694 b 56 674 54 694 53 686 l 214 24 b 243 0 218 7 228 0 z "},"ŵ":{"ha":1035,"x_min":0,"x_max":0,"o":"m 476 972 b 442 954 461 972 453 968 l 296 788 b 306 765 286 776 292 765 l 367 765 b 404 788 382 765 389 769 l 504 901 l 518 901 l 619 788 b 657 765 635 769 642 765 l 718 765 b 728 788 732 765 738 776 l 582 954 b 543 972 569 968 558 972 z m 243 0 l 344 0 b 374 24 360 0 369 7 l 514 547 l 521 547 l 661 24 b 690 0 665 7 675 0 l 792 0 b 821 24 807 0 817 7 l 979 674 b 965 694 982 686 979 694 l 900 694 b 878 674 886 694 881 686 l 742 99 l 736 99 l 578 674 b 557 694 574 686 571 694 l 478 694 b 456 674 464 694 460 686 l 299 99 l 293 99 l 157 674 b 135 694 154 686 149 694 l 68 694 b 56 674 54 694 53 686 l 214 24 b 243 0 218 7 228 0 z "},"ẅ":{"ha":1035,"x_min":0,"x_max":0,"o":"m 289 863 l 361 863 b 379 882 375 863 379 868 l 379 954 b 361 972 379 968 375 972 l 289 972 b 269 954 275 972 269 968 l 269 882 b 289 863 269 868 275 863 z m 675 863 l 747 863 b 767 882 761 863 767 868 l 767 954 b 747 972 767 968 761 972 l 675 972 b 657 954 661 972 657 968 l 657 882 b 675 863 657 868 661 863 z m 243 0 l 344 0 b 374 24 360 0 369 7 l 514 547 l 521 547 l 661 24 b 690 0 665 7 675 0 l 792 0 b 821 24 807 0 817 7 l 979 674 b 965 694 982 686 979 694 l 900 694 b 878 674 886 694 881 686 l 742 99 l 736 99 l 578 674 b 557 694 574 686 571 694 l 478 694 b 456 674 464 694 460 686 l 299 99 l 293 99 l 157 674 b 135 694 154 686 149 694 l 68 694 b 56 674 54 694 53 686 l 214 24 b 243 0 218 7 228 0 z "},"ẁ":{"ha":1035,"x_min":0,"x_max":0,"o":"m 468 947 b 439 972 460 964 453 972 l 350 972 b 336 947 335 972 324 963 l 463 788 b 492 763 474 772 478 763 l 547 763 b 561 788 561 763 571 772 z m 243 0 l 344 0 b 374 24 360 0 369 7 l 514 547 l 521 547 l 661 24 b 690 0 665 7 675 0 l 792 0 b 821 24 807 0 817 7 l 979 674 b 965 694 982 686 979 694 l 900 694 b 878 674 886 694 881 686 l 742 99 l 736 99 l 578 674 b 557 694 574 686 571 694 l 478 694 b 456 674 464 694 460 686 l 299 99 l 293 99 l 157 674 b 135 694 154 686 149 694 l 68 694 b 56 674 54 694 53 686 l 214 24 b 243 0 218 7 228 0 z "},"x":{"ha":633,"x_min":0,"x_max":0,"o":"m 72 0 l 138 0 b 167 21 149 0 157 4 l 311 268 l 322 268 l 467 21 b 494 0 476 4 483 0 l 561 0 b 576 22 579 0 583 11 l 379 350 l 572 672 b 560 694 579 685 576 694 l 492 694 b 463 674 479 694 472 690 l 322 433 l 311 433 l 171 674 b 142 694 161 690 154 694 l 74 694 b 61 672 57 694 54 685 l 254 350 l 57 22 b 72 0 50 11 54 0 z "},"y":{"ha":733,"x_min":0,"x_max":0,"o":"m 665 694 l 596 694 b 572 672 582 694 578 688 l 371 119 l 363 119 l 160 672 b 138 694 154 688 151 694 l 68 694 b 56 674 54 694 51 686 l 315 -14 l 235 -225 b 249 -246 231 -236 235 -246 l 315 -246 b 338 -225 331 -246 333 -236 l 678 674 b 665 694 683 686 679 694 z "},"ý":{"ha":733,"x_min":0,"x_max":0,"o":"m 418 947 l 325 788 b 339 763 315 772 325 763 l 394 763 b 424 788 408 763 413 772 l 550 947 b 536 972 563 963 551 972 l 447 972 b 418 947 433 972 426 964 z m 665 694 l 596 694 b 572 672 582 694 578 688 l 371 119 l 363 119 l 160 672 b 138 694 154 688 151 694 l 68 694 b 56 674 54 694 51 686 l 315 -14 l 235 -225 b 249 -246 231 -236 235 -246 l 315 -246 b 338 -225 331 -246 333 -236 l 678 674 b 665 694 683 686 679 694 z "},"ŷ":{"ha":733,"x_min":0,"x_max":0,"o":"m 325 972 b 290 954 310 972 301 968 l 144 788 b 154 765 135 776 140 765 l 215 765 b 253 788 231 765 238 769 l 353 901 l 367 901 l 468 788 b 506 765 483 769 490 765 l 567 765 b 576 788 581 765 586 776 l 431 954 b 392 972 418 968 407 972 z m 665 694 l 596 694 b 572 672 582 694 578 688 l 371 119 l 363 119 l 160 672 b 138 694 154 688 151 694 l 68 694 b 56 674 54 694 51 686 l 315 -14 l 235 -225 b 249 -246 231 -236 235 -246 l 315 -246 b 338 -225 331 -246 333 -236 l 678 674 b 665 694 683 686 679 694 z "},"ÿ":{"ha":733,"x_min":0,"x_max":0,"o":"m 138 863 l 210 863 b 228 882 224 863 228 868 l 228 954 b 210 972 228 968 224 972 l 138 972 b 118 954 124 972 118 968 l 118 882 b 138 863 118 868 124 863 z m 524 863 l 596 863 b 615 882 610 863 615 868 l 615 954 b 596 972 615 968 610 972 l 524 972 b 506 954 510 972 506 968 l 506 882 b 524 863 506 868 510 863 z m 665 694 l 596 694 b 572 672 582 694 578 688 l 371 119 l 363 119 l 160 672 b 138 694 154 688 151 694 l 68 694 b 56 674 54 694 51 686 l 315 -14 l 235 -225 b 249 -246 231 -236 235 -246 l 315 -246 b 338 -225 331 -246 333 -236 l 678 674 b 665 694 683 686 679 694 z "},"ỳ":{"ha":733,"x_min":0,"x_max":0,"o":"m 318 947 b 289 972 310 964 303 972 l 200 972 b 186 947 185 972 174 963 l 313 788 b 342 763 324 772 328 763 l 397 763 b 411 788 411 763 421 772 z m 665 694 l 596 694 b 572 672 582 694 578 688 l 371 119 l 363 119 l 160 672 b 138 694 154 688 151 694 l 68 694 b 56 674 54 694 51 686 l 315 -14 l 235 -225 b 249 -246 231 -236 235 -246 l 315 -246 b 338 -225 331 -246 333 -236 l 678 674 b 665 694 683 686 679 694 z "},"z":{"ha":592,"x_min":0,"x_max":0,"o":"m 72 0 l 514 0 b 532 18 525 0 532 6 l 532 74 b 514 92 532 86 525 92 l 167 92 l 167 100 l 525 588 b 532 607 529 593 532 603 l 532 676 b 514 694 532 690 525 694 l 86 694 b 68 676 74 694 68 690 l 68 621 b 86 603 68 608 74 603 l 421 603 l 421 594 l 61 104 b 54 83 56 97 54 92 l 54 18 b 72 0 54 6 60 0 z "},"ź":{"ha":592,"x_min":0,"x_max":0,"o":"m 354 947 l 261 788 b 275 763 251 772 261 763 l 331 763 b 360 788 344 763 349 772 l 486 947 b 472 972 499 963 488 972 l 383 972 b 354 947 369 972 363 964 z m 72 0 l 514 0 b 532 18 525 0 532 6 l 532 74 b 514 92 532 86 525 92 l 167 92 l 167 100 l 525 588 b 532 607 529 593 532 603 l 532 676 b 514 694 532 690 525 694 l 86 694 b 68 676 74 694 68 690 l 68 621 b 86 603 68 608 74 603 l 421 603 l 421 594 l 61 104 b 54 83 56 97 54 92 l 54 18 b 72 0 54 6 60 0 z "},"ž":{"ha":592,"x_min":0,"x_max":0,"o":"m 267 765 l 333 765 b 372 783 349 765 360 768 l 518 949 b 508 972 528 961 522 972 l 447 972 b 410 950 432 972 425 968 l 308 836 l 294 836 l 194 950 b 157 972 179 968 172 972 l 96 972 b 86 949 82 972 76 961 l 232 783 b 267 765 243 769 251 765 z m 72 0 l 514 0 b 532 18 525 0 532 6 l 532 74 b 514 92 532 86 525 92 l 167 92 l 167 100 l 525 588 b 532 607 529 593 532 603 l 532 676 b 514 694 532 690 525 694 l 86 694 b 68 676 74 694 68 690 l 68 621 b 86 603 68 608 74 603 l 421 603 l 421 594 l 61 104 b 54 83 56 97 54 92 l 54 18 b 72 0 54 6 60 0 z "},"ż":{"ha":592,"x_min":0,"x_max":0,"o":"m 265 863 l 338 863 b 356 882 351 863 356 868 l 356 954 b 338 972 356 968 351 972 l 265 972 b 246 954 251 972 246 968 l 246 882 b 265 863 246 868 251 863 z m 72 0 l 514 0 b 532 18 525 0 532 6 l 532 74 b 514 92 532 86 525 92 l 167 92 l 167 100 l 525 588 b 532 607 529 593 532 603 l 532 676 b 514 694 532 690 525 694 l 86 694 b 68 676 74 694 68 690 l 68 621 b 86 603 68 608 74 603 l 421 603 l 421 594 l 61 104 b 54 83 56 97 54 92 l 54 18 b 72 0 54 6 60 0 z "},"ﬁ":{"ha":696,"x_min":0,"x_max":0,"o":"m 590 694 l 253 694 l 253 747 b 369 879 253 833 286 879 l 431 879 b 451 900 444 879 451 886 l 451 951 b 431 972 451 965 444 972 l 357 972 b 151 756 217 972 151 899 l 151 694 l 72 694 b 54 676 60 694 54 690 l 54 621 b 72 603 54 608 60 603 l 151 603 l 151 18 b 169 0 151 6 157 0 l 235 0 b 253 18 249 0 253 6 l 253 603 l 507 603 l 507 18 b 525 0 507 6 511 0 l 590 0 b 608 18 603 0 608 6 l 608 676 b 590 694 608 689 603 694 z "},"ﬂ":{"ha":740,"x_min":0,"x_max":0,"o":"m 633 972 l 357 972 b 151 756 217 972 151 899 l 151 694 l 72 694 b 54 676 60 694 54 690 l 54 621 b 72 603 54 608 60 603 l 151 603 l 151 18 b 169 0 151 6 157 0 l 235 0 b 253 18 249 0 253 6 l 253 603 l 428 603 b 446 621 440 603 446 608 l 446 676 b 428 694 446 690 440 694 l 253 694 l 253 747 b 369 879 253 833 286 879 l 550 879 l 550 18 b 568 0 550 6 556 0 l 633 0 b 651 18 646 0 651 6 l 651 954 b 633 972 651 967 646 972 z "},"ª":{"ha":442,"x_min":0,"x_max":0,"o":"m 247 979 l 224 979 b 101 949 171 979 136 967 b 94 928 93 944 90 936 l 107 900 b 128 896 111 892 118 892 b 219 915 157 908 182 915 l 242 915 b 310 840 288 915 310 896 l 193 840 b 69 732 110 840 69 803 b 193 624 69 660 113 624 l 213 624 b 310 664 253 624 285 642 l 310 639 b 321 624 310 629 313 624 l 361 624 b 372 639 369 624 372 629 l 372 840 b 247 979 372 931 325 979 z m 219 689 l 199 689 b 135 732 157 689 135 699 b 199 778 135 764 157 778 l 310 778 l 310 715 b 219 689 289 699 264 689 z "},"º":{"ha":467,"x_min":0,"x_max":0,"o":"m 257 979 l 211 979 b 69 836 128 979 69 915 l 69 768 b 211 624 69 686 128 624 l 257 624 b 397 768 338 624 397 686 l 397 836 b 257 979 397 915 338 979 z m 332 835 l 332 769 b 256 689 332 724 299 689 l 213 689 b 136 769 165 689 136 724 l 136 835 b 213 914 136 882 165 914 l 256 914 b 332 835 299 914 332 882 z "},"А":{"ha":828,"x_min":0,"x_max":0,"o":"m 772 24 l 501 950 b 476 972 497 964 489 972 l 353 972 b 326 950 340 972 331 964 l 56 24 b 71 0 51 8 58 0 l 138 0 b 163 24 151 0 158 8 l 213 196 l 615 196 l 665 24 b 690 0 669 8 676 0 l 757 0 b 772 24 769 0 776 8 z m 240 288 l 407 856 l 422 856 l 588 288 z "},"Б":{"ha":810,"x_min":0,"x_max":0,"o":"m 450 689 l 200 689 l 200 876 l 518 876 b 539 896 532 876 539 882 l 539 954 b 518 972 539 968 532 972 l 114 972 b 96 954 100 972 96 968 l 96 19 b 114 0 96 6 100 0 l 450 0 b 735 275 649 0 735 90 l 735 414 b 450 689 735 599 649 689 z m 631 278 b 446 96 631 147 574 96 l 200 96 l 200 593 l 446 593 b 631 411 574 593 631 543 z "},"В":{"ha":819,"x_min":0,"x_max":0,"o":"m 606 511 l 606 519 b 711 726 686 556 711 622 b 469 972 711 901 639 972 l 114 972 b 96 954 100 972 96 968 l 96 19 b 114 0 96 6 100 0 l 469 0 b 744 257 647 0 744 68 l 744 300 b 606 511 744 415 697 481 z m 607 726 l 607 703 b 461 549 607 590 563 549 l 200 549 l 200 876 l 461 876 b 607 726 565 876 607 839 z m 640 260 b 467 96 640 135 586 96 l 200 96 l 200 461 l 467 461 b 640 300 586 461 640 428 z "},"Г":{"ha":672,"x_min":0,"x_max":0,"o":"m 597 972 l 114 972 b 96 954 100 972 96 968 l 96 19 b 114 0 96 6 100 0 l 181 0 b 200 19 194 0 200 6 l 200 876 l 597 876 b 617 896 611 876 617 882 l 617 954 b 597 972 617 968 611 972 z "},"Ѓ":{"ha":672,"x_min":0,"x_max":0,"o":"m 325 1040 l 381 1040 b 410 1065 394 1040 399 1050 l 536 1225 b 522 1250 549 1240 538 1250 l 433 1250 b 404 1225 419 1250 413 1242 l 311 1065 b 325 1040 301 1050 311 1040 z m 597 972 l 114 972 b 96 954 100 972 96 968 l 96 19 b 114 0 96 6 100 0 l 181 0 b 200 19 194 0 200 6 l 200 876 l 597 876 b 617 896 611 876 617 882 l 617 954 b 597 972 617 968 611 972 z "},"Ґ":{"ha":672,"x_min":0,"x_max":0,"o":"m 597 1069 l 531 1069 b 513 1051 517 1069 513 1065 l 513 972 l 114 972 b 96 954 100 972 96 968 l 96 19 b 114 0 96 6 100 0 l 181 0 b 200 19 194 0 200 6 l 200 876 l 597 876 b 617 896 611 876 617 882 l 617 1051 b 597 1069 617 1065 611 1069 z "},"Д":{"ha":935,"x_min":0,"x_max":0,"o":"m 886 96 l 822 96 l 822 951 b 801 972 822 965 815 972 l 210 972 b 189 951 196 972 189 965 l 189 407 b 74 96 189 168 126 96 l 49 96 b 28 75 35 96 28 89 l 28 -117 b 47 -135 28 -131 33 -135 l 114 -135 b 132 -117 128 -135 132 -131 l 132 0 l 803 0 l 803 -117 b 821 -135 803 -131 807 -135 l 888 -135 b 907 -117 901 -135 907 -131 l 907 75 b 886 96 907 89 900 96 z m 224 96 b 293 407 269 146 293 239 l 293 876 l 718 876 l 718 96 z "},"Е":{"ha":726,"x_min":0,"x_max":0,"o":"m 115 0 l 653 0 b 672 19 667 0 672 6 l 672 78 b 653 96 672 92 667 96 l 200 96 l 200 442 l 611 442 b 631 461 625 442 631 447 l 631 517 b 611 535 631 531 625 535 l 200 535 l 200 876 l 649 876 b 668 896 663 876 668 882 l 668 954 b 649 972 668 968 663 972 l 115 972 b 96 954 101 972 96 968 l 96 19 b 115 0 96 6 101 0 z "},"Ё":{"ha":726,"x_min":0,"x_max":0,"o":"m 157 1140 l 229 1140 b 247 1160 243 1140 247 1146 l 247 1232 b 229 1250 247 1246 243 1250 l 157 1250 b 138 1232 143 1250 138 1246 l 138 1160 b 157 1140 138 1146 143 1140 z m 543 1140 l 615 1140 b 635 1160 629 1140 635 1146 l 635 1232 b 615 1250 635 1246 629 1250 l 543 1250 b 525 1232 529 1250 525 1246 l 525 1160 b 543 1140 525 1146 529 1140 z m 115 0 l 653 0 b 672 19 667 0 672 6 l 672 78 b 653 96 672 92 667 96 l 200 96 l 200 442 l 611 442 b 631 461 625 442 631 447 l 631 517 b 611 535 631 531 625 535 l 200 535 l 200 876 l 649 876 b 668 896 663 876 668 882 l 668 954 b 649 972 668 968 663 972 l 115 972 b 96 954 101 972 96 968 l 96 19 b 115 0 96 6 101 0 z "},"Ж":{"ha":1299,"x_min":0,"x_max":0,"o":"m 1240 28 l 871 525 l 1211 942 b 1204 972 1225 958 1221 972 l 1125 972 b 1094 953 1111 972 1104 965 l 701 464 l 701 954 b 683 972 701 968 697 972 l 617 972 b 597 954 603 972 597 968 l 597 465 l 204 953 b 175 972 194 965 188 972 l 96 972 b 88 942 79 972 74 958 l 429 525 l 58 28 b 69 0 50 17 51 0 l 143 0 b 179 19 158 0 168 6 l 494 443 l 597 319 l 597 19 b 617 0 597 6 603 0 l 683 0 b 701 19 697 0 701 6 l 701 317 l 804 443 l 1119 19 b 1156 0 1131 6 1140 0 l 1231 0 b 1240 28 1247 0 1249 17 z "},"З":{"ha":783,"x_min":0,"x_max":0,"o":"m 544 500 l 544 511 b 696 718 647 540 696 588 b 424 979 696 888 611 979 l 369 979 b 86 728 193 979 86 903 l 86 706 b 104 688 86 693 90 688 l 169 688 b 188 706 182 688 188 693 b 371 886 188 838 249 886 l 419 886 b 596 718 540 886 596 832 b 393 551 596 604 544 551 l 319 551 b 301 533 307 551 301 547 l 301 478 b 319 460 301 465 307 460 l 393 460 b 617 261 544 460 617 410 b 438 88 617 146 560 88 l 360 88 b 176 268 238 88 176 135 b 158 285 176 279 171 285 l 93 285 b 75 268 79 285 75 279 l 75 246 b 358 -7 75 69 182 -7 l 442 -7 b 718 261 628 -7 718 92 b 544 500 718 429 647 475 z "},"И":{"ha":851,"x_min":0,"x_max":0,"o":"m 738 0 b 756 19 751 0 756 6 l 756 954 b 738 972 756 968 751 972 l 607 972 b 582 957 596 972 588 968 l 213 126 l 200 126 l 200 954 b 182 972 200 968 196 972 l 115 972 b 96 954 101 972 96 968 l 96 19 b 115 0 96 6 101 0 l 244 0 b 269 15 256 0 265 4 l 640 847 l 651 847 l 651 19 b 671 0 651 6 657 0 z "},"Й":{"ha":851,"x_min":0,"x_max":0,"o":"m 393 1057 l 454 1057 b 624 1233 568 1057 624 1115 b 604 1250 624 1246 618 1250 l 557 1250 b 538 1233 543 1250 538 1246 b 446 1132 536 1175 508 1132 l 401 1132 b 310 1233 339 1132 311 1175 b 290 1250 308 1246 304 1250 l 243 1250 b 224 1233 229 1250 224 1246 b 393 1057 224 1115 281 1057 z m 738 0 b 756 19 751 0 756 6 l 756 954 b 738 972 756 968 751 972 l 607 972 b 582 957 596 972 588 968 l 213 126 l 200 126 l 200 954 b 182 972 200 968 196 972 l 115 972 b 96 954 101 972 96 968 l 96 19 b 115 0 96 6 101 0 l 244 0 b 269 15 256 0 265 4 l 640 847 l 651 847 l 651 19 b 671 0 651 6 657 0 z "},"Ѝ":{"ha":851,"x_min":0,"x_max":0,"o":"m 375 1225 b 346 1250 367 1242 360 1250 l 257 1250 b 243 1225 242 1250 231 1240 l 369 1065 b 399 1040 381 1050 385 1040 l 454 1040 b 468 1065 468 1040 478 1050 z m 738 0 b 756 19 751 0 756 6 l 756 954 b 738 972 756 968 751 972 l 607 972 b 582 957 596 972 588 968 l 213 126 l 200 126 l 200 954 b 182 972 200 968 196 972 l 115 972 b 96 954 101 972 96 968 l 96 19 b 115 0 96 6 101 0 l 244 0 b 269 15 256 0 265 4 l 640 847 l 651 847 l 651 19 b 671 0 651 6 657 0 z "},"К":{"ha":797,"x_min":0,"x_max":0,"o":"m 739 28 l 368 525 l 710 942 b 701 972 724 958 718 972 l 622 972 b 593 953 610 972 603 965 l 200 465 l 200 954 b 181 972 200 968 194 972 l 114 972 b 96 954 100 972 96 968 l 96 19 b 114 0 96 6 100 0 l 181 0 b 200 19 194 0 200 6 l 200 319 l 303 443 l 618 19 b 654 0 629 6 639 0 l 728 0 b 739 28 746 0 747 17 z "},"Ќ":{"ha":797,"x_min":0,"x_max":0,"o":"m 360 1040 l 415 1040 b 444 1065 429 1040 433 1050 l 571 1225 b 557 1250 583 1240 572 1250 l 468 1250 b 439 1225 454 1250 447 1242 l 346 1065 b 360 1040 336 1050 346 1040 z m 739 28 l 368 525 l 710 942 b 701 972 724 958 718 972 l 622 972 b 593 953 610 972 603 965 l 200 465 l 200 954 b 181 972 200 968 194 972 l 114 972 b 96 954 100 972 96 968 l 96 19 b 114 0 96 6 100 0 l 181 0 b 200 19 194 0 200 6 l 200 319 l 303 443 l 618 19 b 654 0 629 6 639 0 l 728 0 b 739 28 746 0 747 17 z "},"Л":{"ha":894,"x_min":0,"x_max":0,"o":"m 778 972 l 181 972 b 160 951 167 972 160 965 l 160 206 b 61 100 160 121 110 100 b 42 82 51 100 42 96 l 42 15 b 61 -6 42 1 47 -6 l 93 -6 b 264 181 183 -6 264 46 l 264 876 l 694 876 l 694 19 b 714 0 694 6 700 0 l 781 0 b 799 19 794 0 799 6 l 799 951 b 778 972 799 965 792 972 z "},"М":{"ha":1029,"x_min":0,"x_max":0,"o":"m 114 0 l 181 0 b 200 19 194 0 200 6 l 200 847 l 211 847 l 440 21 b 467 0 444 7 454 0 l 563 0 b 589 21 575 0 586 7 l 818 847 l 829 847 l 829 19 b 849 0 829 6 835 0 l 915 0 b 933 19 929 0 933 6 l 933 954 b 915 972 933 968 929 972 l 775 972 b 750 951 761 972 754 965 l 519 119 l 510 119 l 279 951 b 254 972 276 965 268 972 l 114 972 b 96 954 100 972 96 968 l 96 19 b 114 0 96 6 100 0 z "},"Н":{"ha":854,"x_min":0,"x_max":0,"o":"m 740 972 l 674 972 b 654 954 660 972 654 968 l 654 535 l 200 535 l 200 954 b 182 972 200 968 196 972 l 114 972 b 96 954 100 972 96 968 l 96 19 b 114 0 96 6 100 0 l 182 0 b 200 19 196 0 200 6 l 200 442 l 654 442 l 654 19 b 674 0 654 6 660 0 l 740 0 b 758 19 754 0 758 6 l 758 954 b 740 972 758 968 754 972 z "},"О":{"ha":875,"x_min":0,"x_max":0,"o":"m 386 -7 l 489 -7 b 779 274 686 -7 779 92 l 779 699 b 489 979 779 882 686 979 l 386 979 b 96 699 188 979 96 882 l 96 274 b 386 -7 96 92 188 -7 z m 390 89 b 200 276 261 89 200 144 l 200 697 b 390 883 200 828 261 883 l 485 883 b 675 697 614 883 675 828 l 675 276 b 485 89 675 144 614 89 z "},"П":{"ha":831,"x_min":0,"x_max":0,"o":"m 114 0 l 181 0 b 200 19 194 0 200 6 l 200 876 l 631 876 l 631 19 b 649 0 631 6 635 0 l 715 0 b 735 19 729 0 735 6 l 735 951 b 714 972 735 965 728 972 l 117 972 b 96 951 103 972 96 965 l 96 19 b 114 0 96 6 100 0 z "},"Р":{"ha":817,"x_min":0,"x_max":0,"o":"m 450 972 l 114 972 b 96 954 100 972 96 968 l 96 19 b 114 0 96 6 100 0 l 181 0 b 200 19 194 0 200 6 l 200 283 l 450 283 b 735 560 649 283 735 375 l 735 697 b 450 972 735 882 649 972 z m 631 561 b 446 379 631 431 574 379 l 200 379 l 200 876 l 446 876 b 631 694 574 876 631 826 z "},"С":{"ha":849,"x_min":0,"x_max":0,"o":"m 386 -7 l 481 -7 b 768 254 679 -7 768 85 l 768 261 b 751 276 768 269 761 276 l 679 276 b 664 261 669 276 664 271 b 476 89 664 138 599 89 l 390 89 b 200 276 261 89 200 144 l 200 697 b 390 883 200 828 261 883 l 476 883 b 664 701 599 883 664 833 b 679 686 664 692 669 686 l 751 686 b 768 701 761 686 768 692 l 768 707 b 481 979 768 886 679 979 l 386 979 b 96 699 189 979 96 882 l 96 274 b 386 -7 96 92 189 -7 z "},"Т":{"ha":740,"x_min":0,"x_max":0,"o":"m 653 972 l 88 972 b 68 954 74 972 68 968 l 68 896 b 88 876 68 882 74 876 l 319 876 l 319 19 b 338 0 319 6 324 0 l 404 0 b 424 19 418 0 424 6 l 424 876 l 653 876 b 672 896 667 876 672 882 l 672 954 b 653 972 672 968 667 972 z "},"У":{"ha":797,"x_min":0,"x_max":0,"o":"m 729 972 l 654 972 b 628 953 640 972 635 967 l 397 453 l 169 953 b 143 972 163 967 157 972 l 68 972 b 57 950 54 972 50 965 l 342 332 l 200 22 b 211 0 192 7 197 0 l 286 0 b 311 19 300 0 304 6 l 740 950 b 729 972 747 965 743 972 z "},"Ў":{"ha":797,"x_min":0,"x_max":0,"o":"m 375 1057 l 436 1057 b 606 1233 550 1057 606 1115 b 586 1250 606 1246 600 1250 l 539 1250 b 519 1233 525 1250 519 1246 b 428 1132 518 1175 490 1132 l 383 1132 b 292 1233 321 1132 293 1175 b 272 1250 290 1246 286 1250 l 225 1250 b 206 1233 211 1250 206 1246 b 375 1057 206 1115 263 1057 z m 729 972 l 654 972 b 628 953 640 972 635 967 l 397 453 l 169 953 b 143 972 163 967 157 972 l 68 972 b 57 950 54 972 50 965 l 342 332 l 200 22 b 211 0 192 7 197 0 l 286 0 b 311 19 300 0 304 6 l 740 950 b 729 972 747 965 743 972 z "},"Ф":{"ha":965,"x_min":0,"x_max":0,"o":"m 579 840 l 536 840 l 536 954 b 517 972 536 968 531 972 l 450 972 b 432 954 436 972 432 968 l 432 840 l 386 840 b 96 560 188 840 96 743 l 96 413 b 386 132 96 231 188 132 l 432 132 l 432 19 b 450 0 432 6 436 0 l 517 0 b 536 19 531 0 536 6 l 536 132 l 579 132 b 869 413 776 132 869 231 l 869 560 b 579 840 869 743 776 840 z m 390 228 b 200 415 261 228 200 283 l 200 558 b 390 744 200 689 261 744 l 432 744 l 432 228 z m 765 415 b 575 228 765 283 704 228 l 536 228 l 536 744 l 575 744 b 765 558 704 744 765 689 z "},"Х":{"ha":786,"x_min":0,"x_max":0,"o":"m 82 0 l 157 0 b 185 19 172 0 176 6 l 389 388 l 399 388 l 603 19 b 629 0 611 6 615 0 l 704 0 b 714 21 718 0 722 7 l 451 486 l 713 951 b 703 972 721 967 717 972 l 628 972 b 601 953 614 972 608 967 l 399 585 l 389 585 l 186 953 b 160 972 178 967 174 972 l 83 972 b 74 951 71 972 65 967 l 336 486 l 72 21 b 82 0 64 7 69 0 z "},"Ч":{"ha":806,"x_min":0,"x_max":0,"o":"m 625 0 l 692 0 b 710 19 706 0 710 6 l 710 954 b 692 972 710 968 706 972 l 625 972 b 606 954 611 972 606 968 l 606 497 b 447 364 606 415 549 364 l 314 364 b 174 497 213 364 174 414 l 174 954 b 156 972 174 968 169 972 l 89 972 b 69 954 75 972 69 968 l 69 493 b 311 271 69 354 140 271 l 408 271 b 606 358 492 271 578 306 l 606 19 b 625 0 606 6 611 0 z "},"Ц":{"ha":836,"x_min":0,"x_max":0,"o":"m 788 96 l 735 96 l 735 954 b 715 972 735 968 729 972 l 649 972 b 631 954 635 972 631 968 l 631 96 l 200 96 l 200 954 b 181 972 200 968 194 972 l 114 972 b 96 954 100 972 96 968 l 96 21 b 117 0 96 7 103 0 l 704 0 l 704 -117 b 722 -135 704 -131 708 -135 l 789 -135 b 808 -117 803 -135 808 -131 l 808 75 b 788 96 808 89 801 96 z "},"Ш":{"ha":1226,"x_min":0,"x_max":0,"o":"m 117 0 l 1110 0 b 1131 21 1124 0 1131 7 l 1131 954 b 1111 972 1131 968 1125 972 l 1044 972 b 1026 954 1031 972 1026 968 l 1026 96 l 665 96 l 665 954 b 646 972 665 968 660 972 l 579 972 b 561 954 565 972 561 968 l 561 96 l 200 96 l 200 954 b 181 972 200 968 194 972 l 114 972 b 96 954 100 972 96 968 l 96 21 b 117 0 96 7 103 0 z "},"Щ":{"ha":1232,"x_min":0,"x_max":0,"o":"m 1183 96 l 1131 96 l 1131 954 b 1111 972 1131 968 1125 972 l 1044 972 b 1026 954 1031 972 1026 968 l 1026 96 l 665 96 l 665 954 b 646 972 665 968 660 972 l 579 972 b 561 954 565 972 561 968 l 561 96 l 200 96 l 200 954 b 181 972 200 968 194 972 l 114 972 b 96 954 100 972 96 968 l 96 21 b 117 0 96 7 103 0 l 1100 0 l 1100 -117 b 1118 -135 1100 -131 1104 -135 l 1185 -135 b 1204 -117 1199 -135 1204 -131 l 1204 75 b 1183 96 1204 89 1197 96 z "},"Ь":{"ha":817,"x_min":0,"x_max":0,"o":"m 450 689 l 200 689 l 200 954 b 181 972 200 968 194 972 l 114 972 b 96 954 100 972 96 968 l 96 19 b 114 0 96 6 100 0 l 450 0 b 735 275 649 0 735 90 l 735 414 b 450 689 735 599 649 689 z m 631 278 b 446 96 631 147 574 96 l 200 96 l 200 593 l 446 593 b 631 411 574 593 631 543 z "},"Ъ":{"ha":942,"x_min":0,"x_max":0,"o":"m 561 689 l 311 689 l 311 954 b 293 972 311 968 307 972 l 88 972 b 68 954 74 972 68 968 l 68 896 b 88 876 68 882 74 876 l 207 876 l 207 19 b 226 0 207 6 213 0 l 561 0 b 846 275 761 0 846 90 l 846 414 b 561 689 846 599 761 689 z m 742 278 b 557 96 742 147 686 96 l 311 96 l 311 593 l 557 593 b 742 411 686 593 742 543 z "},"Ы":{"ha":1113,"x_min":0,"x_max":0,"o":"m 450 689 l 200 689 l 200 954 b 181 972 200 968 194 972 l 114 972 b 96 954 100 972 96 968 l 96 19 b 114 0 96 6 100 0 l 450 0 b 735 275 649 0 735 90 l 735 414 b 450 689 735 599 649 689 z m 997 972 l 931 972 b 913 954 917 972 913 968 l 913 19 b 931 0 913 6 917 0 l 997 0 b 1017 19 1011 0 1017 6 l 1017 954 b 997 972 1017 968 1011 972 z m 631 278 b 446 96 631 147 574 96 l 200 96 l 200 593 l 446 593 b 631 411 574 593 631 543 z "},"Є":{"ha":849,"x_min":0,"x_max":0,"o":"m 390 883 l 476 883 b 664 701 599 883 664 833 b 679 686 664 692 669 686 l 751 686 b 768 701 761 686 768 692 l 768 707 b 481 979 768 886 679 979 l 386 979 b 96 699 189 979 96 882 l 96 274 b 386 -7 96 92 189 -7 l 481 -7 b 768 254 679 -7 768 85 l 768 261 b 751 276 768 269 761 276 l 679 276 b 664 261 669 276 664 271 b 476 89 664 138 599 89 l 390 89 b 200 276 261 89 200 144 l 200 439 l 393 439 b 413 457 407 439 413 443 l 413 515 b 393 535 413 529 407 535 l 200 535 l 200 697 b 390 883 200 828 261 883 z "},"Э":{"ha":850,"x_min":0,"x_max":0,"o":"m 464 979 l 369 979 b 82 707 169 979 82 886 l 82 701 b 97 686 82 692 88 686 l 171 686 b 186 701 179 686 186 692 b 374 883 186 833 250 883 l 460 883 b 650 697 588 883 650 828 l 650 535 l 456 535 b 436 515 442 535 436 529 l 436 457 b 456 439 436 443 442 439 l 650 439 l 650 276 b 460 89 650 144 588 89 l 374 89 b 186 261 250 89 186 138 b 171 276 186 271 179 276 l 97 276 b 82 261 88 276 82 269 l 82 254 b 369 -7 82 85 169 -7 l 464 -7 b 754 274 661 -7 754 92 l 754 699 b 464 979 754 882 661 979 z "},"І":{"ha":296,"x_min":0,"x_max":0,"o":"m 114 0 l 181 0 b 200 19 194 0 200 6 l 200 954 b 181 972 200 968 194 972 l 114 972 b 96 954 100 972 96 968 l 96 19 b 114 0 96 6 100 0 z "},"Ї":{"ha":296,"x_min":0,"x_max":0,"o":"m -83 1140 l -11 1140 b 8 1160 4 1140 8 1146 l 8 1232 b -11 1250 8 1246 4 1250 l -83 1250 b -101 1232 -97 1250 -101 1246 l -101 1160 b -83 1140 -101 1146 -97 1140 z m 304 1140 l 376 1140 b 396 1160 390 1140 396 1146 l 396 1232 b 376 1250 396 1246 390 1250 l 304 1250 b 286 1232 290 1250 286 1246 l 286 1160 b 304 1140 286 1146 290 1140 z m 114 0 l 181 0 b 200 19 194 0 200 6 l 200 954 b 181 972 200 968 194 972 l 114 972 b 96 954 100 972 96 968 l 96 19 b 114 0 96 6 100 0 z "},"Ј":{"ha":507,"x_min":0,"x_max":0,"o":"m 81 -7 l 121 -7 b 411 274 318 -7 411 92 l 411 954 b 393 972 411 968 407 972 l 326 972 b 307 954 313 972 307 968 l 307 276 b 117 89 307 144 246 89 l 81 89 b 61 71 67 89 61 85 l 61 13 b 81 -7 61 -3 67 -7 z "},"Ю":{"ha":1185,"x_min":0,"x_max":0,"o":"m 799 979 l 694 979 b 404 699 497 979 404 882 l 404 533 l 200 533 l 200 954 b 181 972 200 968 194 972 l 114 972 b 96 954 100 972 96 968 l 96 19 b 114 0 96 6 100 0 l 181 0 b 200 19 194 0 200 6 l 200 440 l 404 440 l 404 274 b 694 -7 404 92 497 -7 l 799 -7 b 1089 274 996 -7 1089 92 l 1089 699 b 799 979 1089 882 996 979 z m 985 276 b 794 89 985 144 922 89 l 699 89 b 508 276 569 89 508 144 l 508 697 b 699 883 508 828 569 883 l 794 883 b 985 697 922 883 985 828 z "},"Я":{"ha":811,"x_min":0,"x_max":0,"o":"m 697 972 l 363 972 b 76 697 163 972 76 882 l 76 560 b 213 308 76 431 118 347 l 81 26 b 97 0 72 11 81 0 l 158 0 b 185 17 171 0 179 6 l 310 286 b 363 283 326 285 344 283 l 611 283 l 611 19 b 631 0 611 6 617 0 l 697 0 b 715 19 711 0 715 6 l 715 954 b 697 972 715 968 711 972 z m 367 379 b 181 561 238 379 181 431 l 181 694 b 367 876 181 826 238 876 l 611 876 l 611 379 z "},"Ӏ":{"ha":296,"x_min":0,"x_max":0,"o":"m 114 0 l 181 0 b 200 19 194 0 200 6 l 200 954 b 181 972 200 968 194 972 l 114 972 b 96 954 100 972 96 968 l 96 19 b 114 0 96 6 100 0 z "},"Ӣ":{"ha":851,"x_min":0,"x_max":0,"o":"m 200 1154 l 650 1154 b 671 1175 663 1154 671 1161 l 671 1229 b 650 1250 671 1243 663 1250 l 200 1250 b 179 1229 186 1250 179 1243 l 179 1175 b 200 1154 179 1161 186 1154 z m 738 0 b 756 19 751 0 756 6 l 756 954 b 738 972 756 968 751 972 l 607 972 b 582 957 596 972 588 968 l 213 126 l 200 126 l 200 954 b 182 972 200 968 196 972 l 115 972 b 96 954 101 972 96 968 l 96 19 b 115 0 96 6 101 0 l 244 0 b 269 15 256 0 265 4 l 640 847 l 651 847 l 651 19 b 671 0 651 6 657 0 z "},"Ө":{"ha":875,"x_min":0,"x_max":0,"o":"m 489 979 l 386 979 b 96 699 188 979 96 882 l 96 274 b 386 -7 96 92 188 -7 l 489 -7 b 779 274 686 -7 779 92 l 779 699 b 489 979 779 882 686 979 z m 390 883 l 485 883 b 675 697 614 883 675 828 l 675 533 l 200 533 l 200 697 b 390 883 200 828 261 883 z m 485 89 l 390 89 b 200 276 261 89 200 144 l 200 440 l 675 440 l 675 276 b 485 89 675 144 614 89 z "},"Ӭ":{"ha":850,"x_min":0,"x_max":0,"o":"m 189 1140 l 261 1140 b 279 1160 275 1140 279 1146 l 279 1232 b 261 1250 279 1246 275 1250 l 189 1250 b 169 1232 175 1250 169 1246 l 169 1160 b 189 1140 169 1146 175 1140 z m 575 1140 l 647 1140 b 667 1160 661 1140 667 1146 l 667 1232 b 647 1250 667 1246 661 1250 l 575 1250 b 557 1232 561 1250 557 1246 l 557 1160 b 575 1140 557 1146 561 1140 z m 464 979 l 369 979 b 82 707 169 979 82 886 l 82 701 b 97 686 82 692 88 686 l 171 686 b 186 701 179 686 186 692 b 374 883 186 833 250 883 l 460 883 b 650 697 588 883 650 828 l 650 535 l 456 535 b 436 515 442 535 436 529 l 436 457 b 456 439 436 443 442 439 l 650 439 l 650 276 b 460 89 650 144 588 89 l 374 89 b 186 261 250 89 186 138 b 171 276 186 271 179 276 l 97 276 b 82 261 88 276 82 269 l 82 254 b 369 -7 82 85 169 -7 l 464 -7 b 754 274 661 -7 754 92 l 754 699 b 464 979 754 882 661 979 z "},"Ӯ":{"ha":797,"x_min":0,"x_max":0,"o":"m 182 1154 l 632 1154 b 653 1175 644 1154 653 1161 l 653 1229 b 632 1250 653 1243 644 1250 l 182 1250 b 161 1229 168 1250 161 1243 l 161 1175 b 182 1154 161 1161 168 1154 z m 729 972 l 654 972 b 628 953 640 972 635 967 l 397 453 l 169 953 b 143 972 163 967 157 972 l 68 972 b 57 950 54 972 50 965 l 342 332 l 200 22 b 211 0 192 7 197 0 l 286 0 b 311 19 300 0 304 6 l 740 950 b 729 972 747 965 743 972 z "},"а":{"ha":717,"x_min":0,"x_max":0,"o":"m 385 700 l 357 700 b 144 668 264 700 188 685 b 135 649 136 665 132 658 l 144 596 b 164 585 146 586 154 582 b 347 608 210 600 276 608 b 528 464 492 608 528 557 l 528 408 l 282 408 b 68 233 146 408 68 358 l 68 197 b 281 -7 68 68 132 -7 l 289 -7 b 514 104 393 -7 465 42 l 528 104 l 528 18 b 546 0 528 6 532 0 l 611 0 b 629 18 624 0 629 6 l 629 471 b 385 700 629 618 557 700 z m 343 85 l 294 85 b 168 203 213 85 168 118 l 168 226 b 293 329 168 307 214 329 l 528 329 l 528 243 b 343 85 528 164 446 85 z "},"б":{"ha":725,"x_min":0,"x_max":0,"o":"m 372 -7 l 414 -7 b 650 228 568 -7 650 74 l 650 465 b 414 700 650 619 568 700 l 372 700 b 201 619 290 700 233 669 l 190 619 l 190 751 b 281 853 190 814 208 853 b 458 842 353 853 407 842 b 606 954 546 842 606 875 b 589 972 606 965 603 972 l 522 972 b 503 963 513 972 508 971 b 419 932 486 938 460 932 b 250 943 361 932 313 943 b 89 757 126 943 89 872 l 89 18 b 107 0 89 6 93 0 l 172 0 b 190 18 185 0 190 6 l 190 75 l 201 75 b 372 -7 233 25 290 -7 z m 338 86 b 190 233 242 86 190 140 l 190 460 b 338 607 190 553 242 607 l 400 607 b 550 458 499 607 550 554 l 550 236 b 400 86 550 139 499 86 z "},"в":{"ha":686,"x_min":0,"x_max":0,"o":"m 511 361 b 592 503 585 396 592 460 b 399 694 592 643 518 694 l 110 694 b 89 674 96 694 89 688 l 89 21 b 110 0 89 7 96 0 l 404 0 b 611 192 538 0 611 47 b 511 350 611 256 593 321 z m 190 604 l 393 604 b 493 499 454 604 493 575 b 408 396 493 446 471 396 l 190 396 z m 401 92 l 190 92 l 190 317 l 410 315 b 511 199 474 315 511 281 b 401 92 511 107 464 92 z "},"г":{"ha":592,"x_min":0,"x_max":0,"o":"m 518 694 l 107 694 b 93 690 100 694 96 693 b 89 676 90 688 89 683 l 89 18 b 107 0 89 6 93 0 l 172 0 b 190 18 185 0 190 6 l 190 603 l 518 603 b 536 621 531 603 536 608 l 536 676 b 518 694 536 690 531 694 z "},"ѓ":{"ha":592,"x_min":0,"x_max":0,"o":"m 286 763 l 342 763 b 371 788 356 763 360 772 l 497 947 b 483 972 510 963 499 972 l 394 972 b 365 947 381 972 374 964 l 272 788 b 286 763 263 772 272 763 z m 518 694 l 107 694 b 93 690 100 694 96 693 b 89 676 90 688 89 683 l 89 18 b 107 0 89 6 93 0 l 172 0 b 190 18 185 0 190 6 l 190 603 l 518 603 b 536 621 531 603 536 608 l 536 676 b 518 694 536 690 531 694 z "},"ґ":{"ha":592,"x_min":0,"x_max":0,"o":"m 518 769 l 453 769 b 435 751 440 769 435 764 l 435 694 l 107 694 b 93 690 100 694 96 693 b 89 676 90 688 89 683 l 89 18 b 107 0 89 6 93 0 l 172 0 b 190 18 185 0 190 6 l 190 603 l 518 603 b 536 621 531 603 536 608 l 536 751 b 518 769 536 764 531 769 z "},"д":{"ha":839,"x_min":0,"x_max":0,"o":"m 783 92 l 725 92 l 725 674 b 704 694 725 688 718 694 l 224 694 b 203 674 210 694 203 688 l 203 336 b 74 92 203 149 136 92 l 56 92 b 35 71 42 92 35 85 l 35 -86 b 53 -104 35 -99 40 -104 l 118 -104 b 136 -86 131 -104 136 -99 l 136 0 l 703 0 l 703 -86 b 721 -104 703 -99 708 -104 l 786 -104 b 804 -86 799 -104 804 -99 l 804 71 b 783 92 804 85 797 92 z m 233 92 b 304 326 278 142 304 221 l 304 603 l 624 603 l 624 92 z "},"е":{"ha":706,"x_min":0,"x_max":0,"o":"m 364 -7 b 601 72 476 -7 561 31 b 600 92 607 76 607 83 l 579 124 b 554 128 572 132 567 135 b 364 82 515 103 461 82 l 350 82 b 176 232 228 82 176 143 l 176 306 l 586 306 b 631 349 614 306 631 322 l 631 465 b 385 700 631 614 546 700 l 321 700 b 75 463 163 700 75 613 l 75 231 b 349 -7 75 85 158 -7 z m 176 383 l 176 461 b 322 607 176 554 226 607 l 383 607 b 529 464 481 607 529 556 l 529 383 z "},"ё":{"ha":706,"x_min":0,"x_max":0,"o":"m 126 863 l 199 863 b 217 882 213 863 217 868 l 217 954 b 199 972 217 968 213 972 l 126 972 b 107 954 113 972 107 968 l 107 882 b 126 863 107 868 113 863 z m 513 863 l 585 863 b 604 882 599 863 604 868 l 604 954 b 585 972 604 968 599 972 l 513 972 b 494 954 499 972 494 968 l 494 882 b 513 863 494 868 499 863 z m 364 -7 b 601 72 476 -7 561 31 b 600 92 607 76 607 83 l 579 124 b 554 128 572 132 567 135 b 364 82 515 103 461 82 l 350 82 b 176 232 228 82 176 143 l 176 306 l 586 306 b 631 349 614 306 631 322 l 631 465 b 385 700 631 614 546 700 l 321 700 b 75 463 163 700 75 613 l 75 231 b 349 -7 75 85 158 -7 z m 176 383 l 176 461 b 322 607 176 554 226 607 l 383 607 b 529 464 481 607 529 556 l 529 383 z "},"ж":{"ha":1019,"x_min":0,"x_max":0,"o":"m 971 28 l 631 346 l 958 667 b 953 694 972 679 968 694 l 868 694 b 842 682 856 694 850 689 l 554 394 l 554 676 b 536 694 554 689 549 694 l 471 694 b 453 676 458 694 453 689 l 453 394 l 165 682 b 139 694 157 689 151 694 l 54 694 b 49 667 39 694 35 679 l 376 346 l 36 28 b 42 0 24 17 26 0 l 128 0 b 156 14 140 0 147 4 l 453 300 l 453 18 b 471 0 453 6 458 0 l 536 0 b 554 18 549 0 554 6 l 554 300 l 851 14 b 879 0 860 4 867 0 l 965 0 b 971 28 981 0 983 17 z "},"з":{"ha":653,"x_min":0,"x_max":0,"o":"m 267 -8 l 372 -8 b 590 185 501 -8 590 53 b 500 344 590 251 578 317 l 500 357 b 583 506 578 383 583 440 b 372 700 583 629 501 700 l 267 700 b 63 506 139 700 63 633 b 78 490 63 496 67 490 l 151 490 b 167 506 161 490 167 496 b 275 607 167 561 200 607 l 364 607 b 481 501 439 607 481 572 b 392 392 481 433 468 392 l 283 392 b 269 376 274 392 269 388 l 269 322 b 283 308 269 311 274 308 l 392 308 b 485 190 468 308 485 256 b 364 86 485 114 438 86 l 275 86 b 167 178 200 86 167 125 b 151 193 167 189 161 193 l 78 193 b 63 178 67 193 63 189 b 267 -8 63 51 139 -8 z "},"и":{"ha":743,"x_min":0,"x_max":0,"o":"m 107 0 l 219 0 b 244 15 231 0 239 4 l 543 581 l 554 581 l 554 18 b 571 0 554 6 558 0 l 638 0 b 654 18 650 0 654 6 l 654 676 b 638 694 654 689 650 694 l 524 694 b 499 679 513 694 504 690 l 200 114 l 190 114 l 190 676 b 172 694 190 689 185 694 l 107 694 b 89 676 93 694 89 689 l 89 18 b 107 0 89 6 93 0 z "},"й":{"ha":743,"x_min":0,"x_max":0,"o":"m 354 779 l 415 779 b 585 956 529 779 585 838 b 565 972 585 968 579 972 l 518 972 b 499 956 504 972 499 968 b 407 854 497 897 469 854 l 363 854 b 271 956 300 854 272 897 b 251 972 269 968 265 972 l 204 972 b 185 956 190 972 185 968 b 354 779 185 838 242 779 z m 107 0 l 219 0 b 244 15 231 0 239 4 l 543 581 l 554 581 l 554 18 b 571 0 554 6 558 0 l 638 0 b 654 18 650 0 654 6 l 654 676 b 638 694 654 689 650 694 l 524 694 b 499 679 513 694 504 690 l 200 114 l 190 114 l 190 676 b 172 694 190 689 185 694 l 107 694 b 89 676 93 694 89 689 l 89 18 b 107 0 89 6 93 0 z "},"ѝ":{"ha":743,"x_min":0,"x_max":0,"o":"m 336 947 b 307 972 328 964 321 972 l 218 972 b 204 947 203 972 192 963 l 331 788 b 360 763 342 772 346 763 l 415 763 b 429 788 429 763 439 772 z m 107 0 l 219 0 b 244 15 231 0 239 4 l 543 581 l 554 581 l 554 18 b 571 0 554 6 558 0 l 638 0 b 654 18 650 0 654 6 l 654 676 b 638 694 654 689 650 694 l 524 694 b 499 679 513 694 504 690 l 200 114 l 190 114 l 190 676 b 172 694 190 689 185 694 l 107 694 b 89 676 93 694 89 689 l 89 18 b 107 0 89 6 93 0 z "},"к":{"ha":654,"x_min":0,"x_max":0,"o":"m 607 28 l 267 346 l 594 667 b 589 694 608 679 604 694 l 504 694 b 478 682 492 694 485 689 l 190 396 l 190 676 b 172 694 190 689 185 694 l 107 694 b 89 676 93 694 89 689 l 89 18 b 107 0 89 6 93 0 l 172 0 b 190 18 185 0 190 6 l 190 299 l 488 14 b 514 0 496 4 503 0 l 601 0 b 607 28 617 0 619 17 z "},"ќ":{"ha":654,"x_min":0,"x_max":0,"o":"m 304 763 l 360 763 b 389 788 374 763 378 772 l 515 947 b 501 972 528 963 517 972 l 413 972 b 383 947 399 972 392 964 l 290 788 b 304 763 281 772 290 763 z m 607 28 l 267 346 l 594 667 b 589 694 608 679 604 694 l 504 694 b 478 682 492 694 485 689 l 190 396 l 190 676 b 172 694 190 689 185 694 l 107 694 b 89 676 93 694 89 689 l 89 18 b 107 0 89 6 93 0 l 172 0 b 190 18 185 0 190 6 l 190 299 l 488 14 b 514 0 496 4 503 0 l 601 0 b 607 28 617 0 619 17 z "},"л":{"ha":767,"x_min":0,"x_max":0,"o":"m 61 -14 b 217 171 181 -14 217 50 l 217 603 l 578 603 l 578 18 b 594 0 578 6 582 0 l 661 0 b 678 18 674 0 678 6 l 678 676 b 661 694 678 689 674 694 l 133 694 b 115 676 121 694 115 689 l 115 176 b 26 78 115 100 90 78 b 0 54 7 78 0 69 l 0 15 b 61 -14 0 -6 14 -14 z "},"м":{"ha":896,"x_min":0,"x_max":0,"o":"m 789 694 l 694 694 b 669 678 683 694 675 689 l 447 194 l 226 678 b 201 694 221 689 213 694 l 107 694 b 89 676 93 694 89 689 l 89 18 b 107 0 89 6 93 0 l 172 0 b 190 18 185 0 190 6 l 190 546 l 400 78 b 425 63 406 67 411 63 l 471 63 b 496 78 483 63 490 67 l 706 546 l 706 18 b 724 0 706 6 711 0 l 789 0 b 807 18 801 0 807 6 l 807 676 b 789 694 807 689 801 694 z "},"н":{"ha":740,"x_min":0,"x_max":0,"o":"m 633 694 l 568 694 b 550 676 556 694 550 689 l 550 393 l 190 393 l 190 676 b 172 694 190 689 185 694 l 107 694 b 89 676 93 694 89 689 l 89 18 b 107 0 89 6 93 0 l 172 0 b 190 18 185 0 190 6 l 190 303 l 550 303 l 550 18 b 568 0 550 6 556 0 l 633 0 b 651 18 646 0 651 6 l 651 676 b 633 694 651 689 646 694 z "},"о":{"ha":711,"x_min":0,"x_max":0,"o":"m 321 -7 l 392 -7 b 636 229 550 -7 636 79 l 636 465 b 392 700 636 614 551 700 l 321 700 b 75 465 160 700 75 614 l 75 229 b 321 -7 75 79 160 -7 z m 322 86 b 176 231 225 86 176 138 l 176 463 b 322 607 176 556 225 607 l 389 607 b 536 463 486 607 536 556 l 536 231 b 389 86 536 138 486 86 z "},"п":{"ha":740,"x_min":0,"x_max":0,"o":"m 106 0 l 172 0 b 190 18 185 0 190 6 l 190 603 l 550 603 l 550 18 b 568 0 550 6 556 0 l 633 0 b 651 18 646 0 651 6 l 651 676 b 633 694 651 689 646 694 l 107 694 b 89 676 93 694 89 689 l 89 18 b 106 0 89 6 93 0 z "},"р":{"ha":725,"x_min":0,"x_max":0,"o":"m 414 700 l 372 700 b 201 619 290 700 233 669 l 190 619 l 190 676 b 172 694 190 689 185 694 l 107 694 b 89 676 93 694 89 689 l 89 -228 b 107 -246 89 -240 93 -246 l 172 -246 b 190 -228 185 -246 190 -240 l 190 75 l 201 75 b 372 -7 233 25 290 -7 l 414 -7 b 650 228 568 -7 650 74 l 650 465 b 414 700 650 619 568 700 z m 550 236 b 400 86 550 139 499 86 l 338 86 b 190 233 242 86 190 140 l 190 460 b 338 607 190 553 242 607 l 400 607 b 550 458 499 607 550 554 z "},"с":{"ha":692,"x_min":0,"x_max":0,"o":"m 349 -7 l 361 -7 b 614 115 499 -7 575 35 b 603 143 619 128 618 136 l 564 161 b 532 153 546 169 539 164 b 361 83 501 104 465 83 l 353 83 b 176 236 229 83 176 140 l 176 461 b 322 607 176 554 226 607 l 385 607 b 526 486 475 607 526 561 l 526 481 b 544 463 526 468 531 463 l 607 463 b 625 481 619 463 625 468 l 625 488 b 386 700 625 619 536 700 l 321 700 b 75 463 163 700 75 613 l 75 231 b 349 -7 75 82 161 -7 z "},"т":{"ha":624,"x_min":0,"x_max":0,"o":"m 550 694 l 74 694 b 56 676 61 694 56 690 l 56 619 b 74 601 56 607 61 601 l 263 601 l 263 18 b 279 0 263 6 267 0 l 346 0 b 363 18 358 0 363 6 l 363 601 l 550 601 b 568 619 563 601 568 607 l 568 676 b 550 694 568 690 563 694 z "},"у":{"ha":733,"x_min":0,"x_max":0,"o":"m 665 694 l 596 694 b 572 672 582 694 578 688 l 371 119 l 363 119 l 160 672 b 138 694 154 688 151 694 l 68 694 b 56 674 54 694 51 686 l 315 -14 l 235 -225 b 249 -246 231 -236 235 -246 l 315 -246 b 338 -225 331 -246 333 -236 l 678 674 b 665 694 683 686 679 694 z "},"ў":{"ha":733,"x_min":0,"x_max":0,"o":"m 336 779 l 397 779 b 567 956 511 779 567 838 b 547 972 567 968 561 972 l 500 972 b 481 956 486 972 481 968 b 389 854 479 897 451 854 l 344 854 b 253 956 282 854 254 897 b 233 972 251 968 247 972 l 186 972 b 167 956 172 972 167 968 b 336 779 167 838 224 779 z m 665 694 l 596 694 b 572 672 582 694 578 688 l 371 119 l 363 119 l 160 672 b 138 694 154 688 151 694 l 68 694 b 56 674 54 694 51 686 l 315 -14 l 235 -225 b 249 -246 231 -236 235 -246 l 315 -246 b 338 -225 331 -246 333 -236 l 678 674 b 665 694 683 686 679 694 z "},"ф":{"ha":1172,"x_min":0,"x_max":0,"o":"m 861 700 l 819 700 b 649 619 738 700 681 669 l 638 619 l 638 676 b 636 686 638 681 638 683 l 636 954 b 619 972 636 967 632 972 l 553 972 b 536 954 540 972 536 967 l 536 619 l 524 619 b 353 700 492 669 435 700 l 311 700 b 75 465 157 700 75 619 l 75 228 b 311 -7 75 74 157 -7 l 353 -7 b 524 75 435 -7 492 25 l 536 75 l 536 -228 b 554 -246 536 -240 540 -246 l 619 -246 b 638 -228 632 -246 638 -240 l 638 75 l 649 75 b 819 -7 681 25 738 -7 l 861 -7 b 1097 228 1015 -7 1097 74 l 1097 465 b 861 700 1097 619 1015 700 z m 388 86 l 325 86 b 176 236 226 86 176 139 l 176 458 b 325 607 176 554 226 607 l 388 607 b 536 460 483 607 536 553 l 536 233 b 388 86 536 140 483 86 z m 997 236 b 847 86 997 139 946 86 l 785 86 b 638 233 689 86 638 140 l 638 460 b 785 607 638 553 689 607 l 847 607 b 997 458 946 607 997 554 z "},"х":{"ha":633,"x_min":0,"x_max":0,"o":"m 72 0 l 138 0 b 167 21 149 0 157 4 l 311 268 l 322 268 l 467 21 b 494 0 476 4 483 0 l 561 0 b 576 22 579 0 583 11 l 379 350 l 572 672 b 560 694 579 685 576 694 l 492 694 b 463 674 479 694 472 690 l 322 433 l 311 433 l 171 674 b 142 694 161 690 154 694 l 74 694 b 61 672 57 694 54 685 l 254 350 l 57 22 b 72 0 50 11 54 0 z "},"ч":{"ha":738,"x_min":0,"x_max":0,"o":"m 567 0 l 632 0 b 650 18 644 0 650 6 l 650 676 b 632 694 650 689 644 694 l 567 694 b 549 676 553 694 549 689 l 549 396 b 390 250 549 301 489 250 l 325 250 b 190 397 229 250 190 301 l 190 676 b 172 694 190 689 185 694 l 107 694 b 89 676 93 694 89 689 l 89 389 b 313 156 89 240 147 156 l 375 156 b 549 242 457 156 519 194 l 549 18 b 567 0 549 6 553 0 z "},"ц":{"ha":765,"x_min":0,"x_max":0,"o":"m 710 92 l 651 92 l 651 676 b 633 694 651 689 646 694 l 568 694 b 550 676 556 694 550 689 l 550 92 l 190 92 l 190 676 b 172 694 190 689 185 694 l 106 694 b 89 676 93 694 89 689 l 89 18 b 107 0 89 6 93 0 l 629 0 l 629 -86 b 647 -104 629 -99 635 -104 l 713 -104 b 731 -86 725 -104 731 -99 l 731 71 b 710 92 731 85 724 92 z "},"ш":{"ha":1026,"x_min":0,"x_max":0,"o":"m 107 0 l 919 0 b 938 18 933 0 938 6 l 938 676 b 919 694 938 689 933 694 l 854 694 b 836 676 842 694 836 689 l 836 92 l 564 92 l 564 676 b 546 694 564 689 558 694 l 479 694 b 463 676 467 694 463 689 l 463 92 l 190 92 l 190 676 b 172 694 190 689 185 694 l 106 694 b 89 676 93 694 89 689 l 89 18 b 107 0 89 6 93 0 z "},"щ":{"ha":1039,"x_min":0,"x_max":0,"o":"m 983 92 l 938 92 l 938 676 b 919 694 938 689 933 694 l 854 694 b 836 676 842 694 836 689 l 836 92 l 564 92 l 564 676 b 546 694 564 689 558 694 l 479 694 b 463 676 467 694 463 689 l 463 92 l 190 92 l 190 676 b 172 694 190 689 185 694 l 106 694 b 89 676 93 694 89 689 l 89 18 b 107 0 89 6 93 0 l 904 0 l 904 -86 b 921 -104 904 -99 908 -104 l 988 -104 b 1004 -86 1000 -104 1004 -99 l 1004 71 b 983 92 1004 85 997 92 z "},"ь":{"ha":721,"x_min":0,"x_max":0,"o":"m 414 465 l 190 465 l 190 676 b 172 694 190 689 185 694 l 107 694 b 89 676 93 694 89 689 l 89 18 b 107 0 89 6 93 0 l 414 0 b 646 232 579 0 646 61 b 414 465 646 404 579 465 z m 399 92 l 190 92 l 190 374 l 399 374 b 544 232 503 374 544 343 b 399 92 544 122 503 92 z "},"ъ":{"ha":763,"x_min":0,"x_max":0,"o":"m 456 465 l 232 465 l 232 676 b 214 694 232 689 226 694 l 53 694 b 35 676 40 694 35 690 l 35 621 b 53 603 35 608 40 603 l 131 603 l 131 18 b 149 0 131 6 135 0 l 456 0 b 688 232 621 0 688 61 b 456 465 688 404 621 465 z m 440 92 l 232 92 l 232 374 l 440 374 b 586 232 544 374 586 343 b 440 92 586 122 544 92 z "},"ы":{"ha":921,"x_min":0,"x_max":0,"o":"m 414 465 l 190 465 l 190 676 b 172 694 190 689 185 694 l 107 694 b 89 676 93 694 89 689 l 89 18 b 107 0 89 6 93 0 l 414 0 b 646 232 579 0 646 61 b 414 465 646 404 579 465 z m 814 694 l 749 694 b 731 676 736 694 731 689 l 731 18 b 749 0 731 6 736 0 l 814 0 b 832 18 826 0 832 6 l 832 676 b 814 694 832 689 826 694 z m 399 92 l 190 92 l 190 374 l 399 374 b 544 232 503 374 544 343 b 399 92 544 122 503 92 z "},"є":{"ha":692,"x_min":0,"x_max":0,"o":"m 386 700 l 321 700 b 75 463 163 700 75 613 l 75 231 b 349 -7 75 82 161 -7 l 361 -7 b 614 115 499 -7 575 35 b 603 143 619 128 618 136 l 564 161 b 532 153 546 169 539 164 b 361 83 501 104 465 83 l 353 83 b 176 236 229 83 176 140 l 176 296 l 315 296 b 333 314 328 296 333 301 l 333 369 b 315 388 333 383 328 388 l 176 388 l 176 461 b 322 607 176 554 226 607 l 385 607 b 526 486 475 607 526 561 l 526 481 b 544 463 526 468 531 463 l 607 463 b 625 481 619 463 625 468 l 625 488 b 386 700 625 619 536 700 z "},"э":{"ha":693,"x_min":0,"x_max":0,"o":"m 372 700 l 306 700 b 68 488 157 700 68 619 l 68 481 b 85 463 68 468 72 463 l 149 463 b 165 481 161 463 165 468 l 165 486 b 308 607 165 561 217 607 l 369 607 b 517 461 465 607 517 554 l 517 388 l 376 388 b 358 369 364 388 358 383 l 358 314 b 376 296 358 301 364 296 l 517 296 l 517 236 b 340 83 517 140 463 83 l 331 83 b 160 153 228 83 192 104 b 129 161 153 164 146 169 l 89 143 b 78 115 74 136 72 128 b 332 -7 117 35 194 -7 l 343 -7 b 617 231 531 -7 617 82 l 617 463 b 372 700 617 613 531 700 z "},"і":{"ha":281,"x_min":0,"x_max":0,"o":"m 107 872 l 174 872 b 192 890 188 872 192 878 l 192 954 b 174 972 192 967 188 972 l 107 972 b 89 954 93 972 89 967 l 89 890 b 107 872 89 878 93 872 z m 107 0 l 174 0 b 190 18 186 0 190 6 l 190 676 b 174 694 190 689 186 694 l 107 694 b 90 676 94 694 90 689 l 90 18 b 107 0 90 6 94 0 z "},"ї":{"ha":254,"x_min":0,"x_max":0,"o":"m -104 863 l -32 863 b -12 882 -18 863 -12 868 l -12 954 b -32 972 -12 968 -18 972 l -104 972 b -122 954 -118 972 -122 968 l -122 882 b -104 863 -122 868 -118 863 z m 283 863 l 356 863 b 375 882 369 863 375 868 l 375 954 b 356 972 375 968 369 972 l 283 972 b 265 954 269 972 265 968 l 265 882 b 283 863 265 868 269 863 z m 94 0 l 160 0 b 178 18 172 0 178 6 l 178 676 b 160 694 178 689 172 694 l 94 694 b 76 676 82 694 76 689 l 76 18 b 94 0 76 6 82 0 z "},"ј":{"ha":290,"x_min":0,"x_max":0,"o":"m 115 872 l 183 872 b 201 890 196 872 201 878 l 201 954 b 183 972 201 967 196 972 l 115 972 b 99 954 103 972 99 967 l 99 890 b 115 872 99 878 103 872 z m 46 -254 b 201 -71 165 -254 201 -190 l 201 676 b 183 694 201 689 196 694 l 118 694 b 100 676 106 694 100 689 l 100 -64 b 11 -164 100 -140 75 -164 b -15 -186 -10 -164 -15 -172 l -15 -225 b 46 -254 -15 -246 -1 -254 z "},"ю":{"ha":981,"x_min":0,"x_max":0,"o":"m 661 700 l 590 700 b 344 465 429 700 344 614 l 344 390 l 190 390 l 190 676 b 172 693 190 688 185 693 l 107 693 b 89 676 93 693 89 688 l 89 17 b 107 -1 89 6 93 -1 l 172 -1 b 190 17 185 -1 190 6 l 190 299 l 344 299 l 344 229 b 590 -7 344 79 429 -7 l 661 -7 b 907 229 821 -7 907 79 l 907 465 b 661 700 907 614 821 700 z m 806 231 b 660 86 806 138 757 86 l 592 86 b 446 231 494 86 446 138 l 446 463 b 592 607 446 556 494 607 l 660 607 b 806 463 757 607 806 556 z "},"я":{"ha":701,"x_min":0,"x_max":0,"o":"m 594 694 l 276 694 b 81 499 140 694 81 626 b 168 331 81 436 92 363 l 168 324 b 75 156 93 294 75 229 l 75 21 b 93 0 75 7 81 0 l 157 0 b 176 21 169 0 176 7 l 176 153 b 279 274 176 232 200 274 l 511 274 l 511 18 b 529 0 511 6 517 0 l 594 0 b 613 18 607 0 613 6 l 613 676 b 594 694 613 689 607 694 z m 279 364 b 179 492 204 364 179 411 b 279 600 179 564 210 600 l 511 600 l 511 364 z "},"ӣ":{"ha":743,"x_min":0,"x_max":0,"o":"m 161 876 l 611 876 b 632 897 624 876 632 883 l 632 951 b 611 972 632 965 624 972 l 161 972 b 140 951 147 972 140 965 l 140 897 b 161 876 140 883 147 876 z m 107 0 l 219 0 b 244 15 231 0 239 4 l 543 581 l 554 581 l 554 18 b 571 0 554 6 558 0 l 638 0 b 654 18 650 0 654 6 l 654 676 b 638 694 654 689 650 694 l 524 694 b 499 679 513 694 504 690 l 200 114 l 190 114 l 190 676 b 172 694 190 689 185 694 l 107 694 b 89 676 93 694 89 689 l 89 18 b 107 0 89 6 93 0 z "},"ө":{"ha":711,"x_min":0,"x_max":0,"o":"m 392 700 l 321 700 b 75 465 160 700 75 614 l 75 229 b 321 -7 75 79 160 -7 l 392 -7 b 636 229 551 -7 636 79 l 636 465 b 392 700 636 614 550 700 z m 322 607 l 389 607 b 536 463 486 607 536 556 l 536 392 l 176 392 l 176 463 b 322 607 176 556 225 607 z m 389 86 l 322 86 b 176 231 225 86 176 138 l 176 301 l 536 301 l 536 231 b 389 86 536 138 486 86 z "},"ӭ":{"ha":693,"x_min":0,"x_max":0,"o":"m 110 863 l 182 863 b 200 882 196 863 200 868 l 200 954 b 182 972 200 968 196 972 l 110 972 b 90 954 96 972 90 968 l 90 882 b 110 863 90 868 96 863 z m 496 863 l 568 863 b 588 882 582 863 588 868 l 588 954 b 568 972 588 968 582 972 l 496 972 b 478 954 482 972 478 968 l 478 882 b 496 863 478 868 482 863 z m 372 700 l 306 700 b 68 488 157 700 68 619 l 68 481 b 85 463 68 468 72 463 l 149 463 b 165 481 161 463 165 468 l 165 486 b 308 607 165 561 217 607 l 369 607 b 517 461 465 607 517 554 l 517 388 l 376 388 b 358 369 364 388 358 383 l 358 314 b 376 296 358 301 364 296 l 517 296 l 517 236 b 340 83 517 140 463 83 l 331 83 b 160 153 228 83 192 104 b 129 161 153 164 146 169 l 89 143 b 78 115 74 136 72 128 b 332 -7 117 35 194 -7 l 343 -7 b 617 231 531 -7 617 82 l 617 463 b 372 700 617 613 531 700 z "},"ӯ":{"ha":733,"x_min":0,"x_max":0,"o":"m 146 876 l 596 876 b 617 897 608 876 617 883 l 617 951 b 596 972 617 965 608 972 l 146 972 b 125 951 132 972 125 965 l 125 897 b 146 876 125 883 132 876 z m 665 694 l 596 694 b 572 672 582 694 578 688 l 371 119 l 363 119 l 160 672 b 138 694 154 688 151 694 l 68 694 b 56 674 54 694 51 686 l 315 -14 l 235 -225 b 249 -246 231 -236 235 -246 l 315 -246 b 338 -225 331 -246 333 -236 l 678 674 b 665 694 683 686 679 694 z "},"Δ":{"ha":825,"x_min":0,"x_max":0,"o":"m 793 22 l 493 990 b 467 1013 489 1004 479 1013 l 408 1013 b 382 990 396 1013 386 1004 l 79 22 b 94 0 75 7 81 0 l 776 0 b 793 22 790 0 799 7 z m 207 104 l 439 853 l 665 104 z "},"Ω":{"ha":844,"x_min":0,"x_max":0,"o":"m 749 310 l 749 738 b 472 1025 749 922 632 1025 l 372 1025 b 96 738 213 1025 96 922 l 96 310 b 210 104 96 210 138 149 l 117 104 b 96 83 103 104 96 97 l 96 21 b 117 0 96 7 103 0 l 365 0 b 386 21 379 0 386 7 l 386 89 b 365 110 386 103 379 110 l 361 110 b 200 324 274 110 200 213 l 200 733 b 376 921 200 865 268 921 l 468 921 b 644 733 576 921 644 865 l 644 324 b 483 110 644 213 569 110 l 479 110 b 458 89 465 110 458 103 l 458 21 b 479 0 458 7 465 0 l 728 0 b 749 21 742 0 749 7 l 749 83 b 728 104 749 97 742 104 l 635 104 b 749 310 707 149 749 210 z "},"μ":{"ha":739,"x_min":0,"x_max":0,"o":"m 633 694 l 567 694 b 550 676 556 694 550 689 l 550 236 b 389 88 550 142 490 88 l 336 88 b 190 238 235 88 190 140 l 190 676 b 172 694 190 689 185 694 l 106 694 b 89 676 94 694 89 689 l 89 -257 b 110 -278 89 -271 96 -278 l 168 -278 b 189 -257 182 -278 189 -271 l 189 19 b 314 -6 222 3 263 -6 l 354 -6 b 535 78 436 -6 500 26 l 550 78 l 550 18 b 567 0 550 6 556 0 l 633 0 b 650 18 646 0 650 6 l 650 676 b 633 694 650 689 646 694 z "},"π":{"ha":810,"x_min":0,"x_max":0,"o":"m 733 694 l 75 694 b 56 674 61 694 56 688 l 56 611 b 76 590 56 597 61 590 l 140 590 l 140 21 b 161 0 140 7 147 0 l 224 0 b 244 21 238 0 244 7 l 244 590 l 564 590 l 564 21 b 585 0 564 7 571 0 l 647 0 b 668 21 661 0 668 7 l 668 590 l 733 590 b 754 610 747 590 754 597 l 754 674 b 733 694 754 686 747 694 z "},"¹":{"ha":419,"x_min":0,"x_max":0,"o":"m 167 951 l 167 564 b 188 543 167 550 174 543 l 232 543 b 253 564 246 543 253 550 l 253 951 b 232 972 253 965 246 972 l 188 972 b 167 951 174 972 167 965 z "},"²":{"ha":444,"x_min":0,"x_max":0,"o":"m 340 624 l 190 624 l 268 692 b 360 847 317 733 360 776 b 240 972 360 913 322 972 l 206 972 b 83 857 129 972 83 924 l 83 839 b 104 818 83 825 90 818 l 146 818 b 167 839 160 818 167 825 l 167 849 b 218 893 167 878 188 893 b 275 839 253 893 275 874 b 226 761 275 807 250 783 l 106 647 b 86 608 92 635 86 628 l 86 563 b 107 542 86 549 93 542 l 340 542 b 361 563 354 542 361 549 l 361 603 b 340 624 361 617 354 624 z "},"³":{"ha":449,"x_min":0,"x_max":0,"o":"m 301 757 b 360 853 343 778 360 810 b 243 972 360 913 322 972 l 208 972 b 86 857 132 972 86 924 l 86 839 b 107 818 86 825 93 818 l 149 818 b 169 839 163 818 169 825 l 169 849 b 224 893 169 878 190 893 b 278 840 258 893 278 874 b 226 793 278 810 264 793 l 204 793 b 185 772 192 793 185 786 l 185 742 b 204 721 185 728 192 721 l 226 721 b 281 674 267 721 281 704 b 224 621 281 640 261 621 b 167 665 188 621 167 636 l 167 675 b 146 696 167 689 160 696 l 104 696 b 83 675 90 696 83 689 l 83 657 b 208 542 83 590 129 542 l 243 542 b 368 661 331 542 368 601 b 301 757 368 704 346 736 z "},"⁄":{"ha":175,"x_min":0,"x_max":0,"o":"m 321 951 l -240 21 b -226 0 -249 7 -240 0 l -174 0 b -146 21 -160 0 -154 7 l 415 951 b 401 972 424 965 415 972 l 349 972 b 321 951 335 972 329 965 z "},"½":{"ha":1039,"x_min":0,"x_max":0,"o":"m 167 951 l 167 564 b 188 543 167 550 174 543 l 232 543 b 253 564 246 543 253 550 l 253 951 b 232 972 253 965 246 972 l 188 972 b 167 951 174 972 167 965 z m 740 951 l 179 21 b 193 0 171 7 179 0 l 246 0 b 274 21 260 0 265 7 l 835 951 b 821 972 843 965 835 972 l 768 972 b 740 951 754 972 749 965 z m 935 82 l 785 82 l 863 150 b 954 306 911 192 954 235 b 835 431 954 371 917 431 l 800 431 b 678 315 724 431 678 382 l 678 297 b 699 276 678 283 685 276 l 740 276 b 761 297 754 276 761 283 l 761 307 b 813 351 761 336 782 351 b 869 297 847 351 869 332 b 821 219 869 265 844 242 l 700 106 b 681 67 686 93 681 86 l 681 21 b 701 0 681 7 688 0 l 935 0 b 956 21 949 0 956 7 l 956 61 b 935 82 956 75 949 82 z "},"¼":{"ha":1061,"x_min":0,"x_max":0,"o":"m 167 951 l 167 564 b 188 543 167 550 174 543 l 232 543 b 253 564 246 543 253 550 l 253 951 b 232 972 253 965 246 972 l 188 972 b 167 951 174 972 167 965 z m 740 951 l 179 21 b 193 0 171 7 179 0 l 246 0 b 274 21 260 0 265 7 l 835 951 b 821 972 843 965 835 972 l 768 972 b 740 951 754 972 749 965 z m 957 150 l 938 150 l 938 410 b 917 431 938 424 931 431 l 847 431 b 824 415 839 431 829 426 l 685 151 b 678 126 682 146 678 138 l 678 92 b 701 71 678 78 686 71 l 854 71 l 854 21 b 875 0 854 7 861 0 l 917 0 b 938 21 931 0 938 7 l 938 71 l 957 71 b 978 92 971 71 978 78 l 978 129 b 957 150 978 143 971 150 z m 854 153 l 774 153 l 854 315 z "},"¾":{"ha":1090,"x_min":0,"x_max":0,"o":"m 301 757 b 360 853 343 778 360 810 b 243 972 360 913 322 972 l 208 972 b 86 857 132 972 86 924 l 86 839 b 107 818 86 825 93 818 l 149 818 b 169 839 163 818 169 825 l 169 849 b 224 893 169 878 190 893 b 278 840 258 893 278 874 b 226 793 278 810 264 793 l 204 793 b 185 772 192 793 185 786 l 185 742 b 204 721 185 728 192 721 l 226 721 b 281 674 267 721 281 704 b 224 621 281 640 261 621 b 167 665 188 621 167 636 l 167 675 b 146 696 167 689 160 696 l 104 696 b 83 675 90 696 83 689 l 83 657 b 208 542 83 590 129 542 l 243 542 b 368 661 331 542 368 601 b 301 757 368 704 346 736 z m 769 951 l 208 21 b 222 0 200 7 208 0 l 275 0 b 303 21 289 0 294 7 l 864 951 b 850 972 872 965 864 972 l 797 972 b 769 951 783 972 778 965 z m 986 150 l 967 150 l 967 410 b 946 431 967 424 960 431 l 876 431 b 853 415 868 431 858 426 l 714 151 b 707 126 711 146 707 138 l 707 92 b 731 71 707 78 715 71 l 883 71 l 883 21 b 904 0 883 7 890 0 l 946 0 b 967 21 960 0 967 7 l 967 71 l 986 71 b 1007 92 1000 71 1007 78 l 1007 129 b 986 150 1007 143 1000 150 z m 883 153 l 803 153 l 883 315 z "},"⅛":{"ha":1043,"x_min":0,"x_max":0,"o":"m 167 951 l 167 564 b 188 543 167 550 174 543 l 232 543 b 253 564 246 543 253 550 l 253 951 b 232 972 253 965 246 972 l 188 972 b 167 951 174 972 167 965 z m 740 951 l 179 21 b 193 0 171 7 179 0 l 246 0 b 274 21 260 0 265 7 l 835 951 b 821 972 843 965 835 972 l 768 972 b 740 951 754 972 749 965 z m 903 226 b 949 317 931 244 949 274 b 831 431 949 381 907 431 l 807 431 b 689 317 735 431 689 381 b 735 226 689 274 707 244 b 678 122 707 210 678 182 b 806 0 678 50 721 0 l 832 0 b 960 122 917 0 960 50 b 903 226 960 182 931 210 z m 822 258 l 815 258 b 769 307 788 258 769 276 b 815 356 769 338 788 356 l 822 356 b 868 307 850 356 868 338 b 822 258 868 276 850 258 z m 811 78 b 763 131 782 78 763 94 b 811 186 763 165 782 186 l 826 186 b 875 131 856 186 875 165 b 826 78 875 94 856 78 z "},"⅜":{"ha":1072,"x_min":0,"x_max":0,"o":"m 301 757 b 360 853 343 778 360 810 b 243 972 360 913 322 972 l 208 972 b 86 857 132 972 86 924 l 86 839 b 107 818 86 825 93 818 l 149 818 b 169 839 163 818 169 825 l 169 849 b 224 893 169 878 190 893 b 278 840 258 893 278 874 b 226 793 278 810 264 793 l 204 793 b 185 772 192 793 185 786 l 185 742 b 204 721 185 728 192 721 l 226 721 b 281 674 267 721 281 704 b 224 621 281 640 261 621 b 167 665 188 621 167 636 l 167 675 b 146 696 167 689 160 696 l 104 696 b 83 675 90 696 83 689 l 83 657 b 208 542 83 590 129 542 l 243 542 b 368 661 331 542 368 601 b 301 757 368 704 346 736 z m 769 951 l 208 21 b 222 0 200 7 208 0 l 275 0 b 303 21 289 0 294 7 l 864 951 b 850 972 872 965 864 972 l 797 972 b 769 951 783 972 778 965 z m 932 226 b 978 317 960 244 978 274 b 860 431 978 381 936 431 l 836 431 b 718 317 764 431 718 381 b 764 226 718 274 736 244 b 707 122 736 210 707 182 b 835 0 707 50 750 0 l 861 0 b 989 122 946 0 989 50 b 932 226 989 182 960 210 z m 851 258 l 844 258 b 799 307 817 258 799 276 b 844 356 799 338 817 356 l 851 356 b 897 307 879 356 897 338 b 851 258 897 276 879 258 z m 840 78 b 792 131 811 78 792 94 b 840 186 792 165 811 186 l 856 186 b 904 131 885 186 904 165 b 856 78 904 94 885 78 z "},"⅝":{"ha":1075,"x_min":0,"x_max":0,"o":"m 238 824 b 169 799 215 824 188 818 l 169 892 l 332 892 b 353 913 346 892 353 899 l 353 951 b 332 972 353 965 346 972 l 110 972 b 89 951 96 972 89 965 l 89 757 b 110 736 89 743 96 736 l 168 736 b 221 754 181 749 201 754 b 281 682 268 754 281 726 b 224 621 281 640 261 621 b 167 665 188 621 167 636 l 167 675 b 146 696 167 689 160 696 l 104 696 b 83 675 90 696 83 689 l 83 657 b 208 542 83 590 129 542 l 243 542 b 368 682 331 542 368 601 b 238 824 368 769 325 824 z m 772 951 l 211 21 b 225 0 203 7 211 0 l 278 0 b 306 21 292 0 297 7 l 867 951 b 853 972 875 965 867 972 l 800 972 b 772 951 786 972 781 965 z m 935 226 b 981 317 963 244 981 274 b 863 431 981 381 939 431 l 839 431 b 721 317 767 431 721 381 b 767 226 721 274 739 244 b 710 122 739 210 710 182 b 838 0 710 50 753 0 l 864 0 b 992 122 949 0 992 50 b 935 226 992 182 963 210 z m 854 258 l 847 258 b 801 307 819 258 801 276 b 847 356 801 338 819 356 l 854 356 b 900 307 882 356 900 338 b 854 258 900 276 882 258 z m 843 78 b 794 131 814 78 794 94 b 843 186 794 165 814 186 l 858 186 b 907 131 888 186 907 165 b 858 78 907 94 888 78 z "},"⅞":{"ha":1060,"x_min":0,"x_max":0,"o":"m 353 908 l 353 951 b 332 972 353 965 346 972 l 104 972 b 83 951 90 972 83 965 l 83 910 b 104 889 83 896 90 889 l 260 889 l 104 561 b 117 542 100 551 104 542 l 175 542 b 197 561 186 542 193 551 l 347 885 b 353 908 353 896 353 903 z m 757 951 l 196 21 b 210 0 188 7 196 0 l 263 0 b 290 21 276 0 282 7 l 851 951 b 838 972 860 965 851 972 l 785 972 b 757 951 771 972 765 965 z m 919 226 b 965 317 947 244 965 274 b 847 431 965 381 924 431 l 824 431 b 706 317 751 431 706 381 b 751 226 706 274 724 244 b 694 122 724 210 694 182 b 822 0 694 50 738 0 l 849 0 b 976 122 933 0 976 50 b 919 226 976 182 947 210 z m 839 258 l 832 258 b 786 307 804 258 786 276 b 832 356 786 338 804 356 l 839 356 b 885 307 867 356 885 338 b 839 258 885 276 867 258 z m 828 78 b 779 131 799 78 779 94 b 828 186 779 165 799 186 l 843 186 b 892 131 872 186 892 165 b 843 78 892 94 872 78 z "},".":{"ha":207,"x_min":0,"x_max":0,"o":"m 68 0 l 140 0 b 158 19 154 0 158 6 l 158 92 b 140 110 158 106 154 110 l 68 110 b 49 92 54 110 49 106 l 49 19 b 68 0 49 6 54 0 z "},",":{"ha":238,"x_min":0,"x_max":0,"o":"m 171 110 l 117 110 b 99 92 103 110 99 106 l 99 -115 l 54 -115 b 35 -133 40 -115 35 -119 l 35 -182 b 54 -201 35 -196 40 -201 l 153 -201 b 189 -164 178 -201 189 -189 l 189 92 b 171 110 189 106 185 110 z "},":":{"ha":207,"x_min":0,"x_max":0,"o":"m 68 585 l 140 585 b 158 604 154 585 158 590 l 158 676 b 140 694 158 690 154 694 l 68 694 b 49 676 54 694 49 690 l 49 604 b 68 585 49 590 54 585 z m 68 0 l 140 0 b 158 19 154 0 158 6 l 158 92 b 140 110 158 106 154 110 l 68 110 b 49 92 54 110 49 106 l 49 19 b 68 0 49 6 54 0 z "},";":{"ha":261,"x_min":0,"x_max":0,"o":"m 122 585 l 194 585 b 213 604 208 585 213 590 l 213 676 b 194 694 213 690 208 694 l 122 694 b 103 676 108 694 103 690 l 103 604 b 122 585 103 590 108 585 z m 185 110 l 131 110 b 113 92 117 110 113 106 l 113 -115 l 68 -115 b 49 -133 54 -115 49 -119 l 49 -182 b 68 -201 49 -196 54 -201 l 167 -201 b 203 -164 192 -201 203 -189 l 203 92 b 185 110 203 106 199 110 z "}}}
